Tajawal-Medium.ufo
<glyph name="exclam" format="1">
 <advance width="238" />
 <unicode hex="0021" />
 <outline>
  <contour>
   <point x="74" y="159" type="line" smooth="no" name="13" />
   <point x="160" y="159" type="line" smooth="no" name="13" />
   <point x="160" y="633" type="line" smooth="no" name="13" />
   <point x="74" y="633" type="line" smooth="no" name="13" />
  </contour>
  <contour>
   <point x="67" y="40" type="curve" smooth="yes" name="15" />
   <point x="67" y="10" type="offcurve" name="14" />
   <point x="85" y="-13" type="offcurve" name="14" />
   <point x="120" y="-13" type="curve" smooth="yes" name="15" />
   <point x="155" y="-13" type="offcurve" name="14" />
   <point x="173" y="9" type="offcurve" name="14" />
   <point x="173" y="40" type="curve" smooth="yes" name="15" />
   <point x="173" y="69" type="offcurve" name="14" />
   <point x="156" y="92" type="offcurve" name="14" />
   <point x="120" y="92" type="curve" smooth="yes" name="15" />
   <point x="86" y="92" type="offcurve" name="14" />
   <point x="68" y="71" type="offcurve" name="14" />
   <point x="67" y="42" type="curve" smooth="yes" name="15" />
   <point x="67" y="41" type="offcurve" name="14" />
   <point x="67" y="40" type="offcurve" name="14" />
  </contour>
 </outline>
</glyph>
<glyph name="quotedbl" format="1">
 <advance width="302" />
 <unicode hex="0022" />
 <outline>
  <contour>
   <point x="70" y="468" type="line" smooth="no" name="13" />
   <point x="134" y="502" type="line" smooth="no" name="13" />
   <point x="134" y="645" type="line" smooth="no" name="13" />
   <point x="70" y="611" type="line" smooth="no" name="13" />
  </contour>
  <contour>
   <point x="169" y="468" type="line" smooth="no" name="13" />
   <point x="232" y="502" type="line" smooth="no" name="13" />
   <point x="232" y="645" type="line" smooth="no" name="13" />
   <point x="169" y="611" type="line" smooth="no" name="13" />
  </contour>
 </outline>
</glyph>
<glyph name="numbersign" format="1">
 <advance width="497" />
 <unicode hex="0023" />
 <outline>
  <contour>
   <point x="342" y="142" type="line" smooth="no" name="13" />
   <point x="449" y="142" type="line" smooth="no" name="13" />
   <point x="449" y="212" type="line" smooth="no" name="13" />
   <point x="356" y="212" type="line" smooth="no" name="13" />
   <point x="392" y="383" type="line" smooth="no" name="13" />
   <point x="482" y="383" type="line" smooth="no" name="13" />
   <point x="482" y="453" type="line" smooth="no" name="13" />
   <point x="407" y="453" type="line" smooth="no" name="13" />
   <point x="440" y="609" type="line" smooth="no" name="13" />
   <point x="376" y="609" type="line" smooth="no" name="13" />
   <point x="343" y="453" type="line" smooth="no" name="13" />
   <point x="217" y="453" type="line" smooth="no" name="13" />
   <point x="250" y="609" type="line" smooth="no" name="13" />
   <point x="186" y="609" type="line" smooth="no" name="13" />
   <point x="153" y="453" type="line" smooth="no" name="13" />
   <point x="48" y="453" type="line" smooth="no" name="13" />
   <point x="48" y="383" type="line" smooth="no" name="13" />
   <point x="138" y="383" type="line" smooth="no" name="13" />
   <point x="102" y="212" type="line" smooth="no" name="13" />
   <point x="15" y="212" type="line" smooth="no" name="13" />
   <point x="15" y="142" type="line" smooth="no" name="13" />
   <point x="88" y="142" type="line" smooth="no" name="13" />
   <point x="58" y="0" type="line" smooth="no" name="13" />
   <point x="122" y="0" type="line" smooth="no" name="13" />
   <point x="152" y="142" type="line" smooth="no" name="13" />
   <point x="278" y="142" type="line" smooth="no" name="13" />
   <point x="248" y="0" type="line" smooth="no" name="13" />
   <point x="312" y="0" type="line" smooth="no" name="13" />
  </contour>
  <contour>
   <point x="202" y="383" type="line" smooth="no" name="13" />
   <point x="328" y="383" type="line" smooth="no" name="13" />
   <point x="292" y="212" type="line" smooth="no" name="13" />
   <point x="166" y="212" type="line" smooth="no" name="13" />
  </contour>
 </outline>
</glyph>
<glyph name="dollar" format="1">
 <advance width="550" />
 <unicode hex="0024" />
 <outline>
  <contour>
   <point x="294" y="700" type="line" smooth="no" name="13" />
   <point x="254" y="700" type="line" smooth="no" name="13" />
   <point x="254" y="644" type="line" smooth="no" name="13" />
   <point x="138" y="636" type="offcurve" name="14" />
   <point x="76" y="565" type="offcurve" name="14" />
   <point x="76" y="481" type="curve" smooth="yes" name="15" />
   <point x="76" y="384" type="offcurve" name="14" />
   <point x="153" y="338" type="offcurve" name="14" />
   <point x="254" y="300" type="curve" smooth="no" name="13" />
   <point x="254" y="72" type="line" smooth="no" name="13" />
   <point x="204" y="74" type="offcurve" name="14" />
   <point x="141" y="92" type="offcurve" name="14" />
   <point x="110" y="110" type="curve" smooth="no" name="13" />
   <point x="70" y="54" type="line" smooth="no" name="13" />
   <point x="110" y="28" type="offcurve" name="14" />
   <point x="169" y="-6" type="offcurve" name="14" />
   <point x="254" y="-11" type="curve" smooth="no" name="13" />
   <point x="254" y="-74" type="line" smooth="no" name="13" />
   <point x="294" y="-74" type="line" smooth="no" name="13" />
   <point x="294" y="-11" type="line" smooth="no" name="13" />
   <point x="399" y="-4" type="offcurve" name="14" />
   <point x="479" y="61" type="offcurve" name="14" />
   <point x="479" y="171" type="curve" smooth="yes" name="15" />
   <point x="479" y="271" type="offcurve" name="14" />
   <point x="414" y="329" type="offcurve" name="14" />
   <point x="294" y="376" type="curve" smooth="no" name="13" />
   <point x="294" y="565" type="line" smooth="no" name="13" />
   <point x="338" y="563" type="offcurve" name="14" />
   <point x="384" y="548" type="offcurve" name="14" />
   <point x="417" y="532" type="curve" smooth="no" name="13" />
   <point x="457" y="589" type="line" smooth="no" name="13" />
   <point x="420" y="614" type="offcurve" name="14" />
   <point x="370" y="641" type="offcurve" name="14" />
   <point x="294" y="644" type="curve" smooth="no" name="13" />
  </contour>
  <contour>
   <point x="294" y="73" type="curve" smooth="no" name="13" />
   <point x="294" y="283" type="line" smooth="no" name="13" />
   <point x="365" y="248" type="offcurve" name="14" />
   <point x="381" y="213" type="offcurve" name="14" />
   <point x="381" y="175" type="curve" smooth="yes" name="15" />
   <point x="381" y="117" type="offcurve" name="14" />
   <point x="354" y="81" type="offcurve" name="14" />
  </contour>
  <contour>
   <point x="254" y="564" type="curve" smooth="no" name="13" />
   <point x="254" y="393" type="line" smooth="no" name="13" />
   <point x="184" y="426" type="offcurve" name="14" />
   <point x="174" y="456" type="offcurve" name="14" />
   <point x="174" y="486" type="curve" smooth="yes" name="15" />
   <point x="174" y="526" type="offcurve" name="14" />
   <point x="203" y="556" type="offcurve" name="14" />
  </contour>
 </outline>
</glyph>
<glyph name="percent" format="1">
 <advance width="746" />
 <unicode hex="0025" />
 <outline>
  <contour>
   <point x="187" y="0" type="line" smooth="no" name="13" />
   <point x="260" y="0" type="line" smooth="no" name="13" />
   <point x="563" y="589" type="line" smooth="no" name="13" />
   <point x="491" y="589" type="line" smooth="no" name="13" />
  </contour>
  <contour>
   <point x="295" y="429" type="curve" smooth="yes" name="15" />
   <point x="295" y="509" type="offcurve" name="14" />
   <point x="253" y="581" type="offcurve" name="14" />
   <point x="175" y="581" type="curve" smooth="yes" name="15" />
   <point x="91" y="581" type="offcurve" name="14" />
   <point x="52" y="511" type="offcurve" name="14" />
   <point x="52" y="428" type="curve" smooth="yes" name="15" />
   <point x="52" y="337" type="offcurve" name="14" />
   <point x="92" y="268" type="offcurve" name="14" />
   <point x="175" y="268" type="curve" smooth="yes" name="15" />
   <point x="255" y="268" type="offcurve" name="14" />
   <point x="295" y="342" type="offcurve" name="14" />
  </contour>
  <contour>
   <point x="236" y="427" type="curve" smooth="yes" name="15" />
   <point x="236" y="372" type="offcurve" name="14" />
   <point x="216" y="318" type="offcurve" name="14" />
   <point x="173" y="318" type="curve" smooth="yes" name="15" />
   <point x="129" y="318" type="offcurve" name="14" />
   <point x="109" y="372" type="offcurve" name="14" />
   <point x="109" y="427" type="curve" smooth="yes" name="15" />
   <point x="109" y="478" type="offcurve" name="14" />
   <point x="130" y="530" type="offcurve" name="14" />
   <point x="173" y="530" type="curve" smooth="yes" name="15" />
   <point x="216" y="530" type="offcurve" name="14" />
   <point x="236" y="475" type="offcurve" name="14" />
  </contour>
  <contour>
   <point x="694" y="162" type="curve" smooth="yes" name="15" />
   <point x="694" y="243" type="offcurve" name="14" />
   <point x="652" y="315" type="offcurve" name="14" />
   <point x="574" y="315" type="curve" smooth="yes" name="15" />
   <point x="489" y="315" type="offcurve" name="14" />
   <point x="451" y="245" type="offcurve" name="14" />
   <point x="451" y="161" type="curve" smooth="yes" name="15" />
   <point x="451" y="71" type="offcurve" name="14" />
   <point x="491" y="1" type="offcurve" name="14" />
   <point x="574" y="1" type="curve" smooth="yes" name="15" />
   <point x="654" y="1" type="offcurve" name="14" />
   <point x="694" y="75" type="offcurve" name="14" />
  </contour>
  <contour>
   <point x="636" y="160" type="curve" smooth="yes" name="15" />
   <point x="636" y="105" type="offcurve" name="14" />
   <point x="614" y="51" type="offcurve" name="14" />
   <point x="572" y="51" type="curve" smooth="yes" name="15" />
   <point x="529" y="51" type="offcurve" name="14" />
   <point x="508" y="105" type="offcurve" name="14" />
   <point x="508" y="160" type="curve" smooth="yes" name="15" />
   <point x="508" y="211" type="offcurve" name="14" />
   <point x="530" y="264" type="offcurve" name="14" />
   <point x="572" y="264" type="curve" smooth="yes" name="15" />
   <point x="616" y="264" type="offcurve" name="14" />
   <point x="636" y="208" type="offcurve" name="14" />
  </contour>
 </outline>
</glyph>
<glyph name="ampersand" format="1">
 <advance width="556" />
 <unicode hex="0026" />
 <outline>
  <contour>
   <point x="403" y="329" type="line" smooth="no" name="13" />
   <point x="403" y="274" type="line" smooth="yes" name="15" />
   <point x="403" y="231" type="offcurve" name="14" />
   <point x="399" y="199" type="offcurve" name="14" />
   <point x="390" y="181" type="curve" smooth="no" name="13" />
   <point x="219" y="380" type="line" smooth="yes" name="15" />
   <point x="185" y="420" type="offcurve" name="14" />
   <point x="156" y="455" type="offcurve" name="14" />
   <point x="156" y="501" type="curve" smooth="yes" name="15" />
   <point x="156" y="544" type="offcurve" name="14" />
   <point x="190" y="565" type="offcurve" name="14" />
   <point x="233" y="565" type="curve" smooth="yes" name="15" />
   <point x="257" y="565" type="offcurve" name="14" />
   <point x="298" y="559" type="offcurve" name="14" />
   <point x="339" y="537" type="curve" smooth="no" name="13" />
   <point x="378" y="592" type="line" smooth="no" name="13" />
   <point x="334" y="622" type="offcurve" name="14" />
   <point x="296" y="644" type="offcurve" name="14" />
   <point x="234" y="644" type="curve" smooth="yes" name="15" />
   <point x="144" y="644" type="offcurve" name="14" />
   <point x="72" y="593" type="offcurve" name="14" />
   <point x="72" y="498" type="curve" smooth="yes" name="15" />
   <point x="72" y="446" type="offcurve" name="14" />
   <point x="99" y="403" type="offcurve" name="14" />
   <point x="141" y="357" type="curve" smooth="yes" name="15" />
   <point x="153" y="344" type="line" smooth="no" name="13" />
   <point x="121" y="323" type="offcurve" name="14" />
   <point x="55" y="261" type="offcurve" name="14" />
   <point x="55" y="166" type="curve" smooth="yes" name="15" />
   <point x="55" y="68" type="offcurve" name="14" />
   <point x="131" y="-12" type="offcurve" name="14" />
   <point x="249" y="-12" type="curve" smooth="yes" name="15" />
   <point x="336" y="-12" type="offcurve" name="14" />
   <point x="388" y="31" type="offcurve" name="14" />
   <point x="404" y="48" type="curve" smooth="no" name="13" />
   <point x="448" y="0" type="line" smooth="no" name="13" />
   <point x="551" y="0" type="line" smooth="no" name="13" />
   <point x="451" y="112" type="line" smooth="no" name="13" />
   <point x="476" y="150" type="offcurve" name="14" />
   <point x="493" y="212" type="offcurve" name="14" />
   <point x="493" y="290" type="curve" smooth="yes" name="15" />
   <point x="493" y="329" type="line" smooth="no" name="13" />
  </contour>
  <contour>
   <point x="199" y="291" type="curve" smooth="no" name="13" />
   <point x="348" y="112" type="line" smooth="no" name="13" />
   <point x="334" y="94" type="offcurve" name="14" />
   <point x="298" y="69" type="offcurve" name="14" />
   <point x="254" y="69" type="curve" smooth="yes" name="15" />
   <point x="203" y="69" type="offcurve" name="14" />
   <point x="149" y="102" type="offcurve" name="14" />
   <point x="149" y="182" type="curve" smooth="yes" name="15" />
   <point x="149" y="209" type="offcurve" name="14" />
   <point x="164" y="262" type="offcurve" name="14" />
  </contour>
 </outline>
</glyph>
<glyph name="quotesingle" format="1">
 <advance width="204" />
 <unicode hex="0027" />
 <outline>
  <contour>
   <point x="70" y="468" type="line" smooth="no" name="13" />
   <point x="134" y="502" type="line" smooth="no" name="13" />
   <point x="134" y="645" type="line" smooth="no" name="13" />
   <point x="70" y="611" type="line" smooth="no" name="13" />
  </contour>
 </outline>
</glyph>
<glyph name="parenleft" format="1">
 <advance width="368" />
 <unicode hex="0028" />
 <outline>
  <contour>
   <point x="234" y="645" type="line" smooth="no" name="13" />
   <point x="163" y="571" type="offcurve" name="14" />
   <point x="91" y="413" type="offcurve" name="14" />
   <point x="91" y="256" type="curve" smooth="yes" name="15" />
   <point x="91" y="43" type="offcurve" name="14" />
   <point x="200" y="-108" type="offcurve" name="14" />
   <point x="234" y="-140" type="curve" smooth="no" name="13" />
   <point x="311" y="-140" type="line" smooth="no" name="13" />
   <point x="275" y="-98" type="offcurve" name="14" />
   <point x="177" y="55" type="offcurve" name="14" />
   <point x="177" y="256" type="curve" smooth="yes" name="15" />
   <point x="177" y="421" type="offcurve" name="14" />
   <point x="250" y="562" type="offcurve" name="14" />
   <point x="311" y="645" type="curve" smooth="no" name="13" />
  </contour>
 </outline>
</glyph>
<glyph name="parenright" format="1">
 <advance width="368" />
 <unicode hex="0029" />
 <outline>
  <contour>
   <point x="57" y="645" type="line" smooth="no" name="13" />
   <point x="118" y="562" type="offcurve" name="14" />
   <point x="191" y="421" type="offcurve" name="14" />
   <point x="191" y="256" type="curve" smooth="yes" name="15" />
   <point x="191" y="55" type="offcurve" name="14" />
   <point x="93" y="-98" type="offcurve" name="14" />
   <point x="57" y="-140" type="curve" smooth="no" name="13" />
   <point x="134" y="-140" type="line" smooth="no" name="13" />
   <point x="168" y="-108" type="offcurve" name="14" />
   <point x="277" y="43" type="offcurve" name="14" />
   <point x="277" y="256" type="curve" smooth="yes" name="15" />
   <point x="277" y="413" type="offcurve" name="14" />
   <point x="205" y="571" type="offcurve" name="14" />
   <point x="134" y="645" type="curve" smooth="no" name="13" />
  </contour>
 </outline>
</glyph>
<glyph name="asterisk" format="1">
 <advance width="328" />
 <unicode hex="002a" />
 <outline>
  <contour>
   <point x="152" y="532" type="line" smooth="no" name="13" />
   <point x="73" y="613" type="line" smooth="no" name="13" />
   <point x="25" y="542" type="line" smooth="no" name="13" />
   <point x="134" y="501" type="line" smooth="no" name="13" />
   <point x="31" y="450" type="line" smooth="no" name="13" />
   <point x="85" y="383" type="line" smooth="no" name="13" />
   <point x="156" y="472" type="line" smooth="no" name="13" />
   <point x="173" y="361" type="line" smooth="no" name="13" />
   <point x="252" y="392" type="line" smooth="no" name="13" />
   <point x="189" y="487" type="line" smooth="no" name="13" />
   <point x="303" y="469" type="line" smooth="no" name="13" />
   <point x="296" y="554" type="line" smooth="no" name="13" />
   <point x="186" y="522" type="line" smooth="no" name="13" />
   <point x="239" y="624" type="line" smooth="no" name="13" />
   <point x="157" y="646" type="line" smooth="no" name="13" />
  </contour>
 </outline>
</glyph>
<glyph name="plus" format="1">
 <advance width="518" />
 <unicode hex="002b" />
 <outline>
  <contour>
   <point x="219" y="192" type="line" smooth="no" name="13" />
   <point x="219" y="0" type="line" smooth="no" name="13" />
   <point x="299" y="0" type="line" smooth="no" name="13" />
   <point x="299" y="192" type="line" smooth="no" name="13" />
   <point x="476" y="192" type="line" smooth="no" name="13" />
   <point x="476" y="262" type="line" smooth="no" name="13" />
   <point x="299" y="262" type="line" smooth="no" name="13" />
   <point x="299" y="454" type="line" smooth="no" name="13" />
   <point x="219" y="454" type="line" smooth="no" name="13" />
   <point x="219" y="262" type="line" smooth="no" name="13" />
   <point x="42" y="262" type="line" smooth="no" name="13" />
   <point x="42" y="192" type="line" smooth="no" name="13" />
  </contour>
 </outline>
</glyph>
<glyph name="comma" format="1">
 <advance width="196" />
 <unicode hex="002c" />
 <outline>
  <contour>
   <point x="74" y="-103" type="line" smooth="no" name="13" />
   <point x="131" y="-82" type="offcurve" name="14" />
   <point x="154" y="-28" type="offcurve" name="14" />
   <point x="154" y="13" type="curve" smooth="yes" name="15" />
   <point x="154" y="52" type="offcurve" name="14" />
   <point x="143" y="97" type="offcurve" name="14" />
   <point x="94" y="97" type="curve" smooth="yes" name="15" />
   <point x="64" y="97" type="offcurve" name="14" />
   <point x="42" y="73" type="offcurve" name="14" />
   <point x="42" y="43" type="curve" smooth="yes" name="15" />
   <point x="42" y="16" type="offcurve" name="14" />
   <point x="62" y="-6" type="offcurve" name="14" />
   <point x="84" y="-6" type="curve" smooth="yes" name="15" />
   <point x="86" y="-6" type="offcurve" name="14" />
   <point x="91" y="-5" type="offcurve" name="14" />
   <point x="93" y="-4" type="curve" smooth="no" name="13" />
   <point x="93" y="-5" type="offcurve" name="14" />
   <point x="93" y="-7" type="offcurve" name="14" />
   <point x="93" y="-8" type="curve" smooth="yes" name="15" />
   <point x="93" y="-28" type="offcurve" name="14" />
   <point x="72" y="-53" type="offcurve" name="14" />
   <point x="54" y="-64" type="curve" smooth="no" name="13" />
  </contour>
 </outline>
</glyph>
<glyph name="hyphen" format="1">
 <advance width="290" />
 <unicode hex="002d" />
 <outline>
  <contour>
   <point x="265" y="204" type="line" smooth="no" name="13" />
   <point x="265" y="274" type="line" smooth="no" name="13" />
   <point x="25" y="274" type="line" smooth="no" name="13" />
   <point x="25" y="204" type="line" smooth="no" name="13" />
  </contour>
 </outline>
</glyph>
<glyph name="period" format="1">
 <advance width="286" />
 <unicode hex="002e" />
 <outline>
  <contour>
   <point x="91" y="48" type="curve" smooth="yes" name="15" />
   <point x="91" y="18" type="offcurve" name="14" />
   <point x="109" y="-5" type="offcurve" name="14" />
   <point x="144" y="-5" type="curve" smooth="yes" name="15" />
   <point x="179" y="-5" type="offcurve" name="14" />
   <point x="197" y="17" type="offcurve" name="14" />
   <point x="197" y="48" type="curve" smooth="yes" name="15" />
   <point x="197" y="77" type="offcurve" name="14" />
   <point x="180" y="100" type="offcurve" name="14" />
   <point x="144" y="100" type="curve" smooth="yes" name="15" />
   <point x="110" y="100" type="offcurve" name="14" />
   <point x="92" y="79" type="offcurve" name="14" />
   <point x="91" y="50" type="curve" smooth="yes" name="15" />
   <point x="91" y="49" type="offcurve" name="14" />
   <point x="91" y="48" type="offcurve" name="14" />
  </contour>
 </outline>
</glyph>
<glyph name="slash" format="1">
 <advance width="327" />
 <unicode hex="002f" />
 <outline>
  <contour>
   <point x="365" y="633" type="line" smooth="no" name="13" />
   <point x="290" y="633" type="line" smooth="no" name="13" />
   <point x="-25" y="-30" type="line" smooth="no" name="13" />
   <point x="50" y="-30" type="line" smooth="no" name="13" />
  </contour>
 </outline>
</glyph>
<glyph name="zero" format="1">
 <advance width="565" />
 <unicode hex="0030" />
 <outline>
  <contour>
   <point x="280" y="-12" type="curve" smooth="yes" name="15" />
   <point x="425" y="-12" type="offcurve" name="14" />
   <point x="513" y="125" type="offcurve" name="14" />
   <point x="513" y="315" type="curve" smooth="yes" name="15" />
   <point x="513" y="497" type="offcurve" name="14" />
   <point x="422" y="645" type="offcurve" name="14" />
   <point x="280" y="645" type="curve" smooth="yes" name="15" />
   <point x="137" y="645" type="offcurve" name="14" />
   <point x="48" y="497" type="offcurve" name="14" />
   <point x="48" y="315" type="curve" smooth="yes" name="15" />
   <point x="48" y="125" type="offcurve" name="14" />
   <point x="134" y="-12" type="offcurve" name="14" />
  </contour>
  <contour>
   <point x="280" y="565" type="curve" smooth="yes" name="15" />
   <point x="371" y="565" type="offcurve" name="14" />
   <point x="415" y="469" type="offcurve" name="14" />
   <point x="415" y="321" type="curve" smooth="yes" name="15" />
   <point x="415" y="173" type="offcurve" name="14" />
   <point x="369" y="68" type="offcurve" name="14" />
   <point x="279" y="68" type="curve" smooth="yes" name="15" />
   <point x="192" y="68" type="offcurve" name="14" />
   <point x="146" y="173" type="offcurve" name="14" />
   <point x="146" y="321" type="curve" smooth="yes" name="15" />
   <point x="146" y="469" type="offcurve" name="14" />
   <point x="190" y="565" type="offcurve" name="14" />
  </contour>
 </outline>
</glyph>
<glyph name="one" format="1">
 <advance width="375" />
 <unicode hex="0031" />
 <outline>
  <contour>
   <point x="285" y="633" type="line" smooth="no" name="13" />
   <point x="192" y="633" type="line" smooth="no" name="13" />
   <point x="30" y="532" type="line" smooth="no" name="13" />
   <point x="75" y="463" type="line" smooth="no" name="13" />
   <point x="192" y="531" type="line" smooth="no" name="13" />
   <point x="192" y="0" type="line" smooth="no" name="13" />
   <point x="285" y="0" type="line" smooth="no" name="13" />
  </contour>
 </outline>
</glyph>
<glyph name="two" format="1">
 <advance width="480" />
 <unicode hex="0032" />
 <outline>
  <contour>
   <point x="50" y="0" type="line" smooth="no" name="13" />
   <point x="416" y="0" type="line" smooth="no" name="13" />
   <point x="416" y="77" type="line" smooth="no" name="13" />
   <point x="161" y="77" type="line" smooth="no" name="13" />
   <point x="327" y="267" type="line" smooth="yes" name="15" />
   <point x="380" y="327" type="offcurve" name="14" />
   <point x="430" y="390" type="offcurve" name="14" />
   <point x="430" y="472" type="curve" smooth="yes" name="15" />
   <point x="430" y="585" type="offcurve" name="14" />
   <point x="340" y="646" type="offcurve" name="14" />
   <point x="238" y="646" type="curve" smooth="yes" name="15" />
   <point x="177" y="646" type="offcurve" name="14" />
   <point x="120" y="627" type="offcurve" name="14" />
   <point x="56" y="578" type="curve" smooth="no" name="13" />
   <point x="95" y="522" type="line" smooth="no" name="13" />
   <point x="141" y="552" type="offcurve" name="14" />
   <point x="184" y="566" type="offcurve" name="14" />
   <point x="222" y="566" type="curve" smooth="yes" name="15" />
   <point x="290" y="566" type="offcurve" name="14" />
   <point x="332" y="527" type="offcurve" name="14" />
   <point x="332" y="472" type="curve" smooth="yes" name="15" />
   <point x="332" y="419" type="offcurve" name="14" />
   <point x="316" y="377" type="offcurve" name="14" />
   <point x="209" y="258" type="curve" smooth="yes" name="15" />
   <point x="50" y="81" type="line" smooth="no" name="13" />
  </contour>
 </outline>
</glyph>
<glyph name="three" format="1">
 <advance width="496" />
 <unicode hex="0033" />
 <outline>
  <contour>
   <point x="215" y="298" type="line" smooth="yes" name="15" />
   <point x="295" y="298" type="offcurve" name="14" />
   <point x="347" y="269" type="offcurve" name="14" />
   <point x="347" y="186" type="curve" smooth="yes" name="15" />
   <point x="347" y="109" type="offcurve" name="14" />
   <point x="290" y="70" type="offcurve" name="14" />
   <point x="224" y="70" type="curve" smooth="yes" name="15" />
   <point x="159" y="70" type="offcurve" name="14" />
   <point x="112" y="96" type="offcurve" name="14" />
   <point x="86" y="116" type="curve" smooth="no" name="13" />
   <point x="47" y="61" type="line" smooth="no" name="13" />
   <point x="83" y="31" type="offcurve" name="14" />
   <point x="150" y="-11" type="offcurve" name="14" />
   <point x="233" y="-11" type="curve" smooth="yes" name="15" />
   <point x="332" y="-11" type="offcurve" name="14" />
   <point x="445" y="43" type="offcurve" name="14" />
   <point x="445" y="185" type="curve" smooth="yes" name="15" />
   <point x="445" y="261" type="offcurve" name="14" />
   <point x="406" y="321" type="offcurve" name="14" />
   <point x="321" y="344" type="curve" smooth="no" name="13" />
   <point x="367" y="357" type="offcurve" name="14" />
   <point x="420" y="397" type="offcurve" name="14" />
   <point x="420" y="479" type="curve" smooth="yes" name="15" />
   <point x="420" y="587" type="offcurve" name="14" />
   <point x="329" y="645" type="offcurve" name="14" />
   <point x="232" y="645" type="curve" smooth="yes" name="15" />
   <point x="158" y="645" type="offcurve" name="14" />
   <point x="99" y="616" type="offcurve" name="14" />
   <point x="56" y="576" type="curve" smooth="no" name="13" />
   <point x="92" y="519" type="line" smooth="no" name="13" />
   <point x="131" y="547" type="offcurve" name="14" />
   <point x="176" y="567" type="offcurve" name="14" />
   <point x="219" y="567" type="curve" smooth="yes" name="15" />
   <point x="286" y="567" type="offcurve" name="14" />
   <point x="322" y="529" type="offcurve" name="14" />
   <point x="322" y="472" type="curve" smooth="yes" name="15" />
   <point x="322" y="392" type="offcurve" name="14" />
   <point x="263" y="375" type="offcurve" name="14" />
   <point x="215" y="375" type="curve" smooth="yes" name="15" />
   <point x="125" y="375" type="line" smooth="no" name="13" />
   <point x="125" y="298" type="line" smooth="no" name="13" />
  </contour>
 </outline>
</glyph>
<glyph name="four" format="1">
 <advance width="555" />
 <unicode hex="0034" />
 <outline>
  <contour>
   <point x="35" y="208" type="line" smooth="no" name="13" />
   <point x="35" y="131" type="line" smooth="no" name="13" />
   <point x="316" y="131" type="line" smooth="no" name="13" />
   <point x="316" y="0" type="line" smooth="no" name="13" />
   <point x="408" y="0" type="line" smooth="no" name="13" />
   <point x="408" y="131" type="line" smooth="no" name="13" />
   <point x="520" y="131" type="line" smooth="no" name="13" />
   <point x="520" y="208" type="line" smooth="no" name="13" />
   <point x="408" y="208" type="line" smooth="no" name="13" />
   <point x="408" y="633" type="line" smooth="no" name="13" />
   <point x="313" y="633" type="line" smooth="no" name="13" />
  </contour>
  <contour>
   <point x="122" y="208" type="line" smooth="no" name="13" />
   <point x="316" y="509" type="line" smooth="no" name="13" />
   <point x="316" y="208" type="line" smooth="no" name="13" />
  </contour>
 </outline>
</glyph>
<glyph name="five" format="1">
 <advance width="503" />
 <unicode hex="0035" />
 <outline>
  <contour>
   <point x="409" y="556" type="line" smooth="no" name="13" />
   <point x="409" y="633" type="line" smooth="no" name="13" />
   <point x="82" y="633" type="line" smooth="no" name="13" />
   <point x="82" y="312" type="line" smooth="no" name="13" />
   <point x="126" y="321" type="offcurve" name="14" />
   <point x="177" y="325" type="offcurve" name="14" />
   <point x="210" y="325" type="curve" smooth="yes" name="15" />
   <point x="298" y="325" type="offcurve" name="14" />
   <point x="355" y="286" type="offcurve" name="14" />
   <point x="355" y="201" type="curve" smooth="yes" name="15" />
   <point x="355" y="112" type="offcurve" name="14" />
   <point x="301" y="70" type="offcurve" name="14" />
   <point x="222" y="70" type="curve" smooth="yes" name="15" />
   <point x="176" y="70" type="offcurve" name="14" />
   <point x="132" y="85" type="offcurve" name="14" />
   <point x="87" y="117" type="curve" smooth="no" name="13" />
   <point x="50" y="61" type="line" smooth="no" name="13" />
   <point x="107" y="10" type="offcurve" name="14" />
   <point x="174" y="-12" type="offcurve" name="14" />
   <point x="237" y="-12" type="curve" smooth="yes" name="15" />
   <point x="355" y="-12" type="offcurve" name="14" />
   <point x="452" y="76" type="offcurve" name="14" />
   <point x="452" y="205" type="curve" smooth="yes" name="15" />
   <point x="452" y="336" type="offcurve" name="14" />
   <point x="355" y="399" type="offcurve" name="14" />
   <point x="232" y="399" type="curve" smooth="yes" name="15" />
   <point x="220" y="399" type="offcurve" name="14" />
   <point x="192" y="398" type="offcurve" name="14" />
   <point x="174" y="395" type="curve" smooth="no" name="13" />
   <point x="174" y="556" type="line" smooth="no" name="13" />
  </contour>
 </outline>
</glyph>
<glyph name="six" format="1">
 <advance width="511" />
 <unicode hex="0036" />
 <outline>
  <contour>
   <point x="150" y="365" type="curve" smooth="no" name="13" />
   <point x="155" y="503" type="offcurve" name="14" />
   <point x="218" y="565" type="offcurve" name="14" />
   <point x="289" y="565" type="curve" smooth="yes" name="15" />
   <point x="325" y="565" type="offcurve" name="14" />
   <point x="371" y="555" type="offcurve" name="14" />
   <point x="405" y="536" type="curve" smooth="no" name="13" />
   <point x="438" y="591" type="line" smooth="no" name="13" />
   <point x="408" y="617" type="offcurve" name="14" />
   <point x="351" y="645" type="offcurve" name="14" />
   <point x="285" y="645" type="curve" smooth="yes" name="15" />
   <point x="128" y="645" type="offcurve" name="14" />
   <point x="50" y="504" type="offcurve" name="14" />
   <point x="50" y="292" type="curve" smooth="yes" name="15" />
   <point x="50" y="145" type="offcurve" name="14" />
   <point x="101" y="-12" type="offcurve" name="14" />
   <point x="260" y="-12" type="curve" smooth="yes" name="15" />
   <point x="395" y="-12" type="offcurve" name="14" />
   <point x="461" y="110" type="offcurve" name="14" />
   <point x="461" y="204" type="curve" smooth="yes" name="15" />
   <point x="461" y="363" type="offcurve" name="14" />
   <point x="344" y="413" type="offcurve" name="14" />
   <point x="267" y="413" type="curve" smooth="yes" name="15" />
   <point x="207" y="413" type="offcurve" name="14" />
   <point x="171" y="388" type="offcurve" name="14" />
  </contour>
  <contour>
   <point x="145" y="288" type="curve" smooth="no" name="13" />
   <point x="167" y="316" type="offcurve" name="14" />
   <point x="203" y="339" type="offcurve" name="14" />
   <point x="251" y="339" type="curve" smooth="yes" name="15" />
   <point x="307" y="339" type="offcurve" name="14" />
   <point x="363" y="310" type="offcurve" name="14" />
   <point x="363" y="204" type="curve" smooth="yes" name="15" />
   <point x="363" y="128" type="offcurve" name="14" />
   <point x="324" y="64" type="offcurve" name="14" />
   <point x="259" y="64" type="curve" smooth="yes" name="15" />
   <point x="178" y="64" type="offcurve" name="14" />
   <point x="147" y="165" type="offcurve" name="14" />
  </contour>
 </outline>
</glyph>
<glyph name="seven" format="1">
 <advance width="432" />
 <unicode hex="0037" />
 <outline>
  <contour>
   <point x="301" y="556" type="line" smooth="no" name="13" />
   <point x="60" y="0" type="line" smooth="no" name="13" />
   <point x="158" y="0" type="line" smooth="no" name="13" />
   <point x="396" y="552" type="line" smooth="no" name="13" />
   <point x="396" y="633" type="line" smooth="no" name="13" />
   <point x="42" y="633" type="line" smooth="no" name="13" />
   <point x="42" y="556" type="line" smooth="no" name="13" />
  </contour>
 </outline>
</glyph>
<glyph name="eight" format="1">
 <advance width="524" />
 <unicode hex="0038" />
 <outline>
  <contour>
   <point x="343" y="333" type="curve" smooth="no" name="13" />
   <point x="408" y="355" type="offcurve" name="14" />
   <point x="458" y="405" type="offcurve" name="14" />
   <point x="458" y="471" type="curve" smooth="yes" name="15" />
   <point x="458" y="576" type="offcurve" name="14" />
   <point x="370" y="645" type="offcurve" name="14" />
   <point x="265" y="645" type="curve" smooth="yes" name="15" />
   <point x="153" y="645" type="offcurve" name="14" />
   <point x="73" y="576" type="offcurve" name="14" />
   <point x="73" y="471" type="curve" smooth="yes" name="15" />
   <point x="73" y="398" type="offcurve" name="14" />
   <point x="129" y="353" type="offcurve" name="14" />
   <point x="185" y="334" type="curve" smooth="no" name="13" />
   <point x="126" y="322" type="offcurve" name="14" />
   <point x="50" y="267" type="offcurve" name="14" />
   <point x="50" y="168" type="curve" smooth="yes" name="15" />
   <point x="50" y="59" type="offcurve" name="14" />
   <point x="144" y="-12" type="offcurve" name="14" />
   <point x="262" y="-12" type="curve" smooth="yes" name="15" />
   <point x="380" y="-12" type="offcurve" name="14" />
   <point x="474" y="59" type="offcurve" name="14" />
   <point x="474" y="168" type="curve" smooth="yes" name="15" />
   <point x="474" y="267" type="offcurve" name="14" />
   <point x="407" y="314" type="offcurve" name="14" />
  </contour>
  <contour>
   <point x="264" y="368" type="curve" smooth="no" name="13" />
   <point x="221" y="382" type="offcurve" name="14" />
   <point x="167" y="410" type="offcurve" name="14" />
   <point x="167" y="474" type="curve" smooth="yes" name="15" />
   <point x="167" y="537" type="offcurve" name="14" />
   <point x="205" y="569" type="offcurve" name="14" />
   <point x="267" y="569" type="curve" smooth="yes" name="15" />
   <point x="318" y="569" type="offcurve" name="14" />
   <point x="364" y="537" type="offcurve" name="14" />
   <point x="364" y="474" type="curve" smooth="yes" name="15" />
   <point x="364" y="409" type="offcurve" name="14" />
   <point x="313" y="382" type="offcurve" name="14" />
  </contour>
  <contour>
   <point x="264" y="302" type="curve" smooth="no" name="13" />
   <point x="323" y="296" type="offcurve" name="14" />
   <point x="376" y="245" type="offcurve" name="14" />
   <point x="376" y="171" type="curve" smooth="yes" name="15" />
   <point x="376" y="109" type="offcurve" name="14" />
   <point x="333" y="64" type="offcurve" name="14" />
   <point x="262" y="64" type="curve" smooth="yes" name="15" />
   <point x="190" y="64" type="offcurve" name="14" />
   <point x="148" y="108" type="offcurve" name="14" />
   <point x="148" y="171" type="curve" smooth="yes" name="15" />
   <point x="148" y="244" type="offcurve" name="14" />
   <point x="202" y="297" type="offcurve" name="14" />
  </contour>
 </outline>
</glyph>
<glyph name="nine" format="1">
 <advance width="511" />
 <unicode hex="0039" />
 <outline>
  <contour>
   <point x="371" y="268" type="curve" smooth="no" name="13" />
   <point x="366" y="130" type="offcurve" name="14" />
   <point x="303" y="68" type="offcurve" name="14" />
   <point x="232" y="68" type="curve" smooth="yes" name="15" />
   <point x="196" y="68" type="offcurve" name="14" />
   <point x="150" y="78" type="offcurve" name="14" />
   <point x="116" y="97" type="curve" smooth="no" name="13" />
   <point x="83" y="42" type="line" smooth="no" name="13" />
   <point x="113" y="16" type="offcurve" name="14" />
   <point x="170" y="-12" type="offcurve" name="14" />
   <point x="236" y="-12" type="curve" smooth="yes" name="15" />
   <point x="393" y="-12" type="offcurve" name="14" />
   <point x="471" y="129" type="offcurve" name="14" />
   <point x="471" y="341" type="curve" smooth="yes" name="15" />
   <point x="471" y="488" type="offcurve" name="14" />
   <point x="420" y="645" type="offcurve" name="14" />
   <point x="261" y="645" type="curve" smooth="yes" name="15" />
   <point x="126" y="645" type="offcurve" name="14" />
   <point x="60" y="523" type="offcurve" name="14" />
   <point x="60" y="429" type="curve" smooth="yes" name="15" />
   <point x="60" y="270" type="offcurve" name="14" />
   <point x="177" y="220" type="offcurve" name="14" />
   <point x="254" y="220" type="curve" smooth="yes" name="15" />
   <point x="314" y="220" type="offcurve" name="14" />
   <point x="350" y="245" type="offcurve" name="14" />
  </contour>
  <contour>
   <point x="376" y="345" type="curve" smooth="no" name="13" />
   <point x="354" y="317" type="offcurve" name="14" />
   <point x="318" y="294" type="offcurve" name="14" />
   <point x="270" y="294" type="curve" smooth="yes" name="15" />
   <point x="214" y="294" type="offcurve" name="14" />
   <point x="158" y="323" type="offcurve" name="14" />
   <point x="158" y="429" type="curve" smooth="yes" name="15" />
   <point x="158" y="505" type="offcurve" name="14" />
   <point x="197" y="569" type="offcurve" name="14" />
   <point x="262" y="569" type="curve" smooth="yes" name="15" />
   <point x="343" y="569" type="offcurve" name="14" />
   <point x="374" y="468" type="offcurve" name="14" />
  </contour>
 </outline>
</glyph>
<glyph name="colon" format="1">
 <advance width="246" />
 <unicode hex="003a" />
 <outline>
  <contour>
   <point x="91" y="288" type="curve" smooth="yes" name="15" />
   <point x="91" y="258" type="offcurve" name="14" />
   <point x="109" y="235" type="offcurve" name="14" />
   <point x="144" y="235" type="curve" smooth="yes" name="15" />
   <point x="179" y="235" type="offcurve" name="14" />
   <point x="197" y="257" type="offcurve" name="14" />
   <point x="197" y="288" type="curve" smooth="yes" name="15" />
   <point x="197" y="317" type="offcurve" name="14" />
   <point x="180" y="340" type="offcurve" name="14" />
   <point x="144" y="340" type="curve" smooth="yes" name="15" />
   <point x="110" y="340" type="offcurve" name="14" />
   <point x="92" y="319" type="offcurve" name="14" />
   <point x="91" y="290" type="curve" smooth="yes" name="15" />
   <point x="91" y="289" type="offcurve" name="14" />
   <point x="91" y="288" type="offcurve" name="14" />
  </contour>
  <contour>
   <point x="91" y="48" type="curve" smooth="yes" name="15" />
   <point x="91" y="18" type="offcurve" name="14" />
   <point x="109" y="-5" type="offcurve" name="14" />
   <point x="144" y="-5" type="curve" smooth="yes" name="15" />
   <point x="179" y="-5" type="offcurve" name="14" />
   <point x="197" y="17" type="offcurve" name="14" />
   <point x="197" y="48" type="curve" smooth="yes" name="15" />
   <point x="197" y="77" type="offcurve" name="14" />
   <point x="180" y="100" type="offcurve" name="14" />
   <point x="144" y="100" type="curve" smooth="yes" name="15" />
   <point x="110" y="100" type="offcurve" name="14" />
   <point x="92" y="79" type="offcurve" name="14" />
   <point x="91" y="50" type="curve" smooth="yes" name="15" />
   <point x="91" y="49" type="offcurve" name="14" />
   <point x="91" y="48" type="offcurve" name="14" />
  </contour>
 </outline>
</glyph>
<glyph name="less" format="1">
 <advance width="517" />
 <unicode hex="003c" />
 <outline>
  <contour>
   <point x="475" y="403" type="line" smooth="no" name="13" />
   <point x="475" y="478" type="line" smooth="no" name="13" />
   <point x="42" y="289" type="line" smooth="no" name="13" />
   <point x="42" y="189" type="line" smooth="no" name="13" />
   <point x="475" y="-13" type="line" smooth="no" name="13" />
   <point x="475" y="62" type="line" smooth="no" name="13" />
   <point x="95" y="239" type="line" smooth="no" name="13" />
  </contour>
 </outline>
</glyph>
<glyph name="equal" format="1">
 <advance width="518" />
 <unicode hex="003d" />
 <outline>
  <contour>
   <point x="476" y="262" type="line" smooth="no" name="13" />
   <point x="476" y="332" type="line" smooth="no" name="13" />
   <point x="42" y="332" type="line" smooth="no" name="13" />
   <point x="42" y="262" type="line" smooth="no" name="13" />
  </contour>
  <contour>
   <point x="476" y="122" type="line" smooth="no" name="13" />
   <point x="476" y="192" type="line" smooth="no" name="13" />
   <point x="42" y="192" type="line" smooth="no" name="13" />
   <point x="42" y="122" type="line" smooth="no" name="13" />
  </contour>
 </outline>
</glyph>
<glyph name="greater" format="1">
 <advance width="517" />
 <unicode hex="003e" />
 <outline>
  <contour>
   <point x="422" y="239" type="line" smooth="no" name="13" />
   <point x="42" y="62" type="line" smooth="no" name="13" />
   <point x="42" y="-13" type="line" smooth="no" name="13" />
   <point x="475" y="189" type="line" smooth="no" name="13" />
   <point x="475" y="289" type="line" smooth="no" name="13" />
   <point x="42" y="478" type="line" smooth="no" name="13" />
   <point x="42" y="403" type="line" smooth="no" name="13" />
  </contour>
 </outline>
</glyph>
<glyph name="question" format="1">
 <advance width="403" />
 <unicode hex="003f" />
 <outline>
  <contour>
   <point x="204" y="140" type="line" smooth="no" name="13" />
   <point x="204" y="219" type="line" smooth="yes" name="15" />
   <point x="204" y="273" type="offcurve" name="14" />
   <point x="217" y="283" type="offcurve" name="14" />
   <point x="258" y="316" type="curve" smooth="no" name="13" />
   <point x="262" y="320" type="offcurve" name="14" />
   <point x="267" y="324" type="offcurve" name="14" />
   <point x="273" y="329" type="curve" smooth="yes" name="15" />
   <point x="321" y="369" type="offcurve" name="14" />
   <point x="351" y="429" type="offcurve" name="14" />
   <point x="351" y="491" type="curve" smooth="yes" name="15" />
   <point x="351" y="572" type="offcurve" name="14" />
   <point x="297" y="645" type="offcurve" name="14" />
   <point x="195" y="645" type="curve" smooth="yes" name="15" />
   <point x="136" y="645" type="offcurve" name="14" />
   <point x="89" y="626" type="offcurve" name="14" />
   <point x="42" y="591" type="curve" smooth="no" name="13" />
   <point x="73" y="541" type="line" smooth="no" name="13" />
   <point x="107" y="561" type="offcurve" name="14" />
   <point x="138" y="573" type="offcurve" name="14" />
   <point x="169" y="573" type="curve" smooth="yes" name="15" />
   <point x="222" y="573" type="offcurve" name="14" />
   <point x="265" y="543" type="offcurve" name="14" />
   <point x="265" y="483" type="curve" smooth="yes" name="15" />
   <point x="265" y="437" type="offcurve" name="14" />
   <point x="239" y="395" type="offcurve" name="14" />
   <point x="183" y="350" type="curve" smooth="yes" name="15" />
   <point x="125" y="304" type="offcurve" name="14" />
   <point x="118" y="286" type="offcurve" name="14" />
   <point x="118" y="235" type="curve" smooth="yes" name="15" />
   <point x="118" y="140" type="line" smooth="no" name="13" />
  </contour>
  <contour>
   <point x="109" y="45" type="curve" smooth="yes" name="15" />
   <point x="109" y="10" type="offcurve" name="14" />
   <point x="132" y="-12" type="offcurve" name="14" />
   <point x="161" y="-12" type="curve" smooth="yes" name="15" />
   <point x="195" y="-12" type="offcurve" name="14" />
   <point x="218" y="10" type="offcurve" name="14" />
   <point x="218" y="45" type="curve" smooth="yes" name="15" />
   <point x="218" y="73" type="offcurve" name="14" />
   <point x="195" y="97" type="offcurve" name="14" />
   <point x="161" y="97" type="curve" smooth="yes" name="15" />
   <point x="132" y="97" type="offcurve" name="14" />
   <point x="109" y="73" type="offcurve" name="14" />
  </contour>
 </outline>
</glyph>
<glyph name="at" format="1">
 <advance width="704" />
 <unicode hex="0040" />
 <outline>
  <contour>
   <point x="419" y="-112" type="line" smooth="no" name="13" />
   <point x="393" y="-113" type="line" smooth="yes" name="15" />
   <point x="387" y="-113" type="offcurve" name="14" />
   <point x="380" y="-114" type="offcurve" name="14" />
   <point x="374" y="-114" type="curve" smooth="yes" name="15" />
   <point x="260" y="-114" type="offcurve" name="14" />
   <point x="122" y="-47" type="offcurve" name="14" />
   <point x="122" y="148" type="curve" smooth="yes" name="15" />
   <point x="122" y="314" type="offcurve" name="14" />
   <point x="230" y="404" type="offcurve" name="14" />
   <point x="361" y="404" type="curve" smooth="yes" name="15" />
   <point x="463" y="404" type="offcurve" name="14" />
   <point x="585" y="335" type="offcurve" name="14" />
   <point x="585" y="177" type="curve" smooth="yes" name="15" />
   <point x="585" y="95" type="offcurve" name="14" />
   <point x="561" y="48" type="offcurve" name="14" />
   <point x="522" y="48" type="curve" smooth="yes" name="15" />
   <point x="496" y="48" type="offcurve" name="14" />
   <point x="483" y="64" type="offcurve" name="14" />
   <point x="483" y="111" type="curve" smooth="yes" name="15" />
   <point x="483" y="297" type="line" smooth="no" name="13" />
   <point x="423" y="297" type="line" smooth="no" name="13" />
   <point x="413" y="274" type="line" smooth="no" name="13" />
   <point x="394" y="288" type="offcurve" name="14" />
   <point x="365" y="296" type="offcurve" name="14" />
   <point x="342" y="296" type="curve" smooth="yes" name="15" />
   <point x="270" y="296" type="offcurve" name="14" />
   <point x="200" y="237" type="offcurve" name="14" />
   <point x="200" y="130" type="curve" smooth="yes" name="15" />
   <point x="200" y="54" type="offcurve" name="14" />
   <point x="248" y="-12" type="offcurve" name="14" />
   <point x="325" y="-12" type="curve" smooth="yes" name="15" />
   <point x="376" y="-12" type="offcurve" name="14" />
   <point x="409" y="15" type="offcurve" name="14" />
   <point x="426" y="48" type="curve" smooth="no" name="13" />
   <point x="433" y="13" type="offcurve" name="14" />
   <point x="469" y="-12" type="offcurve" name="14" />
   <point x="514" y="-12" type="curve" smooth="yes" name="15" />
   <point x="626" y="-12" type="offcurve" name="14" />
   <point x="656" y="108" type="offcurve" name="14" />
   <point x="656" y="177" type="curve" smooth="yes" name="15" />
   <point x="656" y="361" type="offcurve" name="14" />
   <point x="512" y="466" type="offcurve" name="14" />
   <point x="361" y="466" type="curve" smooth="yes" name="15" />
   <point x="189" y="466" type="offcurve" name="14" />
   <point x="48" y="345" type="offcurve" name="14" />
   <point x="48" y="145" type="curve" smooth="yes" name="15" />
   <point x="48" y="-74" type="offcurve" name="14" />
   <point x="223" y="-173" type="offcurve" name="14" />
   <point x="380" y="-173" type="curve" smooth="yes" name="15" />
   <point x="385" y="-173" type="offcurve" name="14" />
   <point x="391" y="-173" type="offcurve" name="14" />
   <point x="396" y="-173" type="curve" smooth="yes" name="15" />
   <point x="420" y="-172" type="line" smooth="no" name="13" />
  </contour>
  <contour>
   <point x="406" y="218" type="curve" smooth="no" name="13" />
   <point x="406" y="141" type="line" smooth="yes" name="15" />
   <point x="406" y="77" type="offcurve" name="14" />
   <point x="384" y="51" type="offcurve" name="14" />
   <point x="343" y="51" type="curve" smooth="yes" name="15" />
   <point x="301" y="51" type="offcurve" name="14" />
   <point x="280" y="84" type="offcurve" name="14" />
   <point x="280" y="142" type="curve" smooth="yes" name="15" />
   <point x="280" y="208" type="offcurve" name="14" />
   <point x="309" y="237" type="offcurve" name="14" />
   <point x="347" y="237" type="curve" smooth="yes" name="15" />
   <point x="360" y="237" type="offcurve" name="14" />
   <point x="389" y="233" type="offcurve" name="14" />
  </contour>
 </outline>
</glyph>
<glyph name="B" format="1">
 <advance width="549" />
 <unicode hex="0042" />
 <outline>
  <contour>
   <point x="90" y="1" type="line" smooth="no" name="13" />
   <point x="120" y="-4" type="offcurve" name="14" />
   <point x="216" y="-12" type="offcurve" name="14" />
   <point x="260" y="-12" type="curve" smooth="yes" name="15" />
   <point x="407" y="-12" type="offcurve" name="14" />
   <point x="499" y="58" type="offcurve" name="14" />
   <point x="499" y="170" type="curve" smooth="yes" name="15" />
   <point x="499" y="257" type="offcurve" name="14" />
   <point x="451" y="325" type="offcurve" name="14" />
   <point x="364" y="337" type="curve" smooth="no" name="13" />
   <point x="364" y="338" type="line" smooth="no" name="13" />
   <point x="418" y="346" type="offcurve" name="14" />
   <point x="480" y="394" type="offcurve" name="14" />
   <point x="480" y="470" type="curve" smooth="yes" name="15" />
   <point x="480" y="570" type="offcurve" name="14" />
   <point x="416" y="645" type="offcurve" name="14" />
   <point x="260" y="645" type="curve" smooth="yes" name="15" />
   <point x="207" y="645" type="offcurve" name="14" />
   <point x="123" y="637" type="offcurve" name="14" />
   <point x="90" y="632" type="curve" smooth="no" name="13" />
  </contour>
  <contour>
   <point x="183" y="564" type="line" smooth="no" name="13" />
   <point x="200" y="568" type="offcurve" name="14" />
   <point x="245" y="571" type="offcurve" name="14" />
   <point x="259" y="571" type="curve" smooth="yes" name="15" />
   <point x="354" y="571" type="offcurve" name="14" />
   <point x="386" y="527" type="offcurve" name="14" />
   <point x="386" y="460" type="curve" smooth="yes" name="15" />
   <point x="386" y="404" type="offcurve" name="14" />
   <point x="340" y="373" type="offcurve" name="14" />
   <point x="277" y="373" type="curve" smooth="yes" name="15" />
   <point x="183" y="373" type="line" smooth="no" name="13" />
  </contour>
  <contour>
   <point x="183" y="297" type="line" smooth="no" name="13" />
   <point x="275" y="297" type="line" smooth="yes" name="15" />
   <point x="357" y="297" type="offcurve" name="14" />
   <point x="401" y="249" type="offcurve" name="14" />
   <point x="401" y="171" type="curve" smooth="yes" name="15" />
   <point x="401" y="99" type="offcurve" name="14" />
   <point x="356" y="62" type="offcurve" name="14" />
   <point x="272" y="62" type="curve" smooth="yes" name="15" />
   <point x="251" y="62" type="offcurve" name="14" />
   <point x="213" y="63" type="offcurve" name="14" />
   <point x="183" y="69" type="curve" smooth="no" name="13" />
  </contour>
 </outline>
</glyph>
<glyph name="C" format="1">
 <advance width="568" />
 <unicode hex="0043" />
 <outline>
  <contour>
   <point x="518" y="61" type="curve" smooth="no" name="13" />
   <point x="481" y="117" type="line" smooth="no" name="13" />
   <point x="440" y="89" type="offcurve" name="14" />
   <point x="399" y="70" type="offcurve" name="14" />
   <point x="347" y="70" type="curve" smooth="yes" name="15" />
   <point x="221" y="70" type="offcurve" name="14" />
   <point x="148" y="177" type="offcurve" name="14" />
   <point x="148" y="310" type="curve" smooth="yes" name="15" />
   <point x="148" y="473" type="offcurve" name="14" />
   <point x="227" y="565" type="offcurve" name="14" />
   <point x="338" y="565" type="curve" smooth="yes" name="15" />
   <point x="393" y="565" type="offcurve" name="14" />
   <point x="435" y="545" type="offcurve" name="14" />
   <point x="473" y="520" type="curve" smooth="no" name="13" />
   <point x="510" y="576" type="line" smooth="no" name="13" />
   <point x="445" y="628" type="offcurve" name="14" />
   <point x="391" y="645" type="offcurve" name="14" />
   <point x="320" y="645" type="curve" smooth="yes" name="15" />
   <point x="141" y="645" type="offcurve" name="14" />
   <point x="50" y="466" type="offcurve" name="14" />
   <point x="50" y="310" type="curve" smooth="yes" name="15" />
   <point x="50" y="145" type="offcurve" name="14" />
   <point x="145" y="-12" type="offcurve" name="14" />
   <point x="335" y="-12" type="curve" smooth="yes" name="15" />
   <point x="400" y="-12" type="offcurve" name="14" />
   <point x="464" y="14" type="offcurve" name="14" />
  </contour>
 </outline>
</glyph>
<glyph name="D" format="1">
 <advance width="627" />
 <unicode hex="0044" />
 <outline>
  <contour>
   <point x="90" y="632" type="curve" smooth="no" name="13" />
   <point x="90" y="1" type="line" smooth="no" name="13" />
   <point x="113" y="-3" type="offcurve" name="14" />
   <point x="217" y="-12" type="offcurve" name="14" />
   <point x="255" y="-12" type="curve" smooth="yes" name="15" />
   <point x="464" y="-12" type="offcurve" name="14" />
   <point x="577" y="114" type="offcurve" name="14" />
   <point x="577" y="323" type="curve" smooth="yes" name="15" />
   <point x="577" y="520" type="offcurve" name="14" />
   <point x="457" y="645" type="offcurve" name="14" />
   <point x="249" y="645" type="curve" smooth="yes" name="15" />
   <point x="202" y="645" type="offcurve" name="14" />
   <point x="113" y="636" type="offcurve" name="14" />
  </contour>
  <contour>
   <point x="183" y="69" type="curve" smooth="no" name="13" />
   <point x="183" y="564" type="line" smooth="no" name="13" />
   <point x="203" y="569" type="offcurve" name="14" />
   <point x="239" y="571" type="offcurve" name="14" />
   <point x="252" y="571" type="curve" smooth="yes" name="15" />
   <point x="380" y="571" type="offcurve" name="14" />
   <point x="479" y="485" type="offcurve" name="14" />
   <point x="479" y="319" type="curve" smooth="yes" name="15" />
   <point x="479" y="146" type="offcurve" name="14" />
   <point x="392" y="62" type="offcurve" name="14" />
   <point x="255" y="62" type="curve" smooth="yes" name="15" />
   <point x="239" y="62" type="offcurve" name="14" />
   <point x="201" y="65" type="offcurve" name="14" />
  </contour>
 </outline>
</glyph>
<glyph name="E" format="1">
 <advance width="526" />
 <unicode hex="0045" />
 <outline>
  <contour>
   <point x="82" y="633" type="line" smooth="no" name="13" />
   <point x="82" y="0" type="line" smooth="no" name="13" />
   <point x="481" y="0" type="line" smooth="no" name="13" />
   <point x="481" y="77" type="line" smooth="no" name="13" />
   <point x="175" y="77" type="line" smooth="no" name="13" />
   <point x="175" y="290" type="line" smooth="no" name="13" />
   <point x="421" y="290" type="line" smooth="no" name="13" />
   <point x="421" y="367" type="line" smooth="no" name="13" />
   <point x="175" y="367" type="line" smooth="no" name="13" />
   <point x="175" y="556" type="line" smooth="no" name="13" />
   <point x="468" y="556" type="line" smooth="no" name="13" />
   <point x="468" y="633" type="line" smooth="no" name="13" />
  </contour>
 </outline>
</glyph>
<glyph name="F" format="1">
 <advance width="513" />
 <unicode hex="0046" />
 <outline>
  <contour>
   <point x="82" y="0" type="line" smooth="no" name="13" />
   <point x="175" y="0" type="line" smooth="no" name="13" />
   <point x="175" y="289" type="line" smooth="no" name="13" />
   <point x="421" y="289" type="line" smooth="no" name="13" />
   <point x="421" y="366" type="line" smooth="no" name="13" />
   <point x="175" y="366" type="line" smooth="no" name="13" />
   <point x="175" y="556" type="line" smooth="no" name="13" />
   <point x="468" y="556" type="line" smooth="no" name="13" />
   <point x="468" y="633" type="line" smooth="no" name="13" />
   <point x="82" y="633" type="line" smooth="no" name="13" />
  </contour>
 </outline>
</glyph>
<glyph name="G" format="1">
 <advance width="594" />
 <unicode hex="0047" />
 <outline>
  <contour>
   <point x="536" y="48" type="curve" smooth="no" name="13" />
   <point x="536" y="343" type="line" smooth="no" name="13" />
   <point x="333" y="343" type="line" smooth="no" name="13" />
   <point x="333" y="262" type="line" smooth="no" name="13" />
   <point x="446" y="262" type="line" smooth="no" name="13" />
   <point x="446" y="89" type="line" smooth="no" name="13" />
   <point x="413" y="76" type="offcurve" name="14" />
   <point x="369" y="68" type="offcurve" name="14" />
   <point x="337" y="68" type="curve" smooth="yes" name="15" />
   <point x="218" y="68" type="offcurve" name="14" />
   <point x="148" y="161" type="offcurve" name="14" />
   <point x="148" y="311" type="curve" smooth="yes" name="15" />
   <point x="148" y="480" type="offcurve" name="14" />
   <point x="237" y="565" type="offcurve" name="14" />
   <point x="333" y="565" type="curve" smooth="yes" name="15" />
   <point x="393" y="565" type="offcurve" name="14" />
   <point x="435" y="545" type="offcurve" name="14" />
   <point x="473" y="520" type="curve" smooth="no" name="13" />
   <point x="510" y="576" type="line" smooth="no" name="13" />
   <point x="445" y="628" type="offcurve" name="14" />
   <point x="385" y="645" type="offcurve" name="14" />
   <point x="325" y="645" type="curve" smooth="yes" name="15" />
   <point x="143" y="645" type="offcurve" name="14" />
   <point x="50" y="466" type="offcurve" name="14" />
   <point x="50" y="315" type="curve" smooth="yes" name="15" />
   <point x="50" y="150" type="offcurve" name="14" />
   <point x="135" y="-12" type="offcurve" name="14" />
   <point x="321" y="-12" type="curve" smooth="yes" name="15" />
   <point x="408" y="-12" type="offcurve" name="14" />
   <point x="490" y="21" type="offcurve" name="14" />
  </contour>
 </outline>
</glyph>
<glyph name="H" format="1">
 <advance width="670" />
 <unicode hex="0048" />
 <outline>
  <contour>
   <point x="182" y="0" type="line" smooth="no" name="13" />
   <point x="182" y="290" type="line" smooth="no" name="13" />
   <point x="487" y="290" type="line" smooth="no" name="13" />
   <point x="487" y="0" type="line" smooth="no" name="13" />
   <point x="580" y="0" type="line" smooth="no" name="13" />
   <point x="580" y="633" type="line" smooth="no" name="13" />
   <point x="487" y="633" type="line" smooth="no" name="13" />
   <point x="487" y="367" type="line" smooth="no" name="13" />
   <point x="182" y="367" type="line" smooth="no" name="13" />
   <point x="182" y="633" type="line" smooth="no" name="13" />
   <point x="90" y="633" type="line" smooth="no" name="13" />
   <point x="90" y="0" type="line" smooth="no" name="13" />
  </contour>
 </outline>
</glyph>
<glyph name="I" format="1">
 <advance width="272" />
 <unicode hex="0049" />
 <outline>
  <contour>
   <point x="182" y="633" type="line" smooth="no" name="13" />
   <point x="90" y="633" type="line" smooth="no" name="13" />
   <point x="90" y="0" type="line" smooth="no" name="13" />
   <point x="182" y="0" type="line" smooth="no" name="13" />
  </contour>
 </outline>
</glyph>
<glyph name="J" format="1">
 <advance width="255" />
 <unicode hex="004a" />
 <outline>
  <contour>
   <point x="165" y="633" type="line" smooth="no" name="13" />
   <point x="73" y="633" type="line" smooth="no" name="13" />
   <point x="73" y="-26" type="line" smooth="yes" name="15" />
   <point x="73" y="-84" type="offcurve" name="14" />
   <point x="47" y="-97" type="offcurve" name="14" />
   <point x="20" y="-97" type="curve" smooth="yes" name="15" />
   <point x="1" y="-97" type="offcurve" name="14" />
   <point x="-29" y="-89" type="offcurve" name="14" />
   <point x="-53" y="-75" type="curve" smooth="no" name="13" />
   <point x="-85" y="-125" type="line" smooth="no" name="13" />
   <point x="-56" y="-145" type="offcurve" name="14" />
   <point x="-8" y="-168" type="offcurve" name="14" />
   <point x="42" y="-168" type="curve" smooth="yes" name="15" />
   <point x="132" y="-168" type="offcurve" name="14" />
   <point x="165" y="-109" type="offcurve" name="14" />
   <point x="165" y="-33" type="curve" smooth="yes" name="15" />
  </contour>
 </outline>
</glyph>
<glyph name="K" format="1">
 <advance width="550" />
 <unicode hex="004b" />
 <outline>
  <contour>
   <point x="180" y="308" type="line" smooth="no" name="13" />
   <point x="181" y="308" type="line" smooth="no" name="13" />
   <point x="414" y="0" type="line" smooth="no" name="13" />
   <point x="535" y="0" type="line" smooth="no" name="13" />
   <point x="269" y="335" type="line" smooth="no" name="13" />
   <point x="513" y="633" type="line" smooth="no" name="13" />
   <point x="400" y="633" type="line" smooth="no" name="13" />
   <point x="181" y="360" type="line" smooth="no" name="13" />
   <point x="180" y="360" type="line" smooth="no" name="13" />
   <point x="180" y="633" type="line" smooth="no" name="13" />
   <point x="90" y="633" type="line" smooth="no" name="13" />
   <point x="90" y="0" type="line" smooth="no" name="13" />
   <point x="180" y="0" type="line" smooth="no" name="13" />
  </contour>
 </outline>
</glyph>
<glyph name="L" format="1">
 <advance width="473" />
 <unicode hex="004c" />
 <outline>
  <contour>
   <point x="90" y="0" type="line" smooth="no" name="13" />
   <point x="428" y="0" type="line" smooth="no" name="13" />
   <point x="428" y="77" type="line" smooth="no" name="13" />
   <point x="183" y="77" type="line" smooth="no" name="13" />
   <point x="183" y="633" type="line" smooth="no" name="13" />
   <point x="90" y="633" type="line" smooth="no" name="13" />
  </contour>
 </outline>
</glyph>
<glyph name="M" format="1">
 <advance width="800" />
 <unicode hex="004d" />
 <outline>
  <contour>
   <point x="182" y="521" type="line" smooth="no" name="13" />
   <point x="210" y="409" type="offcurve" name="14" />
   <point x="304" y="139" type="offcurve" name="14" />
   <point x="363" y="0" type="curve" smooth="no" name="13" />
   <point x="437" y="0" type="line" smooth="no" name="13" />
   <point x="488" y="139" type="offcurve" name="14" />
   <point x="581" y="395" type="offcurve" name="14" />
   <point x="617" y="523" type="curve" smooth="no" name="13" />
   <point x="617" y="0" type="line" smooth="no" name="13" />
   <point x="710" y="0" type="line" smooth="no" name="13" />
   <point x="710" y="633" type="line" smooth="no" name="13" />
   <point x="591" y="633" type="line" smooth="no" name="13" />
   <point x="513" y="465" type="offcurve" name="14" />
   <point x="462" y="302" type="offcurve" name="14" />
   <point x="419" y="164" type="curve" smooth="yes" name="15" />
   <point x="412" y="142" type="offcurve" name="14" />
   <point x="406" y="121" type="offcurve" name="14" />
   <point x="399" y="100" type="curve" smooth="no" name="13" />
   <point x="389" y="130" type="offcurve" name="14" />
   <point x="380" y="162" type="offcurve" name="14" />
   <point x="370" y="195" type="curve" smooth="yes" name="15" />
   <point x="330" y="325" type="offcurve" name="14" />
   <point x="285" y="473" type="offcurve" name="14" />
   <point x="208" y="633" type="curve" smooth="no" name="13" />
   <point x="90" y="633" type="line" smooth="no" name="13" />
   <point x="90" y="0" type="line" smooth="no" name="13" />
   <point x="182" y="0" type="line" smooth="no" name="13" />
  </contour>
 </outline>
</glyph>
<glyph name="N" format="1">
 <advance width="675" />
 <unicode hex="004e" />
 <outline>
  <contour>
   <point x="182" y="479" type="line" smooth="no" name="13" />
   <point x="295" y="304" type="offcurve" name="14" />
   <point x="401" y="140" type="offcurve" name="14" />
   <point x="502" y="0" type="curve" smooth="no" name="13" />
   <point x="585" y="0" type="line" smooth="no" name="13" />
   <point x="585" y="633" type="line" smooth="no" name="13" />
   <point x="492" y="633" type="line" smooth="no" name="13" />
   <point x="492" y="143" type="line" smooth="no" name="13" />
   <point x="377" y="332" type="offcurve" name="14" />
   <point x="294" y="454" type="offcurve" name="14" />
   <point x="171" y="633" type="curve" smooth="no" name="13" />
   <point x="90" y="633" type="line" smooth="no" name="13" />
   <point x="90" y="0" type="line" smooth="no" name="13" />
   <point x="182" y="0" type="line" smooth="no" name="13" />
  </contour>
 </outline>
</glyph>
<glyph name="O" format="1">
 <advance width="654" />
 <unicode hex="004f" />
 <outline>
  <contour>
   <point x="327" y="-12" type="curve" smooth="yes" name="15" />
   <point x="512" y="-12" type="offcurve" name="14" />
   <point x="604" y="143" type="offcurve" name="14" />
   <point x="604" y="313" type="curve" smooth="yes" name="15" />
   <point x="604" y="483" type="offcurve" name="14" />
   <point x="512" y="645" type="offcurve" name="14" />
   <point x="327" y="645" type="curve" smooth="yes" name="15" />
   <point x="142" y="645" type="offcurve" name="14" />
   <point x="50" y="483" type="offcurve" name="14" />
   <point x="50" y="313" type="curve" smooth="yes" name="15" />
   <point x="50" y="143" type="offcurve" name="14" />
   <point x="142" y="-12" type="offcurve" name="14" />
  </contour>
  <contour>
   <point x="327" y="68" type="curve" smooth="yes" name="15" />
   <point x="208" y="68" type="offcurve" name="14" />
   <point x="148" y="168" type="offcurve" name="14" />
   <point x="148" y="313" type="curve" smooth="yes" name="15" />
   <point x="148" y="458" type="offcurve" name="14" />
   <point x="208" y="565" type="offcurve" name="14" />
   <point x="327" y="565" type="curve" smooth="yes" name="15" />
   <point x="446" y="565" type="offcurve" name="14" />
   <point x="506" y="458" type="offcurve" name="14" />
   <point x="506" y="313" type="curve" smooth="yes" name="15" />
   <point x="506" y="168" type="offcurve" name="14" />
   <point x="446" y="68" type="offcurve" name="14" />
  </contour>
 </outline>
</glyph>
<glyph name="P" format="1">
 <advance width="532" />
 <unicode hex="0050" />
 <outline>
  <contour>
   <point x="90" y="0" type="line" smooth="no" name="13" />
   <point x="183" y="0" type="line" smooth="no" name="13" />
   <point x="183" y="255" type="line" smooth="no" name="13" />
   <point x="200" y="252" type="offcurve" name="14" />
   <point x="241" y="248" type="offcurve" name="14" />
   <point x="266" y="248" type="curve" smooth="yes" name="15" />
   <point x="389" y="248" type="offcurve" name="14" />
   <point x="482" y="315" type="offcurve" name="14" />
   <point x="482" y="451" type="curve" smooth="yes" name="15" />
   <point x="482" y="554" type="offcurve" name="14" />
   <point x="427" y="645" type="offcurve" name="14" />
   <point x="252" y="645" type="curve" smooth="yes" name="15" />
   <point x="205" y="645" type="offcurve" name="14" />
   <point x="117" y="636" type="offcurve" name="14" />
   <point x="90" y="632" type="curve" smooth="no" name="13" />
  </contour>
  <contour>
   <point x="183" y="564" type="line" smooth="no" name="13" />
   <point x="199" y="568" type="offcurve" name="14" />
   <point x="231" y="571" type="offcurve" name="14" />
   <point x="257" y="571" type="curve" smooth="yes" name="15" />
   <point x="341" y="571" type="offcurve" name="14" />
   <point x="384" y="529" type="offcurve" name="14" />
   <point x="384" y="451" type="curve" smooth="yes" name="15" />
   <point x="384" y="360" type="offcurve" name="14" />
   <point x="342" y="323" type="offcurve" name="14" />
   <point x="266" y="323" type="curve" smooth="yes" name="15" />
   <point x="234" y="323" type="offcurve" name="14" />
   <point x="200" y="327" type="offcurve" name="14" />
   <point x="183" y="330" type="curve" smooth="no" name="13" />
  </contour>
 </outline>
</glyph>
<glyph name="Q" format="1">
 <advance width="654" />
 <unicode hex="0051" />
 <outline>
  <contour>
   <point x="389" y="-5" type="curve" smooth="no" name="13" />
   <point x="483" y="-107" type="line" smooth="no" name="13" />
   <point x="591" y="-107" type="line" smooth="no" name="13" />
   <point x="467" y="24" type="line" smooth="no" name="13" />
   <point x="558" y="79" type="offcurve" name="14" />
   <point x="604" y="192" type="offcurve" name="14" />
   <point x="604" y="312" type="curve" smooth="yes" name="15" />
   <point x="604" y="482" type="offcurve" name="14" />
   <point x="512" y="645" type="offcurve" name="14" />
   <point x="327" y="645" type="curve" smooth="yes" name="15" />
   <point x="146" y="645" type="offcurve" name="14" />
   <point x="50" y="488" type="offcurve" name="14" />
   <point x="50" y="312" type="curve" smooth="yes" name="15" />
   <point x="50" y="142" type="offcurve" name="14" />
   <point x="142" y="-12" type="offcurve" name="14" />
   <point x="327" y="-12" type="curve" smooth="yes" name="15" />
   <point x="349" y="-12" type="offcurve" name="14" />
   <point x="370" y="-9" type="offcurve" name="14" />
  </contour>
  <contour>
   <point x="148" y="312" type="curve" smooth="yes" name="15" />
   <point x="148" y="457" type="offcurve" name="14" />
   <point x="208" y="565" type="offcurve" name="14" />
   <point x="327" y="565" type="curve" smooth="yes" name="15" />
   <point x="446" y="565" type="offcurve" name="14" />
   <point x="506" y="457" type="offcurve" name="14" />
   <point x="506" y="312" type="curve" smooth="yes" name="15" />
   <point x="506" y="167" type="offcurve" name="14" />
   <point x="446" y="68" type="offcurve" name="14" />
   <point x="327" y="68" type="curve" smooth="yes" name="15" />
   <point x="208" y="68" type="offcurve" name="14" />
   <point x="148" y="167" type="offcurve" name="14" />
  </contour>
 </outline>
</glyph>
<glyph name="R" format="1">
 <advance width="529" />
 <unicode hex="0052" />
 <outline>
  <contour>
   <point x="90" y="0" type="line" smooth="no" name="13" />
   <point x="183" y="0" type="line" smooth="no" name="13" />
   <point x="183" y="255" type="line" smooth="no" name="13" />
   <point x="200" y="252" type="offcurve" name="14" />
   <point x="233" y="248" type="offcurve" name="14" />
   <point x="258" y="248" type="curve" smooth="yes" name="15" />
   <point x="271" y="248" type="offcurve" name="14" />
   <point x="283" y="248" type="offcurve" name="14" />
   <point x="296" y="250" type="curve" smooth="no" name="13" />
   <point x="410" y="0" type="line" smooth="no" name="13" />
   <point x="504" y="0" type="line" smooth="no" name="13" />
   <point x="378" y="273" type="line" smooth="no" name="13" />
   <point x="440" y="304" type="offcurve" name="14" />
   <point x="482" y="363" type="offcurve" name="14" />
   <point x="482" y="451" type="curve" smooth="yes" name="15" />
   <point x="482" y="554" type="offcurve" name="14" />
   <point x="427" y="645" type="offcurve" name="14" />
   <point x="252" y="645" type="curve" smooth="yes" name="15" />
   <point x="205" y="645" type="offcurve" name="14" />
   <point x="117" y="636" type="offcurve" name="14" />
   <point x="90" y="632" type="curve" smooth="no" name="13" />
  </contour>
  <contour>
   <point x="183" y="564" type="line" smooth="no" name="13" />
   <point x="199" y="568" type="offcurve" name="14" />
   <point x="231" y="571" type="offcurve" name="14" />
   <point x="257" y="571" type="curve" smooth="yes" name="15" />
   <point x="341" y="571" type="offcurve" name="14" />
   <point x="384" y="529" type="offcurve" name="14" />
   <point x="384" y="451" type="curve" smooth="yes" name="15" />
   <point x="384" y="360" type="offcurve" name="14" />
   <point x="334" y="323" type="offcurve" name="14" />
   <point x="258" y="323" type="curve" smooth="yes" name="15" />
   <point x="226" y="323" type="offcurve" name="14" />
   <point x="200" y="327" type="offcurve" name="14" />
   <point x="183" y="330" type="curve" smooth="no" name="13" />
  </contour>
 </outline>
</glyph>
<glyph name="S" format="1">
 <advance width="529" />
 <unicode hex="0053" />
 <outline>
  <contour>
   <point x="402" y="532" type="curve" smooth="no" name="13" />
   <point x="442" y="589" type="line" smooth="no" name="13" />
   <point x="403" y="616" type="offcurve" name="14" />
   <point x="348" y="645" type="offcurve" name="14" />
   <point x="262" y="645" type="curve" smooth="yes" name="15" />
   <point x="132" y="645" type="offcurve" name="14" />
   <point x="61" y="571" type="offcurve" name="14" />
   <point x="61" y="481" type="curve" smooth="yes" name="15" />
   <point x="61" y="387" type="offcurve" name="14" />
   <point x="136" y="334" type="offcurve" name="14" />
   <point x="266" y="290" type="curve" smooth="yes" name="15" />
   <point x="345" y="263" type="offcurve" name="14" />
   <point x="369" y="220" type="offcurve" name="14" />
   <point x="369" y="175" type="curve" smooth="yes" name="15" />
   <point x="369" y="109" type="offcurve" name="14" />
   <point x="328" y="72" type="offcurve" name="14" />
   <point x="247" y="72" type="curve" smooth="yes" name="15" />
   <point x="192" y="72" type="offcurve" name="14" />
   <point x="137" y="85" type="offcurve" name="14" />
   <point x="91" y="113" type="curve" smooth="no" name="13" />
   <point x="51" y="56" type="line" smooth="no" name="13" />
   <point x="95" y="28" type="offcurve" name="14" />
   <point x="161" y="-12" type="offcurve" name="14" />
   <point x="257" y="-12" type="curve" smooth="yes" name="15" />
   <point x="372" y="-12" type="offcurve" name="14" />
   <point x="465" y="55" type="offcurve" name="14" />
   <point x="465" y="171" type="curve" smooth="yes" name="15" />
   <point x="465" y="272" type="offcurve" name="14" />
   <point x="398" y="332" type="offcurve" name="14" />
   <point x="237" y="392" type="curve" smooth="yes" name="15" />
   <point x="173" y="416" type="offcurve" name="14" />
   <point x="154" y="448" type="offcurve" name="14" />
   <point x="154" y="486" type="curve" smooth="yes" name="15" />
   <point x="154" y="533" type="offcurve" name="14" />
   <point x="199" y="566" type="offcurve" name="14" />
   <point x="265" y="566" type="curve" smooth="yes" name="15" />
   <point x="314" y="566" type="offcurve" name="14" />
   <point x="366" y="550" type="offcurve" name="14" />
  </contour>
 </outline>
</glyph>
<glyph name="T" format="1">
 <advance width="538" />
 <unicode hex="0054" />
 <outline>
  <contour>
   <point x="215" y="556" type="line" smooth="no" name="13" />
   <point x="215" y="0" type="line" smooth="no" name="13" />
   <point x="308" y="0" type="line" smooth="no" name="13" />
   <point x="308" y="556" type="line" smooth="no" name="13" />
   <point x="513" y="556" type="line" smooth="no" name="13" />
   <point x="513" y="633" type="line" smooth="no" name="13" />
   <point x="25" y="633" type="line" smooth="no" name="13" />
   <point x="25" y="556" type="line" smooth="no" name="13" />
  </contour>
 </outline>
</glyph>
<glyph name="V" format="1">
 <advance width="561" />
 <unicode hex="0056" />
 <outline>
  <contour>
   <point x="113" y="633" type="line" smooth="no" name="13" />
   <point x="15" y="633" type="line" smooth="no" name="13" />
   <point x="244" y="0" type="line" smooth="no" name="13" />
   <point x="317" y="0" type="line" smooth="no" name="13" />
   <point x="546" y="633" type="line" smooth="no" name="13" />
   <point x="448" y="633" type="line" smooth="no" name="13" />
   <point x="281" y="142" type="line" smooth="no" name="13" />
  </contour>
 </outline>
</glyph>
<glyph name="W" format="1">
 <advance width="854" />
 <unicode hex="0057" />
 <outline>
  <contour>
   <point x="377" y="633" type="line" smooth="no" name="13" />
   <point x="243" y="142" type="line" smooth="no" name="13" />
   <point x="113" y="633" type="line" smooth="no" name="13" />
   <point x="15" y="633" type="line" smooth="no" name="13" />
   <point x="200" y="0" type="line" smooth="no" name="13" />
   <point x="281" y="0" type="line" smooth="no" name="13" />
   <point x="337" y="170" type="offcurve" name="14" />
   <point x="386" y="344" type="offcurve" name="14" />
   <point x="427" y="499" type="curve" smooth="no" name="13" />
   <point x="468" y="344" type="offcurve" name="14" />
   <point x="517" y="170" type="offcurve" name="14" />
   <point x="573" y="0" type="curve" smooth="no" name="13" />
   <point x="654" y="0" type="line" smooth="no" name="13" />
   <point x="839" y="633" type="line" smooth="no" name="13" />
   <point x="741" y="633" type="line" smooth="no" name="13" />
   <point x="611" y="142" type="line" smooth="no" name="13" />
   <point x="477" y="633" type="line" smooth="no" name="13" />
  </contour>
 </outline>
</glyph>
<glyph name="X" format="1">
 <advance width="585" />
 <unicode hex="0058" />
 <outline>
  <contour>
   <point x="566" y="633" type="line" smooth="no" name="13" />
   <point x="459" y="633" type="line" smooth="no" name="13" />
   <point x="305" y="395" type="line" smooth="no" name="13" />
   <point x="154" y="633" type="line" smooth="no" name="13" />
   <point x="47" y="633" type="line" smooth="no" name="13" />
   <point x="242" y="327" type="line" smooth="no" name="13" />
   <point x="15" y="0" type="line" smooth="no" name="13" />
   <point x="122" y="0" type="line" smooth="no" name="13" />
   <point x="297" y="270" type="line" smooth="no" name="13" />
   <point x="463" y="0" type="line" smooth="no" name="13" />
   <point x="570" y="0" type="line" smooth="no" name="13" />
   <point x="358" y="327" type="line" smooth="no" name="13" />
  </contour>
 </outline>
</glyph>
<glyph name="Y" format="1">
 <advance width="551" />
 <unicode hex="0059" />
 <outline>
  <contour>
   <point x="15" y="633" type="line" smooth="no" name="13" />
   <point x="230" y="249" type="line" smooth="no" name="13" />
   <point x="230" y="0" type="line" smooth="no" name="13" />
   <point x="322" y="0" type="line" smooth="no" name="13" />
   <point x="322" y="249" type="line" smooth="no" name="13" />
   <point x="536" y="633" type="line" smooth="no" name="13" />
   <point x="437" y="633" type="line" smooth="no" name="13" />
   <point x="276" y="325" type="line" smooth="no" name="13" />
   <point x="114" y="633" type="line" smooth="no" name="13" />
  </contour>
 </outline>
</glyph>
<glyph name="bracketleft" format="1">
 <advance width="349" />
 <unicode hex="005b" />
 <outline>
  <contour>
   <point x="292" y="-140" type="line" smooth="no" name="13" />
   <point x="292" y="-70" type="line" smooth="no" name="13" />
   <point x="175" y="-70" type="line" smooth="no" name="13" />
   <point x="175" y="575" type="line" smooth="no" name="13" />
   <point x="292" y="575" type="line" smooth="no" name="13" />
   <point x="292" y="645" type="line" smooth="no" name="13" />
   <point x="91" y="645" type="line" smooth="no" name="13" />
   <point x="91" y="-140" type="line" smooth="no" name="13" />
  </contour>
 </outline>
</glyph>
<glyph name="backslash" format="1">
 <advance width="327" />
 <unicode hex="005c" />
 <outline>
  <contour>
   <point x="277" y="-30" type="line" smooth="no" name="13" />
   <point x="352" y="-30" type="line" smooth="no" name="13" />
   <point x="37" y="633" type="line" smooth="no" name="13" />
   <point x="-38" y="633" type="line" smooth="no" name="13" />
  </contour>
 </outline>
</glyph>
<glyph name="bracketright" format="1">
 <advance width="349" />
 <unicode hex="005d" />
 <outline>
  <contour>
   <point x="57" y="645" type="line" smooth="no" name="13" />
   <point x="57" y="575" type="line" smooth="no" name="13" />
   <point x="174" y="575" type="line" smooth="no" name="13" />
   <point x="174" y="-70" type="line" smooth="no" name="13" />
   <point x="57" y="-70" type="line" smooth="no" name="13" />
   <point x="57" y="-140" type="line" smooth="no" name="13" />
   <point x="258" y="-140" type="line" smooth="no" name="13" />
   <point x="258" y="645" type="line" smooth="no" name="13" />
  </contour>
 </outline>
</glyph>
<glyph name="asciicircum" format="1">
 <advance width="428" />
 <unicode hex="005e" />
 <outline>
  <contour>
   <point x="179" y="609" type="line" smooth="no" name="13" />
   <point x="35" y="313" type="line" smooth="no" name="13" />
   <point x="119" y="313" type="line" smooth="no" name="13" />
   <point x="213" y="517" type="line" smooth="no" name="13" />
   <point x="314" y="313" type="line" smooth="no" name="13" />
   <point x="393" y="313" type="line" smooth="no" name="13" />
   <point x="249" y="609" type="line" smooth="no" name="13" />
  </contour>
 </outline>
</glyph>
<glyph name="underscore" format="1">
 <advance width="404" />
 <unicode hex="005f" />
 <outline>
  <contour>
   <point x="399" y="-100" type="line" smooth="no" name="13" />
   <point x="399" y="-30" type="line" smooth="no" name="13" />
   <point x="5" y="-30" type="line" smooth="no" name="13" />
   <point x="5" y="-100" type="line" smooth="no" name="13" />
  </contour>
 </outline>
</glyph>
<glyph name="grave" format="1">
 <advance width="200" />
 <unicode hex="0060" />
 <outline>
  <contour>
   <point x="118" y="532" type="line" smooth="no" name="13" />
   <point x="175" y="532" type="line" smooth="no" name="13" />
   <point x="115" y="655" type="line" smooth="no" name="13" />
   <point x="25" y="655" type="line" smooth="no" name="13" />
  </contour>
 </outline>
</glyph>
<glyph name="b" format="1">
 <advance width="549" />
 <unicode hex="0062" />
 <outline>
  <contour>
   <point x="145" y="0" type="line" smooth="no" name="13" />
   <point x="155" y="47" type="line" smooth="no" name="13" />
   <point x="164" y="32" type="offcurve" name="14" />
   <point x="210" y="-12" type="offcurve" name="14" />
   <point x="288" y="-12" type="curve" smooth="yes" name="15" />
   <point x="402" y="-12" type="offcurve" name="14" />
   <point x="501" y="75" type="offcurve" name="14" />
   <point x="501" y="236" type="curve" smooth="yes" name="15" />
   <point x="501" y="369" type="offcurve" name="14" />
   <point x="421" y="466" type="offcurve" name="14" />
   <point x="293" y="466" type="curve" smooth="yes" name="15" />
   <point x="222" y="466" type="offcurve" name="14" />
   <point x="182" y="430" type="offcurve" name="14" />
   <point x="164" y="406" type="curve" smooth="no" name="13" />
   <point x="164" y="645" type="line" smooth="no" name="13" />
   <point x="78" y="599" type="line" smooth="no" name="13" />
   <point x="78" y="0" type="line" smooth="no" name="13" />
  </contour>
  <contour>
   <point x="164" y="311" type="line" smooth="no" name="13" />
   <point x="172" y="338" type="offcurve" name="14" />
   <point x="208" y="399" type="offcurve" name="14" />
   <point x="279" y="399" type="curve" smooth="yes" name="15" />
   <point x="357" y="399" type="offcurve" name="14" />
   <point x="409" y="336" type="offcurve" name="14" />
   <point x="409" y="226" type="curve" smooth="yes" name="15" />
   <point x="409" y="113" type="offcurve" name="14" />
   <point x="344" y="54" type="offcurve" name="14" />
   <point x="272" y="54" type="curve" smooth="yes" name="15" />
   <point x="209" y="54" type="offcurve" name="14" />
   <point x="170" y="103" type="offcurve" name="14" />
   <point x="164" y="131" type="curve" smooth="no" name="13" />
  </contour>
 </outline>
</glyph>
<glyph name="c" format="1">
 <advance width="481" />
 <unicode hex="0063" />
 <outline>
  <contour>
   <point x="439" y="46" type="curve" smooth="no" name="13" />
   <point x="412" y="96" type="line" smooth="no" name="13" />
   <point x="382" y="70" type="offcurve" name="14" />
   <point x="343" y="55" type="offcurve" name="14" />
   <point x="297" y="55" type="curve" smooth="yes" name="15" />
   <point x="200" y="55" type="offcurve" name="14" />
   <point x="139" y="130" type="offcurve" name="14" />
   <point x="139" y="222" type="curve" smooth="yes" name="15" />
   <point x="139" y="326" type="offcurve" name="14" />
   <point x="202" y="400" type="offcurve" name="14" />
   <point x="292" y="400" type="curve" smooth="yes" name="15" />
   <point x="337" y="400" type="offcurve" name="14" />
   <point x="377" y="385" type="offcurve" name="14" />
   <point x="408" y="364" type="curve" smooth="no" name="13" />
   <point x="432" y="412" type="line" smooth="no" name="13" />
   <point x="379" y="455" type="offcurve" name="14" />
   <point x="328" y="466" type="offcurve" name="14" />
   <point x="277" y="466" type="curve" smooth="yes" name="15" />
   <point x="146" y="466" type="offcurve" name="14" />
   <point x="48" y="361" type="offcurve" name="14" />
   <point x="48" y="225" type="curve" smooth="yes" name="15" />
   <point x="48" y="84" type="offcurve" name="14" />
   <point x="144" y="-12" type="offcurve" name="14" />
   <point x="283" y="-12" type="curve" smooth="yes" name="15" />
   <point x="342" y="-12" type="offcurve" name="14" />
   <point x="398" y="5" type="offcurve" name="14" />
  </contour>
 </outline>
</glyph>
<glyph name="d" format="1">
 <advance width="549" />
 <unicode hex="0064" />
 <outline>
  <contour>
   <point x="404" y="0" type="line" smooth="no" name="13" />
   <point x="471" y="0" type="line" smooth="no" name="13" />
   <point x="471" y="643" type="line" smooth="no" name="13" />
   <point x="385" y="595" type="line" smooth="no" name="13" />
   <point x="385" y="418" type="line" smooth="no" name="13" />
   <point x="366" y="437" type="offcurve" name="14" />
   <point x="324" y="466" type="offcurve" name="14" />
   <point x="261" y="466" type="curve" smooth="yes" name="15" />
   <point x="147" y="466" type="offcurve" name="14" />
   <point x="48" y="379" type="offcurve" name="14" />
   <point x="48" y="218" type="curve" smooth="yes" name="15" />
   <point x="48" y="85" type="offcurve" name="14" />
   <point x="128" y="-12" type="offcurve" name="14" />
   <point x="256" y="-12" type="curve" smooth="yes" name="15" />
   <point x="327" y="-12" type="offcurve" name="14" />
   <point x="373" y="24" type="offcurve" name="14" />
   <point x="391" y="48" type="curve" smooth="no" name="13" />
  </contour>
  <contour>
   <point x="385" y="143" type="line" smooth="no" name="13" />
   <point x="377" y="116" type="offcurve" name="14" />
   <point x="340" y="55" type="offcurve" name="14" />
   <point x="269" y="55" type="curve" smooth="yes" name="15" />
   <point x="191" y="55" type="offcurve" name="14" />
   <point x="139" y="118" type="offcurve" name="14" />
   <point x="139" y="228" type="curve" smooth="yes" name="15" />
   <point x="139" y="341" type="offcurve" name="14" />
   <point x="204" y="400" type="offcurve" name="14" />
   <point x="276" y="400" type="curve" smooth="yes" name="15" />
   <point x="339" y="400" type="offcurve" name="14" />
   <point x="379" y="351" type="offcurve" name="14" />
   <point x="385" y="323" type="curve" smooth="no" name="13" />
  </contour>
 </outline>
</glyph>
<glyph name="e" format="1">
 <advance width="512" />
 <unicode hex="0065" />
 <outline>
  <contour>
   <point x="464" y="198" type="line" smooth="no" name="13" />
   <point x="464" y="228" type="line" smooth="yes" name="15" />
   <point x="464" y="359" type="offcurve" name="14" />
   <point x="395" y="466" type="offcurve" name="14" />
   <point x="258" y="466" type="curve" smooth="yes" name="15" />
   <point x="131" y="466" type="offcurve" name="14" />
   <point x="48" y="352" type="offcurve" name="14" />
   <point x="48" y="225" type="curve" smooth="yes" name="15" />
   <point x="48" y="71" type="offcurve" name="14" />
   <point x="151" y="-12" type="offcurve" name="14" />
   <point x="283" y="-12" type="curve" smooth="yes" name="15" />
   <point x="336" y="-12" type="offcurve" name="14" />
   <point x="390" y="-3" type="offcurve" name="14" />
   <point x="449" y="44" type="curve" smooth="no" name="13" />
   <point x="423" y="93" type="line" smooth="no" name="13" />
   <point x="379" y="67" type="offcurve" name="14" />
   <point x="334" y="55" type="offcurve" name="14" />
   <point x="297" y="55" type="curve" smooth="yes" name="15" />
   <point x="205" y="55" type="offcurve" name="14" />
   <point x="152" y="118" type="offcurve" name="14" />
   <point x="144" y="198" type="curve" smooth="no" name="13" />
  </contour>
  <contour>
   <point x="141" y="265" type="line" smooth="no" name="13" />
   <point x="147" y="345" type="offcurve" name="14" />
   <point x="193" y="401" type="offcurve" name="14" />
   <point x="261" y="401" type="curve" smooth="yes" name="15" />
   <point x="332" y="401" type="offcurve" name="14" />
   <point x="373" y="350" type="offcurve" name="14" />
   <point x="376" y="265" type="curve" smooth="no" name="13" />
  </contour>
 </outline>
</glyph>
<glyph name="g" format="1">
 <advance width="549" />
 <unicode hex="0067" />
 <outline>
  <contour>
   <point x="385" y="43" type="line" smooth="yes" name="15" />
   <point x="385" y="-68" type="offcurve" name="14" />
   <point x="346" y="-121" type="offcurve" name="14" />
   <point x="255" y="-121" type="curve" smooth="yes" name="15" />
   <point x="217" y="-121" type="offcurve" name="14" />
   <point x="164" y="-110" type="offcurve" name="14" />
   <point x="119" y="-79" type="curve" smooth="no" name="13" />
   <point x="93" y="-125" type="line" smooth="no" name="13" />
   <point x="150" y="-170" type="offcurve" name="14" />
   <point x="212" y="-191" type="offcurve" name="14" />
   <point x="266" y="-191" type="curve" smooth="yes" name="15" />
   <point x="404" y="-191" type="offcurve" name="14" />
   <point x="471" y="-109" type="offcurve" name="14" />
   <point x="471" y="43" type="curve" smooth="yes" name="15" />
   <point x="471" y="454" type="line" smooth="no" name="13" />
   <point x="404" y="454" type="line" smooth="no" name="13" />
   <point x="394" y="407" type="line" smooth="no" name="13" />
   <point x="385" y="422" type="offcurve" name="14" />
   <point x="339" y="466" type="offcurve" name="14" />
   <point x="261" y="466" type="curve" smooth="yes" name="15" />
   <point x="147" y="466" type="offcurve" name="14" />
   <point x="48" y="379" type="offcurve" name="14" />
   <point x="48" y="218" type="curve" smooth="yes" name="15" />
   <point x="48" y="85" type="offcurve" name="14" />
   <point x="128" y="-12" type="offcurve" name="14" />
   <point x="256" y="-12" type="curve" smooth="yes" name="15" />
   <point x="327" y="-12" type="offcurve" name="14" />
   <point x="367" y="24" type="offcurve" name="14" />
   <point x="385" y="48" type="curve" smooth="no" name="13" />
  </contour>
  <contour>
   <point x="385" y="143" type="line" smooth="no" name="13" />
   <point x="377" y="116" type="offcurve" name="14" />
   <point x="340" y="55" type="offcurve" name="14" />
   <point x="269" y="55" type="curve" smooth="yes" name="15" />
   <point x="191" y="55" type="offcurve" name="14" />
   <point x="139" y="118" type="offcurve" name="14" />
   <point x="139" y="228" type="curve" smooth="yes" name="15" />
   <point x="139" y="341" type="offcurve" name="14" />
   <point x="204" y="400" type="offcurve" name="14" />
   <point x="276" y="400" type="curve" smooth="yes" name="15" />
   <point x="339" y="400" type="offcurve" name="14" />
   <point x="379" y="351" type="offcurve" name="14" />
   <point x="385" y="323" type="curve" smooth="no" name="13" />
  </contour>
 </outline>
</glyph>
<glyph name="h" format="1">
 <advance width="545" />
 <unicode hex="0068" />
 <outline>
  <contour>
   <point x="164" y="645" type="line" smooth="no" name="13" />
   <point x="78" y="599" type="line" smooth="no" name="13" />
   <point x="78" y="0" type="line" smooth="no" name="13" />
   <point x="164" y="0" type="line" smooth="no" name="13" />
   <point x="164" y="341" type="line" smooth="no" name="13" />
   <point x="178" y="361" type="offcurve" name="14" />
   <point x="221" y="392" type="offcurve" name="14" />
   <point x="274" y="392" type="curve" smooth="yes" name="15" />
   <point x="346" y="392" type="offcurve" name="14" />
   <point x="386" y="354" type="offcurve" name="14" />
   <point x="386" y="265" type="curve" smooth="yes" name="15" />
   <point x="386" y="0" type="line" smooth="no" name="13" />
   <point x="472" y="0" type="line" smooth="no" name="13" />
   <point x="472" y="270" type="line" smooth="yes" name="15" />
   <point x="472" y="409" type="offcurve" name="14" />
   <point x="410" y="466" type="offcurve" name="14" />
   <point x="305" y="466" type="curve" smooth="yes" name="15" />
   <point x="245" y="466" type="offcurve" name="14" />
   <point x="192" y="435" type="offcurve" name="14" />
   <point x="164" y="404" type="curve" smooth="no" name="13" />
  </contour>
 </outline>
</glyph>
<glyph name="i" format="1">
 <advance width="246" />
 <unicode hex="0069" />
 <outline>
  <contour>
   <point x="166" y="454" type="line" smooth="no" name="13" />
   <point x="80" y="454" type="line" smooth="no" name="13" />
   <point x="80" y="0" type="line" smooth="no" name="13" />
   <point x="166" y="0" type="line" smooth="no" name="13" />
  </contour>
  <contour>
   <point x="73" y="594" type="curve" smooth="yes" name="15" />
   <point x="73" y="564" type="offcurve" name="14" />
   <point x="96" y="542" type="offcurve" name="14" />
   <point x="124" y="542" type="curve" smooth="yes" name="15" />
   <point x="153" y="542" type="offcurve" name="14" />
   <point x="176" y="564" type="offcurve" name="14" />
   <point x="176" y="594" type="curve" smooth="yes" name="15" />
   <point x="176" y="621" type="offcurve" name="14" />
   <point x="153" y="645" type="offcurve" name="14" />
   <point x="124" y="645" type="curve" smooth="yes" name="15" />
   <point x="96" y="645" type="offcurve" name="14" />
   <point x="73" y="621" type="offcurve" name="14" />
  </contour>
 </outline>
</glyph>
<glyph name="j" format="1">
 <advance width="251" />
 <unicode hex="006a" />
 <outline>
  <contour>
   <point x="171" y="454" type="line" smooth="no" name="13" />
   <point x="85" y="454" type="line" smooth="no" name="13" />
   <point x="85" y="-58" type="line" smooth="yes" name="15" />
   <point x="85" y="-112" type="offcurve" name="14" />
   <point x="60" y="-124" type="offcurve" name="14" />
   <point x="35" y="-124" type="curve" smooth="yes" name="15" />
   <point x="17" y="-124" type="offcurve" name="14" />
   <point x="-12" y="-117" type="offcurve" name="14" />
   <point x="-34" y="-104" type="curve" smooth="no" name="13" />
   <point x="-64" y="-150" type="line" smooth="no" name="13" />
   <point x="-37" y="-170" type="offcurve" name="14" />
   <point x="9" y="-191" type="offcurve" name="14" />
   <point x="55" y="-191" type="curve" smooth="yes" name="15" />
   <point x="140" y="-191" type="offcurve" name="14" />
   <point x="171" y="-136" type="offcurve" name="14" />
   <point x="171" y="-64" type="curve" smooth="yes" name="15" />
  </contour>
  <contour>
   <point x="75" y="594" type="curve" smooth="yes" name="15" />
   <point x="75" y="564" type="offcurve" name="14" />
   <point x="98" y="542" type="offcurve" name="14" />
   <point x="126" y="542" type="curve" smooth="yes" name="15" />
   <point x="155" y="542" type="offcurve" name="14" />
   <point x="178" y="564" type="offcurve" name="14" />
   <point x="178" y="594" type="curve" smooth="yes" name="15" />
   <point x="178" y="621" type="offcurve" name="14" />
   <point x="155" y="645" type="offcurve" name="14" />
   <point x="126" y="645" type="curve" smooth="yes" name="15" />
   <point x="98" y="645" type="offcurve" name="14" />
   <point x="75" y="621" type="offcurve" name="14" />
  </contour>
 </outline>
</glyph>
<glyph name="k" format="1">
 <advance width="456" />
 <unicode hex="006b" />
 <outline>
  <contour>
   <point x="435" y="454" type="line" smooth="no" name="13" />
   <point x="317" y="454" type="line" smooth="no" name="13" />
   <point x="164" y="316" type="line" smooth="no" name="13" />
   <point x="164" y="645" type="line" smooth="no" name="13" />
   <point x="78" y="599" type="line" smooth="no" name="13" />
   <point x="78" y="0" type="line" smooth="no" name="13" />
   <point x="164" y="0" type="line" smooth="no" name="13" />
   <point x="164" y="240" type="line" smooth="no" name="13" />
   <point x="340" y="0" type="line" smooth="no" name="13" />
   <point x="441" y="0" type="line" smooth="no" name="13" />
   <point x="229" y="275" type="line" smooth="no" name="13" />
  </contour>
 </outline>
</glyph>
<glyph name="l" format="1">
 <advance width="242" />
 <unicode hex="006c" />
 <outline>
  <contour>
   <point x="164" y="645" type="line" smooth="no" name="13" />
   <point x="78" y="599" type="line" smooth="no" name="13" />
   <point x="78" y="0" type="line" smooth="no" name="13" />
   <point x="164" y="0" type="line" smooth="no" name="13" />
  </contour>
 </outline>
</glyph>
<glyph name="m" format="1">
 <advance width="853" />
 <unicode hex="006d" />
 <outline>
  <contour>
   <point x="158" y="409" type="line" smooth="no" name="13" />
   <point x="150" y="454" type="line" smooth="no" name="13" />
   <point x="78" y="454" type="line" smooth="no" name="13" />
   <point x="78" y="0" type="line" smooth="no" name="13" />
   <point x="164" y="0" type="line" smooth="no" name="13" />
   <point x="164" y="341" type="line" smooth="no" name="13" />
   <point x="178" y="361" type="offcurve" name="14" />
   <point x="221" y="392" type="offcurve" name="14" />
   <point x="270" y="392" type="curve" smooth="yes" name="15" />
   <point x="349" y="392" type="offcurve" name="14" />
   <point x="386" y="355" type="offcurve" name="14" />
   <point x="386" y="260" type="curve" smooth="yes" name="15" />
   <point x="386" y="0" type="line" smooth="no" name="13" />
   <point x="472" y="0" type="line" smooth="no" name="13" />
   <point x="472" y="272" type="line" smooth="yes" name="15" />
   <point x="472" y="296" type="offcurve" name="14" />
   <point x="470" y="318" type="offcurve" name="14" />
   <point x="466" y="337" type="curve" smooth="no" name="13" />
   <point x="495" y="368" type="offcurve" name="14" />
   <point x="534" y="392" type="offcurve" name="14" />
   <point x="579" y="392" type="curve" smooth="yes" name="15" />
   <point x="660" y="392" type="offcurve" name="14" />
   <point x="694" y="355" type="offcurve" name="14" />
   <point x="694" y="253" type="curve" smooth="yes" name="15" />
   <point x="694" y="0" type="line" smooth="no" name="13" />
   <point x="780" y="0" type="line" smooth="no" name="13" />
   <point x="780" y="272" type="line" smooth="yes" name="15" />
   <point x="780" y="409" type="offcurve" name="14" />
   <point x="715" y="466" type="offcurve" name="14" />
   <point x="616" y="466" type="curve" smooth="yes" name="15" />
   <point x="546" y="466" type="offcurve" name="14" />
   <point x="488" y="437" type="offcurve" name="14" />
   <point x="451" y="385" type="curve" smooth="no" name="13" />
   <point x="427" y="443" type="offcurve" name="14" />
   <point x="366" y="466" type="offcurve" name="14" />
   <point x="304" y="466" type="curve" smooth="yes" name="15" />
   <point x="245" y="466" type="offcurve" name="14" />
   <point x="191" y="440" type="offcurve" name="14" />
   <point x="163" y="409" type="curve" smooth="no" name="13" />
  </contour>
 </outline>
</glyph>
<glyph name="n" format="1">
 <advance width="545" />
 <unicode hex="006e" />
 <outline>
  <contour>
   <point x="158" y="409" type="line" smooth="no" name="13" />
   <point x="150" y="454" type="line" smooth="no" name="13" />
   <point x="78" y="454" type="line" smooth="no" name="13" />
   <point x="78" y="0" type="line" smooth="no" name="13" />
   <point x="164" y="0" type="line" smooth="no" name="13" />
   <point x="164" y="341" type="line" smooth="no" name="13" />
   <point x="178" y="361" type="offcurve" name="14" />
   <point x="221" y="392" type="offcurve" name="14" />
   <point x="274" y="392" type="curve" smooth="yes" name="15" />
   <point x="346" y="392" type="offcurve" name="14" />
   <point x="386" y="354" type="offcurve" name="14" />
   <point x="386" y="265" type="curve" smooth="yes" name="15" />
   <point x="386" y="0" type="line" smooth="no" name="13" />
   <point x="472" y="0" type="line" smooth="no" name="13" />
   <point x="472" y="270" type="line" smooth="yes" name="15" />
   <point x="472" y="409" type="offcurve" name="14" />
   <point x="410" y="466" type="offcurve" name="14" />
   <point x="305" y="466" type="curve" smooth="yes" name="15" />
   <point x="245" y="466" type="offcurve" name="14" />
   <point x="191" y="440" type="offcurve" name="14" />
   <point x="163" y="409" type="curve" smooth="no" name="13" />
  </contour>
 </outline>
</glyph>
<glyph name="p" format="1">
 <advance width="549" />
 <unicode hex="0070" />
 <outline>
  <contour>
   <point x="78" y="454" type="line" smooth="no" name="13" />
   <point x="78" y="-179" type="line" smooth="no" name="13" />
   <point x="164" y="-179" type="line" smooth="no" name="13" />
   <point x="164" y="36" type="line" smooth="no" name="13" />
   <point x="182" y="17" type="offcurve" name="14" />
   <point x="225" y="-12" type="offcurve" name="14" />
   <point x="288" y="-12" type="curve" smooth="yes" name="15" />
   <point x="402" y="-12" type="offcurve" name="14" />
   <point x="501" y="75" type="offcurve" name="14" />
   <point x="501" y="236" type="curve" smooth="yes" name="15" />
   <point x="501" y="369" type="offcurve" name="14" />
   <point x="421" y="466" type="offcurve" name="14" />
   <point x="293" y="466" type="curve" smooth="yes" name="15" />
   <point x="222" y="466" type="offcurve" name="14" />
   <point x="174" y="427" type="offcurve" name="14" />
   <point x="155" y="407" type="curve" smooth="no" name="13" />
   <point x="145" y="454" type="line" smooth="no" name="13" />
  </contour>
  <contour>
   <point x="164" y="313" type="line" smooth="no" name="13" />
   <point x="169" y="334" type="offcurve" name="14" />
   <point x="208" y="399" type="offcurve" name="14" />
   <point x="279" y="399" type="curve" smooth="yes" name="15" />
   <point x="357" y="399" type="offcurve" name="14" />
   <point x="409" y="336" type="offcurve" name="14" />
   <point x="409" y="226" type="curve" smooth="yes" name="15" />
   <point x="409" y="113" type="offcurve" name="14" />
   <point x="344" y="54" type="offcurve" name="14" />
   <point x="272" y="54" type="curve" smooth="yes" name="15" />
   <point x="209" y="54" type="offcurve" name="14" />
   <point x="170" y="103" type="offcurve" name="14" />
   <point x="164" y="131" type="curve" smooth="no" name="13" />
  </contour>
 </outline>
</glyph>
<glyph name="r" format="1">
 <advance width="407" />
 <unicode hex="0072" />
 <outline>
  <contour>
   <point x="160" y="409" type="line" smooth="no" name="13" />
   <point x="152" y="454" type="line" smooth="no" name="13" />
   <point x="78" y="454" type="line" smooth="no" name="13" />
   <point x="78" y="0" type="line" smooth="no" name="13" />
   <point x="164" y="0" type="line" smooth="no" name="13" />
   <point x="164" y="341" type="line" smooth="no" name="13" />
   <point x="184" y="371" type="offcurve" name="14" />
   <point x="217" y="392" type="offcurve" name="14" />
   <point x="248" y="392" type="curve" smooth="yes" name="15" />
   <point x="277" y="392" type="offcurve" name="14" />
   <point x="300" y="379" type="offcurve" name="14" />
   <point x="320" y="359" type="curve" smooth="no" name="13" />
   <point x="392" y="404" type="line" smooth="no" name="13" />
   <point x="366" y="446" type="offcurve" name="14" />
   <point x="323" y="466" type="offcurve" name="14" />
   <point x="274" y="466" type="curve" smooth="yes" name="15" />
   <point x="232" y="466" type="offcurve" name="14" />
   <point x="193" y="444" type="offcurve" name="14" />
   <point x="164" y="409" type="curve" smooth="no" name="13" />
  </contour>
 </outline>
</glyph>
<glyph name="s" format="1">
 <advance width="426" />
 <unicode hex="0073" />
 <outline>
  <contour>
   <point x="325" y="372" type="curve" smooth="no" name="13" />
   <point x="355" y="419" type="line" smooth="no" name="13" />
   <point x="323" y="443" type="offcurve" name="14" />
   <point x="269" y="466" type="offcurve" name="14" />
   <point x="208" y="466" type="curve" smooth="yes" name="15" />
   <point x="113" y="466" type="offcurve" name="14" />
   <point x="55" y="408" type="offcurve" name="14" />
   <point x="55" y="341" type="curve" smooth="yes" name="15" />
   <point x="55" y="260" type="offcurve" name="14" />
   <point x="123" y="219" type="offcurve" name="14" />
   <point x="201" y="200" type="curve" smooth="yes" name="15" />
   <point x="278" y="181" type="offcurve" name="14" />
   <point x="295" y="163" type="offcurve" name="14" />
   <point x="295" y="125" type="curve" smooth="yes" name="15" />
   <point x="295" y="85" type="offcurve" name="14" />
   <point x="266" y="55" type="offcurve" name="14" />
   <point x="203" y="55" type="curve" smooth="yes" name="15" />
   <point x="176" y="55" type="offcurve" name="14" />
   <point x="115" y="67" type="offcurve" name="14" />
   <point x="78" y="90" type="curve" smooth="no" name="13" />
   <point x="48" y="42" type="line" smooth="no" name="13" />
   <point x="82" y="16" type="offcurve" name="14" />
   <point x="139" y="-12" type="offcurve" name="14" />
   <point x="216" y="-12" type="curve" smooth="yes" name="15" />
   <point x="305" y="-12" type="offcurve" name="14" />
   <point x="378" y="36" type="offcurve" name="14" />
   <point x="378" y="123" type="curve" smooth="yes" name="15" />
   <point x="378" y="224" type="offcurve" name="14" />
   <point x="304" y="248" type="offcurve" name="14" />
   <point x="230" y="269" type="curve" smooth="yes" name="15" />
   <point x="162" y="288" type="offcurve" name="14" />
   <point x="142" y="305" type="offcurve" name="14" />
   <point x="142" y="343" type="curve" smooth="yes" name="15" />
   <point x="142" y="374" type="offcurve" name="14" />
   <point x="167" y="400" type="offcurve" name="14" />
   <point x="215" y="400" type="curve" smooth="yes" name="15" />
   <point x="256" y="400" type="offcurve" name="14" />
   <point x="298" y="387" type="offcurve" name="14" />
  </contour>
 </outline>
</glyph>
<glyph name="t" format="1">
 <advance width="386" />
 <unicode hex="0074" />
 <outline>
  <contour>
   <point x="196" y="384" type="line" smooth="no" name="13" />
   <point x="332" y="384" type="line" smooth="no" name="13" />
   <point x="332" y="454" type="line" smooth="no" name="13" />
   <point x="196" y="454" type="line" smooth="no" name="13" />
   <point x="196" y="592" type="line" smooth="no" name="13" />
   <point x="110" y="547" type="line" smooth="no" name="13" />
   <point x="110" y="454" type="line" smooth="no" name="13" />
   <point x="42" y="454" type="line" smooth="no" name="13" />
   <point x="42" y="384" type="line" smooth="no" name="13" />
   <point x="109" y="384" type="line" smooth="no" name="13" />
   <point x="109" y="114" type="line" smooth="yes" name="15" />
   <point x="109" y="42" type="offcurve" name="14" />
   <point x="140" y="-13" type="offcurve" name="14" />
   <point x="225" y="-13" type="curve" smooth="yes" name="15" />
   <point x="271" y="-13" type="offcurve" name="14" />
   <point x="317" y="8" type="offcurve" name="14" />
   <point x="344" y="28" type="curve" smooth="no" name="13" />
   <point x="314" y="74" type="line" smooth="no" name="13" />
   <point x="292" y="61" type="offcurve" name="14" />
   <point x="263" y="54" type="offcurve" name="14" />
   <point x="245" y="54" type="curve" smooth="yes" name="15" />
   <point x="220" y="54" type="offcurve" name="14" />
   <point x="195" y="66" type="offcurve" name="14" />
   <point x="195" y="120" type="curve" smooth="yes" name="15" />
  </contour>
 </outline>
</glyph>
<glyph name="u" format="1">
 <advance width="534" />
 <unicode hex="0075" />
 <outline>
  <contour>
   <point x="370" y="454" type="line" smooth="no" name="13" />
   <point x="370" y="113" type="line" smooth="no" name="13" />
   <point x="356" y="93" type="offcurve" name="14" />
   <point x="313" y="62" type="offcurve" name="14" />
   <point x="264" y="62" type="curve" smooth="yes" name="15" />
   <point x="202" y="62" type="offcurve" name="14" />
   <point x="164" y="99" type="offcurve" name="14" />
   <point x="164" y="201" type="curve" smooth="yes" name="15" />
   <point x="164" y="454" type="line" smooth="no" name="13" />
   <point x="78" y="454" type="line" smooth="no" name="13" />
   <point x="78" y="182" type="line" smooth="yes" name="15" />
   <point x="78" y="45" type="offcurve" name="14" />
   <point x="141" y="-12" type="offcurve" name="14" />
   <point x="237" y="-12" type="curve" smooth="yes" name="15" />
   <point x="292" y="-12" type="offcurve" name="14" />
   <point x="350" y="19" type="offcurve" name="14" />
   <point x="377" y="52" type="curve" smooth="no" name="13" />
   <point x="383" y="52" type="line" smooth="no" name="13" />
   <point x="390" y="0" type="line" smooth="no" name="13" />
   <point x="456" y="0" type="line" smooth="no" name="13" />
   <point x="456" y="454" type="line" smooth="no" name="13" />
  </contour>
 </outline>
</glyph>
<glyph name="v" format="1">
 <advance width="457" />
 <unicode hex="0076" />
 <outline>
  <contour>
   <point x="266" y="0" type="line" smooth="no" name="13" />
   <point x="442" y="454" type="line" smooth="no" name="13" />
   <point x="350" y="454" type="line" smooth="no" name="13" />
   <point x="227" y="104" type="line" smooth="no" name="13" />
   <point x="105" y="454" type="line" smooth="no" name="13" />
   <point x="15" y="454" type="line" smooth="no" name="13" />
   <point x="188" y="0" type="line" smooth="no" name="13" />
  </contour>
 </outline>
</glyph>
<glyph name="w" format="1">
 <advance width="700" />
 <unicode hex="0077" />
 <outline>
  <contour>
   <point x="252" y="0" type="line" smooth="no" name="13" />
   <point x="350" y="345" type="line" smooth="no" name="13" />
   <point x="445" y="0" type="line" smooth="no" name="13" />
   <point x="530" y="0" type="line" smooth="no" name="13" />
   <point x="685" y="454" type="line" smooth="no" name="13" />
   <point x="594" y="454" type="line" smooth="no" name="13" />
   <point x="489" y="103" type="line" smooth="no" name="13" />
   <point x="398" y="454" type="line" smooth="no" name="13" />
   <point x="304" y="454" type="line" smooth="no" name="13" />
   <point x="209" y="103" type="line" smooth="no" name="13" />
   <point x="105" y="454" type="line" smooth="no" name="13" />
   <point x="15" y="454" type="line" smooth="no" name="13" />
   <point x="167" y="0" type="line" smooth="no" name="13" />
  </contour>
 </outline>
</glyph>
<glyph name="x" format="1">
 <advance width="445" />
 <unicode hex="0078" />
 <outline>
  <contour>
   <point x="428" y="454" type="line" smooth="no" name="13" />
   <point x="333" y="454" type="line" smooth="no" name="13" />
   <point x="226" y="297" type="line" smooth="no" name="13" />
   <point x="131" y="454" type="line" smooth="no" name="13" />
   <point x="36" y="454" type="line" smooth="no" name="13" />
   <point x="179" y="231" type="line" smooth="no" name="13" />
   <point x="10" y="0" type="line" smooth="no" name="13" />
   <point x="105" y="0" type="line" smooth="no" name="13" />
   <point x="224" y="172" type="line" smooth="no" name="13" />
   <point x="338" y="0" type="line" smooth="no" name="13" />
   <point x="433" y="0" type="line" smooth="no" name="13" />
   <point x="274" y="234" type="line" smooth="no" name="13" />
  </contour>
 </outline>
</glyph>
<glyph name="y" format="1">
 <advance width="471" />
 <unicode hex="0079" />
 <outline>
  <contour>
   <point x="456" y="454" type="line" smooth="no" name="13" />
   <point x="366" y="454" type="line" smooth="no" name="13" />
   <point x="233" y="94" type="line" smooth="no" name="13" />
   <point x="104" y="454" type="line" smooth="no" name="13" />
   <point x="15" y="454" type="line" smooth="no" name="13" />
   <point x="185" y="0" type="line" smooth="no" name="13" />
   <point x="203" y="0" type="line" smooth="no" name="13" />
   <point x="180" y="-58" type="line" smooth="yes" name="15" />
   <point x="159" y="-110" type="offcurve" name="14" />
   <point x="132" y="-124" type="offcurve" name="14" />
   <point x="107" y="-124" type="curve" smooth="yes" name="15" />
   <point x="90" y="-124" type="offcurve" name="14" />
   <point x="70" y="-117" type="offcurve" name="14" />
   <point x="48" y="-104" type="curve" smooth="no" name="13" />
   <point x="22" y="-148" type="line" smooth="no" name="13" />
   <point x="49" y="-168" type="offcurve" name="14" />
   <point x="88" y="-191" type="offcurve" name="14" />
   <point x="134" y="-191" type="curve" smooth="yes" name="15" />
   <point x="189" y="-191" type="offcurve" name="14" />
   <point x="227" y="-157" type="offcurve" name="14" />
   <point x="261" y="-68" type="curve" smooth="yes" name="15" />
  </contour>
 </outline>
</glyph>
<glyph name="z" format="1">
 <advance width="421" />
 <unicode hex="007a" />
 <outline>
  <contour>
   <point x="396" y="0" type="line" smooth="no" name="13" />
   <point x="396" y="70" type="line" smooth="no" name="13" />
   <point x="128" y="70" type="line" smooth="no" name="13" />
   <point x="390" y="381" type="line" smooth="no" name="13" />
   <point x="390" y="454" type="line" smooth="no" name="13" />
   <point x="41" y="454" type="line" smooth="no" name="13" />
   <point x="41" y="384" type="line" smooth="no" name="13" />
   <point x="287" y="384" type="line" smooth="no" name="13" />
   <point x="25" y="73" type="line" smooth="no" name="13" />
   <point x="25" y="0" type="line" smooth="no" name="13" />
  </contour>
 </outline>
</glyph>
<glyph name="braceleft" format="1">
 <advance width="390" />
 <unicode hex="007b" />
 <outline>
  <contour>
   <point x="48" y="219" type="line" smooth="no" name="13" />
   <point x="101" y="219" type="offcurve" name="14" />
   <point x="152" y="178" type="offcurve" name="14" />
   <point x="152" y="84" type="curve" smooth="yes" name="15" />
   <point x="152" y="31" type="line" smooth="yes" name="15" />
   <point x="152" y="-87" type="offcurve" name="14" />
   <point x="179" y="-139" type="offcurve" name="14" />
   <point x="303" y="-139" type="curve" smooth="yes" name="15" />
   <point x="333" y="-139" type="line" smooth="no" name="13" />
   <point x="333" y="-69" type="line" smooth="no" name="13" />
   <point x="303" y="-69" type="line" smooth="yes" name="15" />
   <point x="252" y="-69" type="offcurve" name="14" />
   <point x="236" y="-58" type="offcurve" name="14" />
   <point x="236" y="31" type="curve" smooth="yes" name="15" />
   <point x="236" y="84" type="line" smooth="yes" name="15" />
   <point x="236" y="203" type="offcurve" name="14" />
   <point x="185" y="234" type="offcurve" name="14" />
   <point x="143" y="253" type="curve" smooth="no" name="13" />
   <point x="185" y="273" type="offcurve" name="14" />
   <point x="236" y="306" type="offcurve" name="14" />
   <point x="236" y="423" type="curve" smooth="yes" name="15" />
   <point x="236" y="474" type="line" smooth="yes" name="15" />
   <point x="236" y="563" type="offcurve" name="14" />
   <point x="252" y="574" type="offcurve" name="14" />
   <point x="303" y="574" type="curve" smooth="yes" name="15" />
   <point x="333" y="574" type="line" smooth="no" name="13" />
   <point x="333" y="644" type="line" smooth="no" name="13" />
   <point x="303" y="644" type="line" smooth="yes" name="15" />
   <point x="179" y="644" type="offcurve" name="14" />
   <point x="152" y="592" type="offcurve" name="14" />
   <point x="152" y="474" type="curve" smooth="yes" name="15" />
   <point x="152" y="423" type="line" smooth="yes" name="15" />
   <point x="152" y="329" type="offcurve" name="14" />
   <point x="101" y="288" type="offcurve" name="14" />
   <point x="48" y="288" type="curve" smooth="no" name="13" />
  </contour>
 </outline>
</glyph>
<glyph name="bar" format="1">
 <advance width="260" />
 <unicode hex="007c" />
 <outline>
  <contour>
   <point x="170" y="662" type="line" smooth="no" name="13" />
   <point x="90" y="662" type="line" smooth="no" name="13" />
   <point x="90" y="-179" type="line" smooth="no" name="13" />
   <point x="170" y="-179" type="line" smooth="no" name="13" />
  </contour>
 </outline>
</glyph>
<glyph name="braceright" format="1">
 <advance width="390" />
 <unicode hex="007d" />
 <outline>
  <contour>
   <point x="342" y="288" type="line" smooth="no" name="13" />
   <point x="289" y="288" type="offcurve" name="14" />
   <point x="238" y="329" type="offcurve" name="14" />
   <point x="238" y="423" type="curve" smooth="yes" name="15" />
   <point x="238" y="474" type="line" smooth="yes" name="15" />
   <point x="238" y="592" type="offcurve" name="14" />
   <point x="211" y="644" type="offcurve" name="14" />
   <point x="87" y="644" type="curve" smooth="yes" name="15" />
   <point x="57" y="644" type="line" smooth="no" name="13" />
   <point x="57" y="574" type="line" smooth="no" name="13" />
   <point x="87" y="574" type="line" smooth="yes" name="15" />
   <point x="138" y="574" type="offcurve" name="14" />
   <point x="154" y="563" type="offcurve" name="14" />
   <point x="154" y="474" type="curve" smooth="yes" name="15" />
   <point x="154" y="423" type="line" smooth="yes" name="15" />
   <point x="154" y="306" type="offcurve" name="14" />
   <point x="205" y="273" type="offcurve" name="14" />
   <point x="247" y="253" type="curve" smooth="no" name="13" />
   <point x="205" y="234" type="offcurve" name="14" />
   <point x="154" y="203" type="offcurve" name="14" />
   <point x="154" y="84" type="curve" smooth="yes" name="15" />
   <point x="154" y="31" type="line" smooth="yes" name="15" />
   <point x="154" y="-58" type="offcurve" name="14" />
   <point x="138" y="-69" type="offcurve" name="14" />
   <point x="87" y="-69" type="curve" smooth="yes" name="15" />
   <point x="57" y="-69" type="line" smooth="no" name="13" />
   <point x="57" y="-139" type="line" smooth="no" name="13" />
   <point x="87" y="-139" type="line" smooth="yes" name="15" />
   <point x="211" y="-139" type="offcurve" name="14" />
   <point x="238" y="-87" type="offcurve" name="14" />
   <point x="238" y="31" type="curve" smooth="yes" name="15" />
   <point x="238" y="84" type="line" smooth="yes" name="15" />
   <point x="238" y="178" type="offcurve" name="14" />
   <point x="289" y="219" type="offcurve" name="14" />
   <point x="342" y="219" type="curve" smooth="no" name="13" />
  </contour>
 </outline>
</glyph>
<glyph name="asciitilde" format="1">
 <advance width="495" />
 <unicode hex="007e" />
 <outline>
  <contour>
   <point x="453" y="275" type="curve" smooth="no" name="13" />
   <point x="409" y="303" type="line" smooth="no" name="13" />
   <point x="395" y="267" type="offcurve" name="14" />
   <point x="379" y="249" type="offcurve" name="14" />
   <point x="347" y="249" type="curve" smooth="yes" name="15" />
   <point x="323" y="249" type="offcurve" name="14" />
   <point x="305" y="257" type="offcurve" name="14" />
   <point x="265" y="275" type="curve" smooth="yes" name="15" />
   <point x="222" y="294" type="offcurve" name="14" />
   <point x="184" y="310" type="offcurve" name="14" />
   <point x="149" y="310" type="curve" smooth="yes" name="15" />
   <point x="97" y="310" type="offcurve" name="14" />
   <point x="61" y="276" type="offcurve" name="14" />
   <point x="42" y="215" type="curve" smooth="no" name="13" />
   <point x="81" y="188" type="line" smooth="no" name="13" />
   <point x="93" y="210" type="offcurve" name="14" />
   <point x="115" y="243" type="offcurve" name="14" />
   <point x="151" y="243" type="curve" smooth="yes" name="15" />
   <point x="179" y="243" type="offcurve" name="14" />
   <point x="192" y="237" type="offcurve" name="14" />
   <point x="221" y="225" type="curve" smooth="yes" name="15" />
   <point x="229" y="221" type="offcurve" name="14" />
   <point x="239" y="216" type="offcurve" name="14" />
   <point x="252" y="211" type="curve" smooth="yes" name="15" />
   <point x="291" y="195" type="offcurve" name="14" />
   <point x="327" y="182" type="offcurve" name="14" />
   <point x="356" y="182" type="curve" smooth="yes" name="15" />
   <point x="395" y="182" type="offcurve" name="14" />
   <point x="435" y="207" type="offcurve" name="14" />
  </contour>
 </outline>
</glyph>
<glyph name="exclamdown" format="1">
 <advance width="238" />
 <unicode hex="00a1" />
 <outline>
  <contour>
   <point x="74" y="296" type="line" smooth="no" name="13" />
   <point x="74" y="-178" type="line" smooth="no" name="13" />
   <point x="160" y="-178" type="line" smooth="no" name="13" />
   <point x="160" y="296" type="line" smooth="no" name="13" />
  </contour>
  <contour>
   <point x="67" y="416" type="curve" smooth="yes" name="15" />
   <point x="67" y="415" type="offcurve" name="14" />
   <point x="67" y="414" type="offcurve" name="14" />
   <point x="67" y="413" type="curve" smooth="yes" name="15" />
   <point x="68" y="384" type="offcurve" name="14" />
   <point x="86" y="363" type="offcurve" name="14" />
   <point x="120" y="363" type="curve" smooth="yes" name="15" />
   <point x="156" y="363" type="offcurve" name="14" />
   <point x="173" y="386" type="offcurve" name="14" />
   <point x="173" y="415" type="curve" smooth="yes" name="15" />
   <point x="173" y="446" type="offcurve" name="14" />
   <point x="155" y="468" type="offcurve" name="14" />
   <point x="120" y="468" type="curve" smooth="yes" name="15" />
   <point x="85" y="468" type="offcurve" name="14" />
   <point x="67" y="446" type="offcurve" name="14" />
  </contour>
 </outline>
</glyph>
<glyph name="cent" format="1">
 <advance width="481" />
 <unicode hex="00a2" />
 <outline>
  <contour>
   <point x="296" y="-12" type="line" smooth="no" name="13" />
   <point x="350" y="-9" type="offcurve" name="14" />
   <point x="401" y="8" type="offcurve" name="14" />
   <point x="439" y="46" type="curve" smooth="no" name="13" />
   <point x="412" y="96" type="line" smooth="no" name="13" />
   <point x="382" y="70" type="offcurve" name="14" />
   <point x="343" y="55" type="offcurve" name="14" />
   <point x="297" y="55" type="curve" smooth="yes" name="15" />
   <point x="296" y="55" type="line" smooth="no" name="13" />
   <point x="296" y="400" type="line" smooth="no" name="13" />
   <point x="339" y="399" type="offcurve" name="14" />
   <point x="378" y="384" type="offcurve" name="14" />
   <point x="408" y="364" type="curve" smooth="no" name="13" />
   <point x="432" y="412" type="line" smooth="no" name="13" />
   <point x="385" y="449" type="offcurve" name="14" />
   <point x="340" y="463" type="offcurve" name="14" />
   <point x="296" y="465" type="curve" smooth="no" name="13" />
   <point x="296" y="512" type="line" smooth="no" name="13" />
   <point x="256" y="512" type="line" smooth="no" name="13" />
   <point x="256" y="465" type="line" smooth="no" name="13" />
   <point x="135" y="454" type="offcurve" name="14" />
   <point x="48" y="353" type="offcurve" name="14" />
   <point x="48" y="225" type="curve" smooth="yes" name="15" />
   <point x="48" y="93" type="offcurve" name="14" />
   <point x="131" y="0" type="offcurve" name="14" />
   <point x="256" y="-11" type="curve" smooth="no" name="13" />
   <point x="256" y="-52" type="line" smooth="no" name="13" />
   <point x="296" y="-52" type="line" smooth="no" name="13" />
  </contour>
  <contour>
   <point x="256" y="395" type="curve" smooth="no" name="13" />
   <point x="256" y="60" type="line" smooth="no" name="13" />
   <point x="183" y="78" type="offcurve" name="14" />
   <point x="139" y="144" type="offcurve" name="14" />
   <point x="139" y="222" type="curve" smooth="yes" name="15" />
   <point x="139" y="311" type="offcurve" name="14" />
   <point x="185" y="378" type="offcurve" name="14" />
  </contour>
 </outline>
</glyph>
<glyph name="sterling" format="1">
 <advance width="483" />
 <unicode hex="00a3" />
 <outline>
  <contour>
   <point x="362" y="303" type="line" smooth="no" name="13" />
   <point x="362" y="373" type="line" smooth="no" name="13" />
   <point x="205" y="373" type="line" smooth="no" name="13" />
   <point x="205" y="436" type="line" smooth="yes" name="15" />
   <point x="205" y="515" type="offcurve" name="14" />
   <point x="235" y="565" type="offcurve" name="14" />
   <point x="308" y="565" type="curve" smooth="yes" name="15" />
   <point x="351" y="565" type="offcurve" name="14" />
   <point x="393" y="545" type="offcurve" name="14" />
   <point x="431" y="520" type="curve" smooth="no" name="13" />
   <point x="468" y="576" type="line" smooth="no" name="13" />
   <point x="403" y="628" type="offcurve" name="14" />
   <point x="349" y="645" type="offcurve" name="14" />
   <point x="298" y="645" type="curve" smooth="yes" name="15" />
   <point x="156" y="645" type="offcurve" name="14" />
   <point x="113" y="547" type="offcurve" name="14" />
   <point x="112" y="429" type="curve" smooth="yes" name="15" />
   <point x="112" y="373" type="line" smooth="no" name="13" />
   <point x="42" y="373" type="line" smooth="no" name="13" />
   <point x="42" y="303" type="line" smooth="no" name="13" />
   <point x="112" y="303" type="line" smooth="no" name="13" />
   <point x="112" y="77" type="line" smooth="no" name="13" />
   <point x="44" y="77" type="line" smooth="no" name="13" />
   <point x="44" y="0" type="line" smooth="no" name="13" />
   <point x="440" y="0" type="line" smooth="no" name="13" />
   <point x="440" y="77" type="line" smooth="no" name="13" />
   <point x="205" y="77" type="line" smooth="no" name="13" />
   <point x="205" y="303" type="line" smooth="no" name="13" />
  </contour>
 </outline>
</glyph>
<glyph name="currency" format="1">
 <advance width="482" />
 <unicode hex="00a4" />
 <outline>
  <contour>
   <point x="337" y="169" type="curve" smooth="no" name="13" />
   <point x="413" y="94" type="line" smooth="yes" name="15" />
   <point x="415" y="92" type="offcurve" name="14" />
   <point x="418" y="91" type="offcurve" name="14" />
   <point x="421" y="91" type="curve" smooth="yes" name="15" />
   <point x="436" y="91" type="offcurve" name="14" />
   <point x="459" y="116" type="offcurve" name="14" />
   <point x="459" y="132" type="curve" smooth="yes" name="15" />
   <point x="459" y="135" type="offcurve" name="14" />
   <point x="458" y="138" type="offcurve" name="14" />
   <point x="456" y="140" type="curve" smooth="yes" name="15" />
   <point x="382" y="212" type="line" smooth="no" name="13" />
   <point x="403" y="242" type="offcurve" name="14" />
   <point x="413" y="273" type="offcurve" name="14" />
   <point x="413" y="310" type="curve" smooth="yes" name="15" />
   <point x="413" y="349" type="offcurve" name="14" />
   <point x="403" y="382" type="offcurve" name="14" />
   <point x="382" y="412" type="curve" smooth="no" name="13" />
   <point x="455" y="485" type="line" smooth="yes" name="15" />
   <point x="457" y="487" type="offcurve" name="14" />
   <point x="458" y="490" type="offcurve" name="14" />
   <point x="458" y="493" type="curve" smooth="yes" name="15" />
   <point x="458" y="508" type="offcurve" name="14" />
   <point x="436" y="530" type="offcurve" name="14" />
   <point x="420" y="530" type="curve" smooth="yes" name="15" />
   <point x="417" y="530" type="offcurve" name="14" />
   <point x="414" y="528" type="offcurve" name="14" />
   <point x="412" y="526" type="curve" smooth="yes" name="15" />
   <point x="337" y="453" type="line" smooth="no" name="13" />
   <point x="307" y="471" type="offcurve" name="14" />
   <point x="275" y="480" type="offcurve" name="14" />
   <point x="240" y="480" type="curve" smooth="yes" name="15" />
   <point x="204" y="480" type="offcurve" name="14" />
   <point x="172" y="471" type="offcurve" name="14" />
   <point x="143" y="453" type="curve" smooth="no" name="13" />
   <point x="68" y="527" type="line" smooth="yes" name="15" />
   <point x="66" y="529" type="offcurve" name="14" />
   <point x="64" y="530" type="offcurve" name="14" />
   <point x="61" y="530" type="curve" smooth="yes" name="15" />
   <point x="46" y="530" type="offcurve" name="14" />
   <point x="21" y="505" type="offcurve" name="14" />
   <point x="21" y="491" type="curve" smooth="yes" name="15" />
   <point x="21" y="488" type="offcurve" name="14" />
   <point x="22" y="485" type="offcurve" name="14" />
   <point x="24" y="483" type="curve" smooth="yes" name="15" />
   <point x="97" y="411" type="line" smooth="no" name="13" />
   <point x="75" y="380" type="offcurve" name="14" />
   <point x="65" y="348" type="offcurve" name="14" />
   <point x="65" y="310" type="curve" smooth="yes" name="15" />
   <point x="65" y="273" type="offcurve" name="14" />
   <point x="75" y="241" type="offcurve" name="14" />
   <point x="95" y="211" type="curve" smooth="no" name="13" />
   <point x="24" y="142" type="line" smooth="yes" name="15" />
   <point x="22" y="140" type="offcurve" name="14" />
   <point x="21" y="137" type="offcurve" name="14" />
   <point x="21" y="134" type="curve" smooth="yes" name="15" />
   <point x="22" y="120" type="offcurve" name="14" />
   <point x="48" y="94" type="offcurve" name="14" />
   <point x="61" y="94" type="curve" smooth="yes" name="15" />
   <point x="64" y="94" type="offcurve" name="14" />
   <point x="67" y="95" type="offcurve" name="14" />
   <point x="69" y="97" type="curve" smooth="yes" name="15" />
   <point x="142" y="169" type="line" smooth="no" name="13" />
   <point x="170" y="151" type="offcurve" name="14" />
   <point x="201" y="142" type="offcurve" name="14" />
   <point x="240" y="142" type="curve" smooth="yes" name="15" />
   <point x="278" y="142" type="offcurve" name="14" />
   <point x="309" y="151" type="offcurve" name="14" />
  </contour>
  <contour>
   <point x="241" y="208" type="curve" smooth="yes" name="15" />
   <point x="178" y="208" type="offcurve" name="14" />
   <point x="138" y="248" type="offcurve" name="14" />
   <point x="138" y="311" type="curve" smooth="yes" name="15" />
   <point x="138" y="373" type="offcurve" name="14" />
   <point x="180" y="415" type="offcurve" name="14" />
   <point x="241" y="415" type="curve" smooth="yes" name="15" />
   <point x="302" y="415" type="offcurve" name="14" />
   <point x="339" y="376" type="offcurve" name="14" />
   <point x="339" y="311" type="curve" smooth="yes" name="15" />
   <point x="339" y="247" type="offcurve" name="14" />
   <point x="302" y="208" type="offcurve" name="14" />
  </contour>
 </outline>
</glyph>
<glyph name="yen" format="1">
 <advance width="490" />
 <unicode hex="00a5" />
 <outline>
  <contour>
   <point x="195" y="0" type="line" smooth="no" name="13" />
   <point x="291" y="0" type="line" smooth="no" name="13" />
   <point x="291" y="154" type="line" smooth="no" name="13" />
   <point x="396" y="154" type="line" smooth="no" name="13" />
   <point x="396" y="208" type="line" smooth="no" name="13" />
   <point x="291" y="208" type="line" smooth="no" name="13" />
   <point x="291" y="249" type="line" smooth="no" name="13" />
   <point x="396" y="249" type="line" smooth="no" name="13" />
   <point x="396" y="309" type="line" smooth="no" name="13" />
   <point x="293" y="309" type="line" smooth="no" name="13" />
   <point x="457" y="633" type="line" smooth="no" name="13" />
   <point x="368" y="633" type="line" smooth="no" name="13" />
   <point x="245" y="390" type="line" smooth="no" name="13" />
   <point x="120" y="633" type="line" smooth="no" name="13" />
   <point x="32" y="633" type="line" smooth="no" name="13" />
   <point x="193" y="309" type="line" smooth="no" name="13" />
   <point x="94" y="309" type="line" smooth="no" name="13" />
   <point x="94" y="249" type="line" smooth="no" name="13" />
   <point x="195" y="249" type="line" smooth="no" name="13" />
   <point x="195" y="208" type="line" smooth="no" name="13" />
   <point x="94" y="208" type="line" smooth="no" name="13" />
   <point x="94" y="154" type="line" smooth="no" name="13" />
   <point x="195" y="154" type="line" smooth="no" name="13" />
  </contour>
 </outline>
</glyph>
<glyph name="brokenbar" format="1">
 <advance width="236" />
 <unicode hex="00a6" />
 <outline>
  <contour>
   <point x="78" y="229" type="line" smooth="no" name="13" />
   <point x="78" y="-180" type="line" smooth="no" name="13" />
   <point x="158" y="-180" type="line" smooth="no" name="13" />
   <point x="158" y="229" type="line" smooth="no" name="13" />
  </contour>
  <contour>
   <point x="158" y="662" type="line" smooth="no" name="13" />
   <point x="78" y="662" type="line" smooth="no" name="13" />
   <point x="78" y="287" type="line" smooth="no" name="13" />
   <point x="158" y="287" type="line" smooth="no" name="13" />
  </contour>
 </outline>
</glyph>
<glyph name="section" format="1">
 <advance width="462" />
 <unicode hex="00a7" />
 <outline>
  <contour>
   <point x="344" y="132" type="curve" smooth="no" name="13" />
   <point x="385" y="153" type="offcurve" name="14" />
   <point x="412" y="190" type="offcurve" name="14" />
   <point x="412" y="243" type="curve" smooth="yes" name="15" />
   <point x="412" y="344" type="offcurve" name="14" />
   <point x="341" y="382" type="offcurve" name="14" />
   <point x="264" y="409" type="curve" smooth="yes" name="15" />
   <point x="200" y="431" type="offcurve" name="14" />
   <point x="156" y="459" type="offcurve" name="14" />
   <point x="156" y="513" type="curve" smooth="yes" name="15" />
   <point x="156" y="555" type="offcurve" name="14" />
   <point x="191" y="579" type="offcurve" name="14" />
   <point x="239" y="579" type="curve" smooth="yes" name="15" />
   <point x="280" y="579" type="offcurve" name="14" />
   <point x="322" y="566" type="offcurve" name="14" />
   <point x="349" y="551" type="curve" smooth="no" name="13" />
   <point x="379" y="598" type="line" smooth="no" name="13" />
   <point x="347" y="622" type="offcurve" name="14" />
   <point x="293" y="645" type="offcurve" name="14" />
   <point x="232" y="645" type="curve" smooth="yes" name="15" />
   <point x="137" y="645" type="offcurve" name="14" />
   <point x="69" y="592" type="offcurve" name="14" />
   <point x="69" y="507" type="curve" smooth="yes" name="15" />
   <point x="69" y="457" type="offcurve" name="14" />
   <point x="93" y="419" type="offcurve" name="14" />
   <point x="133" y="389" type="curve" smooth="no" name="13" />
   <point x="82" y="368" type="offcurve" name="14" />
   <point x="50" y="327" type="offcurve" name="14" />
   <point x="50" y="267" type="curve" smooth="yes" name="15" />
   <point x="50" y="171" type="offcurve" name="14" />
   <point x="144" y="131" type="offcurve" name="14" />
   <point x="217" y="110" type="curve" smooth="yes" name="15" />
   <point x="295" y="88" type="offcurve" name="14" />
   <point x="313" y="55" type="offcurve" name="14" />
   <point x="313" y="19" type="curve" smooth="yes" name="15" />
   <point x="313" y="-42" type="offcurve" name="14" />
   <point x="277" y="-71" type="offcurve" name="14" />
   <point x="210" y="-71" type="curve" smooth="yes" name="15" />
   <point x="194" y="-71" type="offcurve" name="14" />
   <point x="135" y="-64" type="offcurve" name="14" />
   <point x="96" y="-43" type="curve" smooth="no" name="13" />
   <point x="66" y="-89" type="line" smooth="no" name="13" />
   <point x="101" y="-115" type="offcurve" name="14" />
   <point x="158" y="-140" type="offcurve" name="14" />
   <point x="227" y="-140" type="curve" smooth="yes" name="15" />
   <point x="335" y="-140" type="offcurve" name="14" />
   <point x="400" y="-69" type="offcurve" name="14" />
   <point x="400" y="12" type="curve" smooth="yes" name="15" />
   <point x="400" y="76" type="offcurve" name="14" />
   <point x="374" y="109" type="offcurve" name="14" />
  </contour>
  <contour>
   <point x="174" y="364" type="curve" smooth="no" name="13" />
   <point x="194" y="354" type="offcurve" name="14" />
   <point x="216" y="345" type="offcurve" name="14" />
   <point x="240" y="337" type="curve" smooth="yes" name="15" />
   <point x="303" y="315" type="offcurve" name="14" />
   <point x="329" y="289" type="offcurve" name="14" />
   <point x="329" y="236" type="curve" smooth="yes" name="15" />
   <point x="329" y="200" type="offcurve" name="14" />
   <point x="317" y="175" type="offcurve" name="14" />
   <point x="300" y="159" type="curve" smooth="yes" name="15" />
   <point x="299" y="158" type="offcurve" name="14" />
   <point x="298" y="158" type="offcurve" name="14" />
   <point x="297" y="158" type="curve" smooth="no" name="13" />
   <point x="282" y="164" type="offcurve" name="14" />
   <point x="265" y="170" type="offcurve" name="14" />
   <point x="248" y="175" type="curve" smooth="yes" name="15" />
   <point x="153" y="203" type="offcurve" name="14" />
   <point x="139" y="239" type="offcurve" name="14" />
   <point x="135" y="282" type="curve" smooth="no" name="13" />
   <point x="135" y="316" type="offcurve" name="14" />
   <point x="148" y="345" type="offcurve" name="14" />
  </contour>
 </outline>
</glyph>
<glyph name="dieresis" format="1">
 <advance width="336" />
 <unicode hex="00a8" />
 <outline>
  <contour>
   <point x="34" y="594" type="curve" smooth="yes" name="15" />
   <point x="34" y="564" type="offcurve" name="14" />
   <point x="56" y="542" type="offcurve" name="14" />
   <point x="86" y="542" type="curve" smooth="yes" name="15" />
   <point x="113" y="542" type="offcurve" name="14" />
   <point x="137" y="564" type="offcurve" name="14" />
   <point x="137" y="594" type="curve" smooth="yes" name="15" />
   <point x="137" y="621" type="offcurve" name="14" />
   <point x="113" y="645" type="offcurve" name="14" />
   <point x="86" y="645" type="curve" smooth="yes" name="15" />
   <point x="56" y="645" type="offcurve" name="14" />
   <point x="34" y="621" type="offcurve" name="14" />
  </contour>
  <contour>
   <point x="196" y="594" type="curve" smooth="yes" name="15" />
   <point x="196" y="564" type="offcurve" name="14" />
   <point x="219" y="542" type="offcurve" name="14" />
   <point x="247" y="542" type="curve" smooth="yes" name="15" />
   <point x="276" y="542" type="offcurve" name="14" />
   <point x="299" y="564" type="offcurve" name="14" />
   <point x="299" y="594" type="curve" smooth="yes" name="15" />
   <point x="299" y="621" type="offcurve" name="14" />
   <point x="276" y="645" type="offcurve" name="14" />
   <point x="247" y="645" type="curve" smooth="yes" name="15" />
   <point x="219" y="645" type="offcurve" name="14" />
   <point x="196" y="621" type="offcurve" name="14" />
  </contour>
 </outline>
</glyph>
<glyph name="copyright" format="1">
 <advance width="699" />
 <unicode hex="00a9" />
 <outline>
  <contour>
   <point x="481" y="459" type="line" smooth="no" name="13" />
   <point x="440" y="494" type="offcurve" name="14" />
   <point x="399" y="502" type="offcurve" name="14" />
   <point x="358" y="502" type="curve" smooth="yes" name="15" />
   <point x="254" y="502" type="offcurve" name="14" />
   <point x="176" y="418" type="offcurve" name="14" />
   <point x="176" y="310" type="curve" smooth="yes" name="15" />
   <point x="176" y="197" type="offcurve" name="14" />
   <point x="252" y="121" type="offcurve" name="14" />
   <point x="363" y="121" type="curve" smooth="yes" name="15" />
   <point x="410" y="121" type="offcurve" name="14" />
   <point x="454" y="135" type="offcurve" name="14" />
   <point x="487" y="167" type="curve" smooth="no" name="13" />
   <point x="466" y="207" type="line" smooth="no" name="13" />
   <point x="441" y="186" type="offcurve" name="14" />
   <point x="411" y="174" type="offcurve" name="14" />
   <point x="375" y="174" type="curve" smooth="yes" name="15" />
   <point x="296" y="174" type="offcurve" name="14" />
   <point x="248" y="234" type="offcurve" name="14" />
   <point x="248" y="308" type="curve" smooth="yes" name="15" />
   <point x="248" y="390" type="offcurve" name="14" />
   <point x="298" y="449" type="offcurve" name="14" />
   <point x="370" y="449" type="curve" smooth="yes" name="15" />
   <point x="406" y="449" type="offcurve" name="14" />
   <point x="438" y="438" type="offcurve" name="14" />
   <point x="463" y="421" type="curve" smooth="no" name="13" />
  </contour>
  <contour>
   <point x="48" y="315" type="curve" smooth="yes" name="15" />
   <point x="48" y="150" type="offcurve" name="14" />
   <point x="184" y="14" type="offcurve" name="14" />
   <point x="349" y="14" type="curve" smooth="yes" name="15" />
   <point x="515" y="14" type="offcurve" name="14" />
   <point x="651" y="150" type="offcurve" name="14" />
   <point x="651" y="315" type="curve" smooth="yes" name="15" />
   <point x="651" y="481" type="offcurve" name="14" />
   <point x="515" y="617" type="offcurve" name="14" />
   <point x="349" y="617" type="curve" smooth="yes" name="15" />
   <point x="184" y="617" type="offcurve" name="14" />
   <point x="48" y="481" type="offcurve" name="14" />
  </contour>
  <contour>
   <point x="113" y="314" type="curve" smooth="yes" name="15" />
   <point x="113" y="448" type="offcurve" name="14" />
   <point x="217" y="553" type="offcurve" name="14" />
   <point x="351" y="553" type="curve" smooth="yes" name="15" />
   <point x="484" y="553" type="offcurve" name="14" />
   <point x="591" y="448" type="offcurve" name="14" />
   <point x="591" y="314" type="curve" smooth="yes" name="15" />
   <point x="591" y="181" type="offcurve" name="14" />
   <point x="484" y="75" type="offcurve" name="14" />
   <point x="351" y="75" type="curve" smooth="yes" name="15" />
   <point x="217" y="75" type="offcurve" name="14" />
   <point x="113" y="181" type="offcurve" name="14" />
  </contour>
 </outline>
</glyph>
<glyph name="ordfeminine" format="1">
 <advance width="268" />
 <unicode hex="00aa" />
 <outline>
  <contour>
   <point x="236" y="406" type="line" smooth="no" name="13" />
   <point x="236" y="544" type="line" smooth="yes" name="15" />
   <point x="236" y="611" type="offcurve" name="14" />
   <point x="201" y="645" type="offcurve" name="14" />
   <point x="143" y="645" type="curve" smooth="yes" name="15" />
   <point x="104" y="645" type="offcurve" name="14" />
   <point x="76" y="631" type="offcurve" name="14" />
   <point x="51" y="611" type="curve" smooth="no" name="13" />
   <point x="64" y="574" type="line" smooth="no" name="13" />
   <point x="86" y="590" type="offcurve" name="14" />
   <point x="114" y="602" type="offcurve" name="14" />
   <point x="134" y="602" type="curve" smooth="yes" name="15" />
   <point x="164" y="602" type="offcurve" name="14" />
   <point x="182" y="592" type="offcurve" name="14" />
   <point x="182" y="556" type="curve" smooth="yes" name="15" />
   <point x="182" y="554" type="line" smooth="no" name="13" />
   <point x="155" y="554" type="line" smooth="yes" name="15" />
   <point x="72" y="554" type="offcurve" name="14" />
   <point x="33" y="519" type="offcurve" name="14" />
   <point x="33" y="473" type="curve" smooth="yes" name="15" />
   <point x="33" y="422" type="offcurve" name="14" />
   <point x="77" y="400" type="offcurve" name="14" />
   <point x="117" y="400" type="curve" smooth="yes" name="15" />
   <point x="149" y="400" type="offcurve" name="14" />
   <point x="171" y="415" type="offcurve" name="14" />
   <point x="187" y="436" type="curve" smooth="no" name="13" />
   <point x="191" y="406" type="line" smooth="no" name="13" />
  </contour>
  <contour>
   <point x="181" y="518" type="line" smooth="no" name="13" />
   <point x="181" y="490" type="line" smooth="no" name="13" />
   <point x="174" y="464" type="offcurve" name="14" />
   <point x="150" y="445" type="offcurve" name="14" />
   <point x="123" y="445" type="curve" smooth="yes" name="15" />
   <point x="105" y="445" type="offcurve" name="14" />
   <point x="90" y="456" type="offcurve" name="14" />
   <point x="90" y="476" type="curve" smooth="yes" name="15" />
   <point x="90" y="501" type="offcurve" name="14" />
   <point x="103" y="518" type="offcurve" name="14" />
   <point x="165" y="518" type="curve" smooth="yes" name="15" />
  </contour>
 </outline>
</glyph>
<glyph name="guillemotleft" format="1">
 <advance width="545" />
 <unicode hex="00ab" />
 <outline>
  <contour>
   <point x="279" y="12" type="curve" smooth="no" name="13" />
   <point x="279" y="89" type="line" smooth="no" name="13" />
   <point x="218" y="118" type="offcurve" name="14" />
   <point x="169" y="167" type="offcurve" name="14" />
   <point x="138" y="231" type="curve" smooth="no" name="13" />
   <point x="169" y="296" type="offcurve" name="14" />
   <point x="218" y="345" type="offcurve" name="14" />
   <point x="279" y="374" type="curve" smooth="no" name="13" />
   <point x="279" y="451" type="line" smooth="no" name="13" />
   <point x="191" y="437" type="offcurve" name="14" />
   <point x="98" y="345" type="offcurve" name="14" />
   <point x="50" y="231" type="curve" smooth="no" name="13" />
   <point x="98" y="118" type="offcurve" name="14" />
   <point x="191" y="26" type="offcurve" name="14" />
  </contour>
  <contour>
   <point x="505" y="12" type="curve" smooth="no" name="13" />
   <point x="505" y="89" type="line" smooth="no" name="13" />
   <point x="444" y="117" type="offcurve" name="14" />
   <point x="395" y="167" type="offcurve" name="14" />
   <point x="365" y="231" type="curve" smooth="no" name="13" />
   <point x="395" y="296" type="offcurve" name="14" />
   <point x="444" y="345" type="offcurve" name="14" />
   <point x="505" y="374" type="curve" smooth="no" name="13" />
   <point x="505" y="451" type="line" smooth="no" name="13" />
   <point x="417" y="437" type="offcurve" name="14" />
   <point x="324" y="345" type="offcurve" name="14" />
   <point x="276" y="231" type="curve" smooth="no" name="13" />
   <point x="324" y="118" type="offcurve" name="14" />
   <point x="417" y="26" type="offcurve" name="14" />
  </contour>
 </outline>
</glyph>
<glyph name="logicalnot" format="1">
 <advance width="477" />
 <unicode hex="00ac" />
 <outline>
  <contour>
   <point x="342" y="0" type="line" smooth="no" name="13" />
   <point x="435" y="0" type="line" smooth="no" name="13" />
   <point x="435" y="231" type="line" smooth="no" name="13" />
   <point x="42" y="231" type="line" smooth="no" name="13" />
   <point x="42" y="153" type="line" smooth="no" name="13" />
   <point x="342" y="153" type="line" smooth="no" name="13" />
  </contour>
 </outline>
</glyph>
<glyph name="registered" format="1">
 <advance width="413" />
 <unicode hex="00ae" />
 <outline>
  <contour>
   <point x="205" y="470" type="line" smooth="no" name="13" />
   <point x="231" y="410" type="line" smooth="no" name="13" />
   <point x="278" y="410" type="line" smooth="no" name="13" />
   <point x="243" y="477" type="line" smooth="no" name="13" />
   <point x="258" y="484" type="offcurve" name="14" />
   <point x="269" y="493" type="offcurve" name="14" />
   <point x="269" y="520" type="curve" smooth="yes" name="15" />
   <point x="269" y="548" type="offcurve" name="14" />
   <point x="248" y="567" type="offcurve" name="14" />
   <point x="214" y="567" type="curve" smooth="yes" name="15" />
   <point x="151" y="567" type="line" smooth="no" name="13" />
   <point x="151" y="410" type="line" smooth="no" name="13" />
   <point x="191" y="410" type="line" smooth="no" name="13" />
   <point x="191" y="470" type="line" smooth="no" name="13" />
  </contour>
  <contour>
   <point x="205" y="537" type="line" smooth="yes" name="15" />
   <point x="223" y="537" type="offcurve" name="14" />
   <point x="229" y="530" type="offcurve" name="14" />
   <point x="229" y="518" type="curve" smooth="yes" name="15" />
   <point x="229" y="505" type="offcurve" name="14" />
   <point x="221" y="498" type="offcurve" name="14" />
   <point x="205" y="498" type="curve" smooth="yes" name="15" />
   <point x="191" y="498" type="line" smooth="no" name="13" />
   <point x="191" y="537" type="line" smooth="no" name="13" />
  </contour>
  <contour>
   <point x="45" y="484" type="curve" smooth="yes" name="15" />
   <point x="45" y="395" type="offcurve" name="14" />
   <point x="118" y="322" type="offcurve" name="14" />
   <point x="207" y="322" type="curve" smooth="yes" name="15" />
   <point x="296" y="322" type="offcurve" name="14" />
   <point x="368" y="395" type="offcurve" name="14" />
   <point x="368" y="484" type="curve" smooth="yes" name="15" />
   <point x="368" y="573" type="offcurve" name="14" />
   <point x="296" y="645" type="offcurve" name="14" />
   <point x="207" y="645" type="curve" smooth="yes" name="15" />
   <point x="118" y="645" type="offcurve" name="14" />
   <point x="45" y="573" type="offcurve" name="14" />
  </contour>
  <contour>
   <point x="85" y="484" type="curve" smooth="yes" name="15" />
   <point x="85" y="551" type="offcurve" name="14" />
   <point x="139" y="606" type="offcurve" name="14" />
   <point x="207" y="606" type="curve" smooth="yes" name="15" />
   <point x="275" y="606" type="offcurve" name="14" />
   <point x="330" y="551" type="offcurve" name="14" />
   <point x="330" y="484" type="curve" smooth="yes" name="15" />
   <point x="330" y="415" type="offcurve" name="14" />
   <point x="275" y="361" type="offcurve" name="14" />
   <point x="207" y="361" type="curve" smooth="yes" name="15" />
   <point x="139" y="361" type="offcurve" name="14" />
   <point x="85" y="415" type="offcurve" name="14" />
  </contour>
 </outline>
</glyph>
<glyph name="macron" format="1">
 <advance width="246" />
 <unicode hex="00af" />
 <outline>
  <contour>
   <point x="230" y="568" type="line" smooth="no" name="13" />
   <point x="230" y="633" type="line" smooth="no" name="13" />
   <point x="16" y="633" type="line" smooth="no" name="13" />
   <point x="16" y="568" type="line" smooth="no" name="13" />
  </contour>
 </outline>
</glyph>
<glyph name="degree" format="1">
 <advance width="280" />
 <unicode hex="00b0" />
 <outline>
  <contour>
   <point x="25" y="536" type="curve" smooth="yes" name="15" />
   <point x="25" y="464" type="offcurve" name="14" />
   <point x="77" y="422" type="offcurve" name="14" />
   <point x="139" y="422" type="curve" smooth="yes" name="15" />
   <point x="203" y="422" type="offcurve" name="14" />
   <point x="255" y="464" type="offcurve" name="14" />
   <point x="255" y="536" type="curve" smooth="yes" name="15" />
   <point x="255" y="610" type="offcurve" name="14" />
   <point x="203" y="652" type="offcurve" name="14" />
   <point x="139" y="652" type="curve" smooth="yes" name="15" />
   <point x="77" y="652" type="offcurve" name="14" />
   <point x="25" y="610" type="offcurve" name="14" />
  </contour>
  <contour>
   <point x="66" y="536" type="curve" smooth="yes" name="15" />
   <point x="66" y="588" type="offcurve" name="14" />
   <point x="99" y="611" type="offcurve" name="14" />
   <point x="138" y="611" type="curve" smooth="yes" name="15" />
   <point x="180" y="611" type="offcurve" name="14" />
   <point x="214" y="588" type="offcurve" name="14" />
   <point x="214" y="536" type="curve" smooth="yes" name="15" />
   <point x="214" y="485" type="offcurve" name="14" />
   <point x="180" y="464" type="offcurve" name="14" />
   <point x="138" y="464" type="curve" smooth="yes" name="15" />
   <point x="99" y="464" type="offcurve" name="14" />
   <point x="66" y="487" type="offcurve" name="14" />
  </contour>
 </outline>
</glyph>
<glyph name="plusminus" format="1">
 <advance width="518" />
 <unicode hex="00b1" />
 <outline>
  <contour>
   <point x="219" y="242" type="line" smooth="no" name="13" />
   <point x="219" y="100" type="line" smooth="no" name="13" />
   <point x="299" y="100" type="line" smooth="no" name="13" />
   <point x="299" y="242" type="line" smooth="no" name="13" />
   <point x="476" y="242" type="line" smooth="no" name="13" />
   <point x="476" y="312" type="line" smooth="no" name="13" />
   <point x="299" y="312" type="line" smooth="no" name="13" />
   <point x="299" y="454" type="line" smooth="no" name="13" />
   <point x="219" y="454" type="line" smooth="no" name="13" />
   <point x="219" y="312" type="line" smooth="no" name="13" />
   <point x="42" y="312" type="line" smooth="no" name="13" />
   <point x="42" y="242" type="line" smooth="no" name="13" />
  </contour>
  <contour>
   <point x="476" y="0" type="line" smooth="no" name="13" />
   <point x="476" y="70" type="line" smooth="no" name="13" />
   <point x="42" y="70" type="line" smooth="no" name="13" />
   <point x="42" y="0" type="line" smooth="no" name="13" />
  </contour>
 </outline>
</glyph>
<glyph name="twosuperior" format="1">
 <advance width="377" />
 <unicode hex="00b2" />
 <outline>
  <contour>
   <point x="61" y="316" type="line" smooth="no" name="13" />
   <point x="295" y="316" type="line" smooth="no" name="13" />
   <point x="295" y="376" type="line" smooth="no" name="13" />
   <point x="170" y="376" type="line" smooth="no" name="13" />
   <point x="231" y="424" type="line" smooth="yes" name="15" />
   <point x="276" y="459" type="offcurve" name="14" />
   <point x="299" y="493" type="offcurve" name="14" />
   <point x="299" y="542" type="curve" smooth="yes" name="15" />
   <point x="299" y="578" type="offcurve" name="14" />
   <point x="275" y="645" type="offcurve" name="14" />
   <point x="180" y="645" type="curve" smooth="yes" name="15" />
   <point x="140" y="645" type="offcurve" name="14" />
   <point x="98" y="630" type="offcurve" name="14" />
   <point x="56" y="591" type="curve" smooth="no" name="13" />
   <point x="90" y="555" type="line" smooth="no" name="13" />
   <point x="122" y="581" type="offcurve" name="14" />
   <point x="153" y="585" type="offcurve" name="14" />
   <point x="167" y="585" type="curve" smooth="yes" name="15" />
   <point x="200" y="585" type="offcurve" name="14" />
   <point x="226" y="570" type="offcurve" name="14" />
   <point x="226" y="537" type="curve" smooth="yes" name="15" />
   <point x="226" y="509" type="offcurve" name="14" />
   <point x="210" y="492" type="offcurve" name="14" />
   <point x="173" y="460" type="curve" smooth="yes" name="15" />
   <point x="61" y="376" type="line" smooth="no" name="13" />
  </contour>
 </outline>
</glyph>
<glyph name="threesuperior" format="1">
 <advance width="394" />
 <unicode hex="00b3" />
 <outline>
  <contour>
   <point x="142" y="457" type="line" smooth="no" name="13" />
   <point x="190" y="457" type="line" smooth="yes" name="15" />
   <point x="225" y="457" type="offcurve" name="14" />
   <point x="243" y="440" type="offcurve" name="14" />
   <point x="243" y="415" type="curve" smooth="yes" name="15" />
   <point x="243" y="384" type="offcurve" name="14" />
   <point x="212" y="374" type="offcurve" name="14" />
   <point x="187" y="374" type="curve" smooth="yes" name="15" />
   <point x="164" y="374" type="offcurve" name="14" />
   <point x="140" y="381" type="offcurve" name="14" />
   <point x="112" y="399" type="curve" smooth="no" name="13" />
   <point x="78" y="363" type="line" smooth="no" name="13" />
   <point x="120" y="324" type="offcurve" name="14" />
   <point x="152" y="314" type="offcurve" name="14" />
   <point x="192" y="314" type="curve" smooth="yes" name="15" />
   <point x="287" y="314" type="offcurve" name="14" />
   <point x="316" y="372" type="offcurve" name="14" />
   <point x="316" y="406" type="curve" smooth="yes" name="15" />
   <point x="316" y="454" type="offcurve" name="14" />
   <point x="289" y="481" type="offcurve" name="14" />
   <point x="251" y="491" type="curve" smooth="no" name="13" />
   <point x="287" y="495" type="offcurve" name="14" />
   <point x="311" y="524" type="offcurve" name="14" />
   <point x="311" y="554" type="curve" smooth="yes" name="15" />
   <point x="311" y="596" type="offcurve" name="14" />
   <point x="287" y="645" type="offcurve" name="14" />
   <point x="199" y="645" type="curve" smooth="yes" name="15" />
   <point x="161" y="645" type="offcurve" name="14" />
   <point x="120" y="634" type="offcurve" name="14" />
   <point x="78" y="595" type="curve" smooth="no" name="13" />
   <point x="110" y="561" type="line" smooth="no" name="13" />
   <point x="142" y="579" type="offcurve" name="14" />
   <point x="165" y="585" type="offcurve" name="14" />
   <point x="190" y="585" type="curve" smooth="yes" name="15" />
   <point x="216" y="585" type="offcurve" name="14" />
   <point x="238" y="573" type="offcurve" name="14" />
   <point x="238" y="550" type="curve" smooth="yes" name="15" />
   <point x="238" y="528" type="offcurve" name="14" />
   <point x="223" y="516" type="offcurve" name="14" />
   <point x="193" y="516" type="curve" smooth="yes" name="15" />
   <point x="142" y="516" type="line" smooth="no" name="13" />
  </contour>
 </outline>
</glyph>
<glyph name="acute" format="1">
 <advance width="200" />
 <unicode hex="00b4" />
 <outline>
  <contour>
   <point x="175" y="655" type="line" smooth="no" name="13" />
   <point x="85" y="655" type="line" smooth="no" name="13" />
   <point x="25" y="532" type="line" smooth="no" name="13" />
   <point x="82" y="532" type="line" smooth="no" name="13" />
  </contour>
 </outline>
</glyph>
<glyph name="mu" format="1">
 <advance width="578" />
 <unicode hex="00b5" />
 <outline>
  <contour>
   <point x="164" y="2" type="line" smooth="no" name="13" />
   <point x="185" y="-7" type="offcurve" name="14" />
   <point x="209" y="-12" type="offcurve" name="14" />
   <point x="237" y="-12" type="curve" smooth="yes" name="15" />
   <point x="291" y="-12" type="offcurve" name="14" />
   <point x="348" y="18" type="offcurve" name="14" />
   <point x="376" y="51" type="curve" smooth="no" name="13" />
   <point x="385" y="12" type="offcurve" name="14" />
   <point x="408" y="-13" type="offcurve" name="14" />
   <point x="466" y="-13" type="curve" smooth="yes" name="15" />
   <point x="512" y="-13" type="offcurve" name="14" />
   <point x="540" y="16" type="offcurve" name="14" />
   <point x="553" y="28" type="curve" smooth="no" name="13" />
   <point x="523" y="74" type="line" smooth="no" name="13" />
   <point x="513" y="65" type="offcurve" name="14" />
   <point x="501" y="54" type="offcurve" name="14" />
   <point x="486" y="54" type="curve" smooth="yes" name="15" />
   <point x="463" y="54" type="offcurve" name="14" />
   <point x="456" y="63" type="offcurve" name="14" />
   <point x="456" y="105" type="curve" smooth="yes" name="15" />
   <point x="456" y="454" type="line" smooth="no" name="13" />
   <point x="370" y="454" type="line" smooth="no" name="13" />
   <point x="370" y="113" type="line" smooth="no" name="13" />
   <point x="356" y="93" type="offcurve" name="14" />
   <point x="313" y="62" type="offcurve" name="14" />
   <point x="264" y="62" type="curve" smooth="yes" name="15" />
   <point x="202" y="62" type="offcurve" name="14" />
   <point x="164" y="99" type="offcurve" name="14" />
   <point x="164" y="201" type="curve" smooth="yes" name="15" />
   <point x="164" y="454" type="line" smooth="no" name="13" />
   <point x="78" y="454" type="line" smooth="no" name="13" />
   <point x="78" y="-179" type="line" smooth="no" name="13" />
   <point x="164" y="-179" type="line" smooth="no" name="13" />
  </contour>
 </outline>
</glyph>
<glyph name="paragraph" format="1">
 <advance width="476" />
 <unicode hex="00b6" />
 <outline>
  <contour>
   <point x="386" y="0" type="line" smooth="no" name="13" />
   <point x="386" y="633" type="line" smooth="no" name="13" />
   <point x="336" y="633" type="line" smooth="no" name="13" />
   <point x="336" y="0" type="line" smooth="no" name="13" />
  </contour>
  <contour>
   <point x="255" y="0" type="line" smooth="no" name="13" />
   <point x="306" y="0" type="line" smooth="no" name="13" />
   <point x="306" y="633" type="line" smooth="no" name="13" />
   <point x="203" y="633" type="line" smooth="yes" name="15" />
   <point x="108" y="633" type="offcurve" name="14" />
   <point x="46" y="584" type="offcurve" name="14" />
   <point x="46" y="493" type="curve" smooth="yes" name="15" />
   <point x="46" y="417" type="offcurve" name="14" />
   <point x="81" y="359" type="offcurve" name="14" />
   <point x="212" y="359" type="curve" smooth="yes" name="15" />
   <point x="255" y="359" type="line" smooth="no" name="13" />
  </contour>
 </outline>
</glyph>
<glyph name="periodcentered" format="1">
 <advance width="187" />
 <unicode hex="00b7" />
 <outline>
  <contour>
   <point x="39" y="365" type="curve" smooth="yes" name="15" />
   <point x="39" y="330" type="offcurve" name="14" />
   <point x="62" y="308" type="offcurve" name="14" />
   <point x="91" y="308" type="curve" smooth="yes" name="15" />
   <point x="125" y="308" type="offcurve" name="14" />
   <point x="148" y="330" type="offcurve" name="14" />
   <point x="148" y="365" type="curve" smooth="yes" name="15" />
   <point x="148" y="393" type="offcurve" name="14" />
   <point x="125" y="417" type="offcurve" name="14" />
   <point x="91" y="417" type="curve" smooth="yes" name="15" />
   <point x="62" y="417" type="offcurve" name="14" />
   <point x="39" y="393" type="offcurve" name="14" />
  </contour>
 </outline>
</glyph>
<glyph name="cedilla" format="1">
 <advance width="219" />
 <unicode hex="00b8" />
 <outline>
  <contour>
   <point x="60" y="-55" type="line" smooth="no" name="13" />
   <point x="77" y="-53" type="offcurve" name="14" />
   <point x="86" y="-53" type="offcurve" name="14" />
   <point x="93" y="-53" type="curve" smooth="yes" name="15" />
   <point x="117" y="-53" type="offcurve" name="14" />
   <point x="137" y="-64" type="offcurve" name="14" />
   <point x="137" y="-86" type="curve" smooth="yes" name="15" />
   <point x="137" y="-107" type="offcurve" name="14" />
   <point x="119" y="-116" type="offcurve" name="14" />
   <point x="97" y="-116" type="curve" smooth="yes" name="15" />
   <point x="73" y="-116" type="offcurve" name="14" />
   <point x="57" y="-111" type="offcurve" name="14" />
   <point x="38" y="-105" type="curve" smooth="no" name="13" />
   <point x="25" y="-144" type="line" smooth="no" name="13" />
   <point x="55" y="-157" type="offcurve" name="14" />
   <point x="83" y="-160" type="offcurve" name="14" />
   <point x="101" y="-160" type="curve" smooth="yes" name="15" />
   <point x="157" y="-160" type="offcurve" name="14" />
   <point x="194" y="-129" type="offcurve" name="14" />
   <point x="194" y="-86" type="curve" smooth="yes" name="15" />
   <point x="194" y="-52" type="offcurve" name="14" />
   <point x="172" y="-27" type="offcurve" name="14" />
   <point x="134" y="-27" type="curve" smooth="yes" name="15" />
   <point x="128" y="-27" type="offcurve" name="14" />
   <point x="123" y="-27" type="offcurve" name="14" />
   <point x="117" y="-28" type="curve" smooth="no" name="13" />
   <point x="129" y="10" type="line" smooth="no" name="13" />
   <point x="75" y="10" type="line" smooth="no" name="13" />
  </contour>
 </outline>
</glyph>
<glyph name="onesuperior" format="1">
 <advance width="306" />
 <unicode hex="00b9" />
 <outline>
  <contour>
   <point x="228" y="633" type="line" smooth="no" name="13" />
   <point x="152" y="633" type="line" smooth="no" name="13" />
   <point x="35" y="522" type="line" smooth="no" name="13" />
   <point x="79" y="476" type="line" smooth="no" name="13" />
   <point x="158" y="548" type="line" smooth="no" name="13" />
   <point x="158" y="318" type="line" smooth="no" name="13" />
   <point x="228" y="318" type="line" smooth="no" name="13" />
  </contour>
 </outline>
</glyph>
<glyph name="ordmasculine" format="1">
 <advance width="291" />
 <unicode hex="00ba" />
 <outline>
  <contour>
   <point x="145" y="400" type="curve" smooth="yes" name="15" />
   <point x="211" y="400" type="offcurve" name="14" />
   <point x="258" y="453" type="offcurve" name="14" />
   <point x="258" y="522" type="curve" smooth="yes" name="15" />
   <point x="258" y="590" type="offcurve" name="14" />
   <point x="215" y="645" type="offcurve" name="14" />
   <point x="145" y="645" type="curve" smooth="yes" name="15" />
   <point x="74" y="645" type="offcurve" name="14" />
   <point x="33" y="590" type="offcurve" name="14" />
   <point x="33" y="522" type="curve" smooth="yes" name="15" />
   <point x="33" y="453" type="offcurve" name="14" />
   <point x="80" y="400" type="offcurve" name="14" />
  </contour>
  <contour>
   <point x="144" y="444" type="curve" smooth="yes" name="15" />
   <point x="116" y="444" type="offcurve" name="14" />
   <point x="91" y="468" type="offcurve" name="14" />
   <point x="91" y="522" type="curve" smooth="yes" name="15" />
   <point x="91" y="571" type="offcurve" name="14" />
   <point x="111" y="601" type="offcurve" name="14" />
   <point x="145" y="601" type="curve" smooth="yes" name="15" />
   <point x="180" y="601" type="offcurve" name="14" />
   <point x="201" y="571" type="offcurve" name="14" />
   <point x="201" y="522" type="curve" smooth="yes" name="15" />
   <point x="201" y="468" type="offcurve" name="14" />
   <point x="175" y="444" type="offcurve" name="14" />
  </contour>
 </outline>
</glyph>
<glyph name="guillemotright" format="1">
 <advance width="545" />
 <unicode hex="00bb" />
 <outline>
  <contour>
   <point x="40" y="12" type="line" smooth="no" name="13" />
   <point x="128" y="26" type="offcurve" name="14" />
   <point x="221" y="118" type="offcurve" name="14" />
   <point x="269" y="231" type="curve" smooth="no" name="13" />
   <point x="221" y="345" type="offcurve" name="14" />
   <point x="128" y="437" type="offcurve" name="14" />
   <point x="40" y="451" type="curve" smooth="no" name="13" />
   <point x="40" y="374" type="line" smooth="no" name="13" />
   <point x="101" y="345" type="offcurve" name="14" />
   <point x="150" y="296" type="offcurve" name="14" />
   <point x="181" y="231" type="curve" smooth="no" name="13" />
   <point x="150" y="167" type="offcurve" name="14" />
   <point x="101" y="117" type="offcurve" name="14" />
   <point x="40" y="89" type="curve" smooth="no" name="13" />
  </contour>
  <contour>
   <point x="266" y="12" type="line" smooth="no" name="13" />
   <point x="355" y="26" type="offcurve" name="14" />
   <point x="448" y="118" type="offcurve" name="14" />
   <point x="495" y="231" type="curve" smooth="no" name="13" />
   <point x="448" y="345" type="offcurve" name="14" />
   <point x="355" y="437" type="offcurve" name="14" />
   <point x="266" y="451" type="curve" smooth="no" name="13" />
   <point x="266" y="374" type="line" smooth="no" name="13" />
   <point x="328" y="345" type="offcurve" name="14" />
   <point x="377" y="296" type="offcurve" name="14" />
   <point x="407" y="231" type="curve" smooth="no" name="13" />
   <point x="377" y="167" type="offcurve" name="14" />
   <point x="328" y="117" type="offcurve" name="14" />
   <point x="266" y="89" type="curve" smooth="no" name="13" />
  </contour>
 </outline>
</glyph>
<glyph name="onequarter" format="1">
 <advance width="862" />
 <unicode hex="00bc" />
 <outline>
  <contour>
   <point x="494" y="127" type="line" smooth="no" name="13" />
   <point x="494" y="62" type="line" smooth="no" name="13" />
   <point x="656" y="62" type="line" smooth="no" name="13" />
   <point x="656" y="0" type="line" smooth="no" name="13" />
   <point x="726" y="0" type="line" smooth="no" name="13" />
   <point x="726" y="62" type="line" smooth="no" name="13" />
   <point x="784" y="62" type="line" smooth="no" name="13" />
   <point x="784" y="122" type="line" smooth="no" name="13" />
   <point x="726" y="122" type="line" smooth="no" name="13" />
   <point x="726" y="318" type="line" smooth="no" name="13" />
   <point x="655" y="318" type="line" smooth="no" name="13" />
  </contour>
  <contour>
   <point x="571" y="122" type="line" smooth="no" name="13" />
   <point x="656" y="230" type="line" smooth="no" name="13" />
   <point x="656" y="122" type="line" smooth="no" name="13" />
  </contour>
  <contour>
   <point x="271" y="633" type="line" smooth="no" name="13" />
   <point x="195" y="633" type="line" smooth="no" name="13" />
   <point x="78" y="522" type="line" smooth="no" name="13" />
   <point x="122" y="476" type="line" smooth="no" name="13" />
   <point x="201" y="548" type="line" smooth="no" name="13" />
   <point x="201" y="318" type="line" smooth="no" name="13" />
   <point x="271" y="318" type="line" smooth="no" name="13" />
  </contour>
  <contour>
   <point x="652" y="633" type="line" smooth="no" name="13" />
   <point x="590" y="633" type="line" smooth="no" name="13" />
   <point x="206" y="-30" type="line" smooth="no" name="13" />
   <point x="268" y="-30" type="line" smooth="no" name="13" />
  </contour>
 </outline>
</glyph>
<glyph name="onehalf" format="1">
 <advance width="861" />
 <unicode hex="00bd" />
 <outline>
  <contour>
   <point x="271" y="633" type="line" smooth="no" name="13" />
   <point x="195" y="633" type="line" smooth="no" name="13" />
   <point x="78" y="522" type="line" smooth="no" name="13" />
   <point x="122" y="476" type="line" smooth="no" name="13" />
   <point x="201" y="548" type="line" smooth="no" name="13" />
   <point x="201" y="318" type="line" smooth="no" name="13" />
   <point x="271" y="318" type="line" smooth="no" name="13" />
  </contour>
  <contour>
   <point x="545" y="0" type="line" smooth="no" name="13" />
   <point x="779" y="0" type="line" smooth="no" name="13" />
   <point x="779" y="60" type="line" smooth="no" name="13" />
   <point x="654" y="60" type="line" smooth="no" name="13" />
   <point x="715" y="108" type="line" smooth="yes" name="15" />
   <point x="760" y="143" type="offcurve" name="14" />
   <point x="783" y="177" type="offcurve" name="14" />
   <point x="783" y="226" type="curve" smooth="yes" name="15" />
   <point x="783" y="262" type="offcurve" name="14" />
   <point x="759" y="329" type="offcurve" name="14" />
   <point x="664" y="329" type="curve" smooth="yes" name="15" />
   <point x="624" y="329" type="offcurve" name="14" />
   <point x="582" y="314" type="offcurve" name="14" />
   <point x="540" y="275" type="curve" smooth="no" name="13" />
   <point x="574" y="239" type="line" smooth="no" name="13" />
   <point x="606" y="265" type="offcurve" name="14" />
   <point x="637" y="269" type="offcurve" name="14" />
   <point x="651" y="269" type="curve" smooth="yes" name="15" />
   <point x="684" y="269" type="offcurve" name="14" />
   <point x="710" y="254" type="offcurve" name="14" />
   <point x="710" y="221" type="curve" smooth="yes" name="15" />
   <point x="710" y="193" type="offcurve" name="14" />
   <point x="694" y="176" type="offcurve" name="14" />
   <point x="657" y="144" type="curve" smooth="yes" name="15" />
   <point x="545" y="60" type="line" smooth="no" name="13" />
  </contour>
  <contour>
   <point x="642" y="633" type="line" smooth="no" name="13" />
   <point x="580" y="633" type="line" smooth="no" name="13" />
   <point x="196" y="-30" type="line" smooth="no" name="13" />
   <point x="258" y="-30" type="line" smooth="no" name="13" />
  </contour>
 </outline>
</glyph>
<glyph name="questiondown" format="1">
 <advance width="403" />
 <unicode hex="00bf" />
 <outline>
  <contour>
   <point x="199" y="313" type="line" smooth="no" name="13" />
   <point x="199" y="234" type="line" smooth="yes" name="15" />
   <point x="199" y="180" type="offcurve" name="14" />
   <point x="186" y="170" type="offcurve" name="14" />
   <point x="145" y="137" type="curve" smooth="no" name="13" />
   <point x="141" y="133" type="offcurve" name="14" />
   <point x="136" y="129" type="offcurve" name="14" />
   <point x="130" y="124" type="curve" smooth="yes" name="15" />
   <point x="82" y="84" type="offcurve" name="14" />
   <point x="52" y="24" type="offcurve" name="14" />
   <point x="52" y="-38" type="curve" smooth="yes" name="15" />
   <point x="52" y="-119" type="offcurve" name="14" />
   <point x="106" y="-192" type="offcurve" name="14" />
   <point x="208" y="-192" type="curve" smooth="yes" name="15" />
   <point x="267" y="-192" type="offcurve" name="14" />
   <point x="314" y="-173" type="offcurve" name="14" />
   <point x="361" y="-138" type="curve" smooth="no" name="13" />
   <point x="330" y="-88" type="line" smooth="no" name="13" />
   <point x="296" y="-108" type="offcurve" name="14" />
   <point x="265" y="-120" type="offcurve" name="14" />
   <point x="234" y="-120" type="curve" smooth="yes" name="15" />
   <point x="181" y="-120" type="offcurve" name="14" />
   <point x="138" y="-90" type="offcurve" name="14" />
   <point x="138" y="-30" type="curve" smooth="yes" name="15" />
   <point x="138" y="16" type="offcurve" name="14" />
   <point x="164" y="58" type="offcurve" name="14" />
   <point x="220" y="103" type="curve" smooth="yes" name="15" />
   <point x="278" y="149" type="offcurve" name="14" />
   <point x="285" y="167" type="offcurve" name="14" />
   <point x="285" y="218" type="curve" smooth="yes" name="15" />
   <point x="285" y="313" type="line" smooth="no" name="13" />
  </contour>
  <contour>
   <point x="294" y="408" type="curve" smooth="yes" name="15" />
   <point x="294" y="443" type="offcurve" name="14" />
   <point x="271" y="465" type="offcurve" name="14" />
   <point x="242" y="465" type="curve" smooth="yes" name="15" />
   <point x="208" y="465" type="offcurve" name="14" />
   <point x="185" y="443" type="offcurve" name="14" />
   <point x="185" y="408" type="curve" smooth="yes" name="15" />
   <point x="185" y="380" type="offcurve" name="14" />
   <point x="208" y="356" type="offcurve" name="14" />
   <point x="242" y="356" type="curve" smooth="yes" name="15" />
   <point x="271" y="356" type="offcurve" name="14" />
   <point x="294" y="380" type="offcurve" name="14" />
  </contour>
 </outline>
</glyph>
<glyph name="Agrave" format="1">
 <advance width="576" />
 <unicode hex="00c0" />
 <outline>
  <contour>
   <point x="244" y="633" type="line" smooth="no" name="13" />
   <point x="15" y="0" type="line" smooth="no" name="13" />
   <point x="110" y="0" type="line" smooth="no" name="13" />
   <point x="159" y="143" type="line" smooth="no" name="13" />
   <point x="418" y="143" type="line" smooth="no" name="13" />
   <point x="466" y="0" type="line" smooth="no" name="13" />
   <point x="561" y="0" type="line" smooth="no" name="13" />
   <point x="332" y="633" type="line" smooth="no" name="13" />
  </contour>
  <contour>
   <point x="288" y="521" type="line" smooth="no" name="13" />
   <point x="391" y="220" type="line" smooth="no" name="13" />
   <point x="185" y="220" type="line" smooth="no" name="13" />
  </contour>
  <contour>
   <point x="255" y="700" type="line" smooth="no" name="13" />
   <point x="312" y="700" type="line" smooth="no" name="13" />
   <point x="252" y="823" type="line" smooth="no" name="13" />
   <point x="162" y="823" type="line" smooth="no" name="13" />
  </contour>
 </outline>
</glyph>
<glyph name="Aacute" format="1">
 <advance width="576" />
 <unicode hex="00c1" />
 <outline>
  <contour>
   <point x="244" y="633" type="line" smooth="no" name="13" />
   <point x="15" y="0" type="line" smooth="no" name="13" />
   <point x="110" y="0" type="line" smooth="no" name="13" />
   <point x="159" y="143" type="line" smooth="no" name="13" />
   <point x="418" y="143" type="line" smooth="no" name="13" />
   <point x="466" y="0" type="line" smooth="no" name="13" />
   <point x="561" y="0" type="line" smooth="no" name="13" />
   <point x="332" y="633" type="line" smooth="no" name="13" />
  </contour>
  <contour>
   <point x="288" y="521" type="line" smooth="no" name="13" />
   <point x="391" y="220" type="line" smooth="no" name="13" />
   <point x="185" y="220" type="line" smooth="no" name="13" />
  </contour>
  <contour>
   <point x="412" y="823" type="line" smooth="no" name="13" />
   <point x="322" y="823" type="line" smooth="no" name="13" />
   <point x="262" y="700" type="line" smooth="no" name="13" />
   <point x="319" y="700" type="line" smooth="no" name="13" />
  </contour>
 </outline>
</glyph>
<glyph name="Acircumflex" format="1">
 <advance width="576" />
 <unicode hex="00c2" />
 <outline>
  <contour>
   <point x="332" y="633" type="line" smooth="no" name="13" />
   <point x="244" y="633" type="line" smooth="no" name="13" />
   <point x="15" y="0" type="line" smooth="no" name="13" />
   <point x="110" y="0" type="line" smooth="no" name="13" />
   <point x="159" y="143" type="line" smooth="no" name="13" />
   <point x="418" y="143" type="line" smooth="no" name="13" />
   <point x="466" y="0" type="line" smooth="no" name="13" />
   <point x="561" y="0" type="line" smooth="no" name="13" />
  </contour>
  <contour>
   <point x="185" y="220" type="line" smooth="no" name="13" />
   <point x="288" y="521" type="line" smooth="no" name="13" />
   <point x="391" y="220" type="line" smooth="no" name="13" />
  </contour>
  <contour>
   <point x="259" y="823" type="line" smooth="no" name="13" />
   <point x="173" y="700" type="line" smooth="no" name="13" />
   <point x="239" y="700" type="line" smooth="no" name="13" />
   <point x="286" y="770" type="line" smooth="no" name="13" />
   <point x="289" y="770" type="line" smooth="no" name="13" />
   <point x="335" y="700" type="line" smooth="no" name="13" />
   <point x="402" y="700" type="line" smooth="no" name="13" />
   <point x="317" y="823" type="line" smooth="no" name="13" />
  </contour>
 </outline>
</glyph>
<glyph name="Atilde" format="1">
 <advance width="576" />
 <unicode hex="00c3" />
 <outline>
  <contour>
   <point x="332" y="633" type="line" smooth="no" name="13" />
   <point x="244" y="633" type="line" smooth="no" name="13" />
   <point x="15" y="0" type="line" smooth="no" name="13" />
   <point x="110" y="0" type="line" smooth="no" name="13" />
   <point x="159" y="143" type="line" smooth="no" name="13" />
   <point x="418" y="143" type="line" smooth="no" name="13" />
   <point x="466" y="0" type="line" smooth="no" name="13" />
   <point x="561" y="0" type="line" smooth="no" name="13" />
  </contour>
  <contour>
   <point x="185" y="220" type="line" smooth="no" name="13" />
   <point x="288" y="521" type="line" smooth="no" name="13" />
   <point x="391" y="220" type="line" smooth="no" name="13" />
  </contour>
  <contour>
   <point x="428" y="787" type="curve" smooth="no" name="13" />
   <point x="394" y="810" type="line" smooth="no" name="13" />
   <point x="382" y="785" type="offcurve" name="14" />
   <point x="364" y="763" type="offcurve" name="14" />
   <point x="345" y="763" type="curve" smooth="yes" name="15" />
   <point x="335" y="763" type="offcurve" name="14" />
   <point x="321" y="771" type="offcurve" name="14" />
   <point x="311" y="777" type="curve" smooth="no" name="13" />
   <point x="309" y="779" type="offcurve" name="14" />
   <point x="307" y="780" type="offcurve" name="14" />
   <point x="305" y="781" type="curve" smooth="yes" name="15" />
   <point x="282" y="794" type="offcurve" name="14" />
   <point x="259" y="807" type="offcurve" name="14" />
   <point x="233" y="807" type="curve" smooth="yes" name="15" />
   <point x="198" y="807" type="offcurve" name="14" />
   <point x="164" y="783" type="offcurve" name="14" />
   <point x="147" y="722" type="curve" smooth="no" name="13" />
   <point x="180" y="700" type="line" smooth="no" name="13" />
   <point x="188" y="722" type="offcurve" name="14" />
   <point x="210" y="744" type="offcurve" name="14" />
   <point x="233" y="744" type="curve" smooth="yes" name="15" />
   <point x="248" y="744" type="offcurve" name="14" />
   <point x="261" y="736" type="offcurve" name="14" />
   <point x="276" y="727" type="curve" smooth="yes" name="15" />
   <point x="279" y="725" type="offcurve" name="14" />
   <point x="282" y="724" type="offcurve" name="14" />
   <point x="285" y="722" type="curve" smooth="yes" name="15" />
   <point x="299" y="714" type="offcurve" name="14" />
   <point x="320" y="702" type="offcurve" name="14" />
   <point x="345" y="702" type="curve" smooth="yes" name="15" />
   <point x="383" y="702" type="offcurve" name="14" />
   <point x="411" y="726" type="offcurve" name="14" />
  </contour>
 </outline>
</glyph>
<glyph name="Adieresis" format="1">
 <advance width="576" />
 <unicode hex="00c4" />
 <outline>
  <contour>
   <point x="244" y="633" type="line" smooth="no" name="13" />
   <point x="15" y="0" type="line" smooth="no" name="13" />
   <point x="110" y="0" type="line" smooth="no" name="13" />
   <point x="159" y="143" type="line" smooth="no" name="13" />
   <point x="418" y="143" type="line" smooth="no" name="13" />
   <point x="466" y="0" type="line" smooth="no" name="13" />
   <point x="561" y="0" type="line" smooth="no" name="13" />
   <point x="332" y="633" type="line" smooth="no" name="13" />
  </contour>
  <contour>
   <point x="288" y="521" type="line" smooth="no" name="13" />
   <point x="391" y="220" type="line" smooth="no" name="13" />
   <point x="185" y="220" type="line" smooth="no" name="13" />
  </contour>
  <contour>
   <point x="153" y="762" type="curve" smooth="yes" name="15" />
   <point x="153" y="732" type="offcurve" name="14" />
   <point x="175" y="710" type="offcurve" name="14" />
   <point x="205" y="710" type="curve" smooth="yes" name="15" />
   <point x="232" y="710" type="offcurve" name="14" />
   <point x="256" y="732" type="offcurve" name="14" />
   <point x="256" y="762" type="curve" smooth="yes" name="15" />
   <point x="256" y="789" type="offcurve" name="14" />
   <point x="232" y="813" type="offcurve" name="14" />
   <point x="205" y="813" type="curve" smooth="yes" name="15" />
   <point x="175" y="813" type="offcurve" name="14" />
   <point x="153" y="789" type="offcurve" name="14" />
  </contour>
  <contour>
   <point x="315" y="762" type="curve" smooth="yes" name="15" />
   <point x="315" y="732" type="offcurve" name="14" />
   <point x="338" y="710" type="offcurve" name="14" />
   <point x="366" y="710" type="curve" smooth="yes" name="15" />
   <point x="395" y="710" type="offcurve" name="14" />
   <point x="418" y="732" type="offcurve" name="14" />
   <point x="418" y="762" type="curve" smooth="yes" name="15" />
   <point x="418" y="789" type="offcurve" name="14" />
   <point x="395" y="813" type="offcurve" name="14" />
   <point x="366" y="813" type="curve" smooth="yes" name="15" />
   <point x="338" y="813" type="offcurve" name="14" />
   <point x="315" y="789" type="offcurve" name="14" />
  </contour>
 </outline>
</glyph>
<glyph name="Aring" format="1">
 <advance width="576" />
 <unicode hex="00c5" />
 <outline>
  <contour>
   <point x="332" y="633" type="line" smooth="no" name="13" />
   <point x="244" y="633" type="line" smooth="no" name="13" />
   <point x="15" y="0" type="line" smooth="no" name="13" />
   <point x="110" y="0" type="line" smooth="no" name="13" />
   <point x="159" y="143" type="line" smooth="no" name="13" />
   <point x="418" y="143" type="line" smooth="no" name="13" />
   <point x="466" y="0" type="line" smooth="no" name="13" />
   <point x="561" y="0" type="line" smooth="no" name="13" />
  </contour>
  <contour>
   <point x="185" y="220" type="line" smooth="no" name="13" />
   <point x="288" y="521" type="line" smooth="no" name="13" />
   <point x="391" y="220" type="line" smooth="no" name="13" />
  </contour>
  <contour>
   <point x="289" y="656" type="curve" smooth="yes" name="15" />
   <point x="334" y="656" type="offcurve" name="14" />
   <point x="371" y="692" type="offcurve" name="14" />
   <point x="371" y="737" type="curve" smooth="yes" name="15" />
   <point x="371" y="782" type="offcurve" name="14" />
   <point x="334" y="818" type="offcurve" name="14" />
   <point x="289" y="818" type="curve" smooth="yes" name="15" />
   <point x="245" y="818" type="offcurve" name="14" />
   <point x="208" y="782" type="offcurve" name="14" />
   <point x="208" y="737" type="curve" smooth="yes" name="15" />
   <point x="208" y="692" type="offcurve" name="14" />
   <point x="245" y="656" type="offcurve" name="14" />
  </contour>
  <contour>
   <point x="289" y="705" type="curve" smooth="no" name="13" />
   <point x="270" y="706" type="offcurve" name="14" />
   <point x="257" y="719" type="offcurve" name="14" />
   <point x="257" y="737" type="curve" smooth="yes" name="15" />
   <point x="257" y="755" type="offcurve" name="14" />
   <point x="272" y="769" type="offcurve" name="14" />
   <point x="289" y="769" type="curve" smooth="yes" name="15" />
   <point x="307" y="769" type="offcurve" name="14" />
   <point x="322" y="755" type="offcurve" name="14" />
   <point x="322" y="737" type="curve" smooth="yes" name="15" />
   <point x="322" y="719" type="offcurve" name="14" />
   <point x="309" y="706" type="offcurve" name="14" />
  </contour>
 </outline>
</glyph>
<glyph name="AE" format="1">
 <advance width="812" />
 <unicode hex="00c6" />
 <outline>
  <contour>
   <point x="754" y="633" type="line" smooth="no" name="13" />
   <point x="286" y="633" type="line" smooth="no" name="13" />
   <point x="15" y="0" type="line" smooth="no" name="13" />
   <point x="110" y="0" type="line" smooth="no" name="13" />
   <point x="168" y="143" type="line" smooth="no" name="13" />
   <point x="368" y="143" type="line" smooth="no" name="13" />
   <point x="368" y="0" type="line" smooth="no" name="13" />
   <point x="767" y="0" type="line" smooth="no" name="13" />
   <point x="767" y="77" type="line" smooth="no" name="13" />
   <point x="461" y="77" type="line" smooth="no" name="13" />
   <point x="461" y="290" type="line" smooth="no" name="13" />
   <point x="707" y="290" type="line" smooth="no" name="13" />
   <point x="707" y="367" type="line" smooth="no" name="13" />
   <point x="461" y="367" type="line" smooth="no" name="13" />
   <point x="461" y="556" type="line" smooth="no" name="13" />
   <point x="754" y="556" type="line" smooth="no" name="13" />
  </contour>
  <contour>
   <point x="339" y="556" type="line" smooth="no" name="13" />
   <point x="368" y="556" type="line" smooth="no" name="13" />
   <point x="368" y="220" type="line" smooth="no" name="13" />
   <point x="200" y="220" type="line" smooth="no" name="13" />
  </contour>
 </outline>
</glyph>
<glyph name="Ccedilla" format="1">
 <advance width="566" />
 <unicode hex="00c7" />
 <outline>
  <contour>
   <point x="302" y="-10" type="curve" smooth="no" name="13" />
   <point x="292" y="-55" type="line" smooth="no" name="13" />
   <point x="309" y="-53" type="offcurve" name="14" />
   <point x="318" y="-53" type="offcurve" name="14" />
   <point x="325" y="-53" type="curve" smooth="yes" name="15" />
   <point x="349" y="-53" type="offcurve" name="14" />
   <point x="369" y="-64" type="offcurve" name="14" />
   <point x="369" y="-86" type="curve" smooth="yes" name="15" />
   <point x="369" y="-107" type="offcurve" name="14" />
   <point x="351" y="-116" type="offcurve" name="14" />
   <point x="329" y="-116" type="curve" smooth="yes" name="15" />
   <point x="305" y="-116" type="offcurve" name="14" />
   <point x="289" y="-111" type="offcurve" name="14" />
   <point x="270" y="-105" type="curve" smooth="no" name="13" />
   <point x="257" y="-144" type="line" smooth="no" name="13" />
   <point x="287" y="-157" type="offcurve" name="14" />
   <point x="315" y="-160" type="offcurve" name="14" />
   <point x="333" y="-160" type="curve" smooth="yes" name="15" />
   <point x="389" y="-160" type="offcurve" name="14" />
   <point x="426" y="-129" type="offcurve" name="14" />
   <point x="426" y="-86" type="curve" smooth="yes" name="15" />
   <point x="426" y="-52" type="offcurve" name="14" />
   <point x="404" y="-27" type="offcurve" name="14" />
   <point x="366" y="-27" type="curve" smooth="yes" name="15" />
   <point x="360" y="-27" type="offcurve" name="14" />
   <point x="355" y="-27" type="offcurve" name="14" />
   <point x="349" y="-28" type="curve" smooth="no" name="13" />
   <point x="354" y="-11" type="line" smooth="no" name="13" />
   <point x="412" y="-6" type="offcurve" name="14" />
   <point x="468" y="19" type="offcurve" name="14" />
   <point x="516" y="61" type="curve" smooth="no" name="13" />
   <point x="479" y="117" type="line" smooth="no" name="13" />
   <point x="438" y="89" type="offcurve" name="14" />
   <point x="397" y="70" type="offcurve" name="14" />
   <point x="345" y="70" type="curve" smooth="yes" name="15" />
   <point x="219" y="70" type="offcurve" name="14" />
   <point x="146" y="177" type="offcurve" name="14" />
   <point x="146" y="310" type="curve" smooth="yes" name="15" />
   <point x="146" y="473" type="offcurve" name="14" />
   <point x="225" y="565" type="offcurve" name="14" />
   <point x="336" y="565" type="curve" smooth="yes" name="15" />
   <point x="391" y="565" type="offcurve" name="14" />
   <point x="433" y="545" type="offcurve" name="14" />
   <point x="471" y="520" type="curve" smooth="no" name="13" />
   <point x="508" y="576" type="line" smooth="no" name="13" />
   <point x="443" y="628" type="offcurve" name="14" />
   <point x="389" y="645" type="offcurve" name="14" />
   <point x="318" y="645" type="curve" smooth="yes" name="15" />
   <point x="139" y="645" type="offcurve" name="14" />
   <point x="48" y="466" type="offcurve" name="14" />
   <point x="48" y="310" type="curve" smooth="yes" name="15" />
   <point x="48" y="154" type="offcurve" name="14" />
   <point x="132" y="5" type="offcurve" name="14" />
  </contour>
 </outline>
</glyph>
<glyph name="Egrave" format="1">
 <advance width="526" />
 <unicode hex="00c8" />
 <outline>
  <contour>
   <point x="82" y="633" type="line" smooth="no" name="13" />
   <point x="82" y="0" type="line" smooth="no" name="13" />
   <point x="481" y="0" type="line" smooth="no" name="13" />
   <point x="481" y="77" type="line" smooth="no" name="13" />
   <point x="175" y="77" type="line" smooth="no" name="13" />
   <point x="175" y="290" type="line" smooth="no" name="13" />
   <point x="421" y="290" type="line" smooth="no" name="13" />
   <point x="421" y="367" type="line" smooth="no" name="13" />
   <point x="175" y="367" type="line" smooth="no" name="13" />
   <point x="175" y="556" type="line" smooth="no" name="13" />
   <point x="468" y="556" type="line" smooth="no" name="13" />
   <point x="468" y="633" type="line" smooth="no" name="13" />
  </contour>
  <contour>
   <point x="271" y="701" type="line" smooth="no" name="13" />
   <point x="328" y="701" type="line" smooth="no" name="13" />
   <point x="268" y="824" type="line" smooth="no" name="13" />
   <point x="178" y="824" type="line" smooth="no" name="13" />
  </contour>
 </outline>
</glyph>
<glyph name="Eacute" format="1">
 <advance width="526" />
 <unicode hex="00c9" />
 <outline>
  <contour>
   <point x="82" y="633" type="line" smooth="no" name="13" />
   <point x="82" y="0" type="line" smooth="no" name="13" />
   <point x="481" y="0" type="line" smooth="no" name="13" />
   <point x="481" y="77" type="line" smooth="no" name="13" />
   <point x="175" y="77" type="line" smooth="no" name="13" />
   <point x="175" y="290" type="line" smooth="no" name="13" />
   <point x="421" y="290" type="line" smooth="no" name="13" />
   <point x="421" y="367" type="line" smooth="no" name="13" />
   <point x="175" y="367" type="line" smooth="no" name="13" />
   <point x="175" y="556" type="line" smooth="no" name="13" />
   <point x="468" y="556" type="line" smooth="no" name="13" />
   <point x="468" y="633" type="line" smooth="no" name="13" />
  </contour>
  <contour>
   <point x="367" y="819" type="line" smooth="no" name="13" />
   <point x="277" y="819" type="line" smooth="no" name="13" />
   <point x="217" y="696" type="line" smooth="no" name="13" />
   <point x="274" y="696" type="line" smooth="no" name="13" />
  </contour>
 </outline>
</glyph>
<glyph name="Ecircumflex" format="1">
 <advance width="526" />
 <unicode hex="00ca" />
 <outline>
  <contour>
   <point x="82" y="633" type="line" smooth="no" name="13" />
   <point x="82" y="0" type="line" smooth="no" name="13" />
   <point x="481" y="0" type="line" smooth="no" name="13" />
   <point x="481" y="77" type="line" smooth="no" name="13" />
   <point x="175" y="77" type="line" smooth="no" name="13" />
   <point x="175" y="290" type="line" smooth="no" name="13" />
   <point x="421" y="290" type="line" smooth="no" name="13" />
   <point x="421" y="367" type="line" smooth="no" name="13" />
   <point x="175" y="367" type="line" smooth="no" name="13" />
   <point x="175" y="556" type="line" smooth="no" name="13" />
   <point x="468" y="556" type="line" smooth="no" name="13" />
   <point x="468" y="633" type="line" smooth="no" name="13" />
  </contour>
  <contour>
   <point x="246" y="823" type="line" smooth="no" name="13" />
   <point x="160" y="700" type="line" smooth="no" name="13" />
   <point x="226" y="700" type="line" smooth="no" name="13" />
   <point x="273" y="770" type="line" smooth="no" name="13" />
   <point x="276" y="770" type="line" smooth="no" name="13" />
   <point x="322" y="700" type="line" smooth="no" name="13" />
   <point x="389" y="700" type="line" smooth="no" name="13" />
   <point x="304" y="823" type="line" smooth="no" name="13" />
  </contour>
 </outline>
</glyph>
<glyph name="Edieresis" format="1">
 <advance width="526" />
 <unicode hex="00cb" />
 <outline>
  <contour>
   <point x="82" y="633" type="line" smooth="no" name="13" />
   <point x="82" y="0" type="line" smooth="no" name="13" />
   <point x="481" y="0" type="line" smooth="no" name="13" />
   <point x="481" y="77" type="line" smooth="no" name="13" />
   <point x="175" y="77" type="line" smooth="no" name="13" />
   <point x="175" y="290" type="line" smooth="no" name="13" />
   <point x="421" y="290" type="line" smooth="no" name="13" />
   <point x="421" y="367" type="line" smooth="no" name="13" />
   <point x="175" y="367" type="line" smooth="no" name="13" />
   <point x="175" y="556" type="line" smooth="no" name="13" />
   <point x="468" y="556" type="line" smooth="no" name="13" />
   <point x="468" y="633" type="line" smooth="no" name="13" />
  </contour>
  <contour>
   <point x="145" y="762" type="curve" smooth="yes" name="15" />
   <point x="145" y="732" type="offcurve" name="14" />
   <point x="167" y="710" type="offcurve" name="14" />
   <point x="197" y="710" type="curve" smooth="yes" name="15" />
   <point x="224" y="710" type="offcurve" name="14" />
   <point x="248" y="732" type="offcurve" name="14" />
   <point x="248" y="762" type="curve" smooth="yes" name="15" />
   <point x="248" y="789" type="offcurve" name="14" />
   <point x="224" y="813" type="offcurve" name="14" />
   <point x="197" y="813" type="curve" smooth="yes" name="15" />
   <point x="167" y="813" type="offcurve" name="14" />
   <point x="145" y="789" type="offcurve" name="14" />
  </contour>
  <contour>
   <point x="307" y="762" type="curve" smooth="yes" name="15" />
   <point x="307" y="732" type="offcurve" name="14" />
   <point x="330" y="710" type="offcurve" name="14" />
   <point x="358" y="710" type="curve" smooth="yes" name="15" />
   <point x="387" y="710" type="offcurve" name="14" />
   <point x="410" y="732" type="offcurve" name="14" />
   <point x="410" y="762" type="curve" smooth="yes" name="15" />
   <point x="410" y="789" type="offcurve" name="14" />
   <point x="387" y="813" type="offcurve" name="14" />
   <point x="358" y="813" type="curve" smooth="yes" name="15" />
   <point x="330" y="813" type="offcurve" name="14" />
   <point x="307" y="789" type="offcurve" name="14" />
  </contour>
 </outline>
</glyph>
<glyph name="Igrave" format="1">
 <advance width="272" />
 <unicode hex="00cc" />
 <outline>
  <contour>
   <point x="182" y="633" type="line" smooth="no" name="13" />
   <point x="90" y="633" type="line" smooth="no" name="13" />
   <point x="90" y="0" type="line" smooth="no" name="13" />
   <point x="182" y="0" type="line" smooth="no" name="13" />
  </contour>
  <contour>
   <point x="107" y="700" type="line" smooth="no" name="13" />
   <point x="164" y="700" type="line" smooth="no" name="13" />
   <point x="104" y="823" type="line" smooth="no" name="13" />
   <point x="14" y="823" type="line" smooth="no" name="13" />
  </contour>
 </outline>
</glyph>
<glyph name="Iacute" format="1">
 <advance width="272" />
 <unicode hex="00cd" />
 <outline>
  <contour>
   <point x="182" y="633" type="line" smooth="no" name="13" />
   <point x="90" y="633" type="line" smooth="no" name="13" />
   <point x="90" y="0" type="line" smooth="no" name="13" />
   <point x="182" y="0" type="line" smooth="no" name="13" />
  </contour>
  <contour>
   <point x="259" y="823" type="line" smooth="no" name="13" />
   <point x="169" y="823" type="line" smooth="no" name="13" />
   <point x="109" y="700" type="line" smooth="no" name="13" />
   <point x="166" y="700" type="line" smooth="no" name="13" />
  </contour>
 </outline>
</glyph>
<glyph name="Icircumflex" format="1">
 <advance width="272" />
 <unicode hex="00ce" />
 <outline>
  <contour>
   <point x="182" y="0" type="line" smooth="no" name="13" />
   <point x="182" y="633" type="line" smooth="no" name="13" />
   <point x="90" y="633" type="line" smooth="no" name="13" />
   <point x="90" y="0" type="line" smooth="no" name="13" />
  </contour>
  <contour>
   <point x="110" y="834" type="line" smooth="no" name="13" />
   <point x="24" y="711" type="line" smooth="no" name="13" />
   <point x="90" y="711" type="line" smooth="no" name="13" />
   <point x="137" y="781" type="line" smooth="no" name="13" />
   <point x="140" y="781" type="line" smooth="no" name="13" />
   <point x="186" y="711" type="line" smooth="no" name="13" />
   <point x="253" y="711" type="line" smooth="no" name="13" />
   <point x="168" y="834" type="line" smooth="no" name="13" />
  </contour>
 </outline>
</glyph>
<glyph name="Idieresis" format="1">
 <advance width="272" />
 <unicode hex="00cf" />
 <outline>
  <contour>
   <point x="182" y="633" type="line" smooth="no" name="13" />
   <point x="90" y="633" type="line" smooth="no" name="13" />
   <point x="90" y="0" type="line" smooth="no" name="13" />
   <point x="182" y="0" type="line" smooth="no" name="13" />
  </contour>
  <contour>
   <point x="4" y="762" type="curve" smooth="yes" name="15" />
   <point x="4" y="732" type="offcurve" name="14" />
   <point x="26" y="710" type="offcurve" name="14" />
   <point x="56" y="710" type="curve" smooth="yes" name="15" />
   <point x="83" y="710" type="offcurve" name="14" />
   <point x="107" y="732" type="offcurve" name="14" />
   <point x="107" y="762" type="curve" smooth="yes" name="15" />
   <point x="107" y="789" type="offcurve" name="14" />
   <point x="83" y="813" type="offcurve" name="14" />
   <point x="56" y="813" type="curve" smooth="yes" name="15" />
   <point x="26" y="813" type="offcurve" name="14" />
   <point x="4" y="789" type="offcurve" name="14" />
  </contour>
  <contour>
   <point x="166" y="762" type="curve" smooth="yes" name="15" />
   <point x="166" y="732" type="offcurve" name="14" />
   <point x="189" y="710" type="offcurve" name="14" />
   <point x="217" y="710" type="curve" smooth="yes" name="15" />
   <point x="246" y="710" type="offcurve" name="14" />
   <point x="269" y="732" type="offcurve" name="14" />
   <point x="269" y="762" type="curve" smooth="yes" name="15" />
   <point x="269" y="789" type="offcurve" name="14" />
   <point x="246" y="813" type="offcurve" name="14" />
   <point x="217" y="813" type="curve" smooth="yes" name="15" />
   <point x="189" y="813" type="offcurve" name="14" />
   <point x="166" y="789" type="offcurve" name="14" />
  </contour>
 </outline>
</glyph>
